SplineFontDB: 3.0
FontName: Laksaman-BoldItalic
FullName: Laksaman Bold Italic
FamilyName: Laksaman
Weight: Bold
Copyright: Laksaman, based on TH Sarabun New.\n\nCopyright (c) 2014 Theppitak Karoonboonyanan.\n\nTH Sarabun New:\n\nCopyright (c) 2010-2011 by Software Industry Promotion Agency (Public Organization) (SIPA). All rights reserved.\nCreated by : Suppakit CHALERMLARP.
Version: 003.011
ItalicAngle: -12
UnderlinePosition: -20
UnderlineWidth: 30
Ascent: 800
Descent: 200
InvalidEm: 0
LayerCount: 2
Layer: 0 0 "Back" 1
Layer: 1 0 "Fore" 0
XUID: [1021 373 914837695 15431195]
FSType: 0
OS2Version: 4
OS2_WeightWidthSlopeOnly: 0
OS2_UseTypoMetrics: 1
CreationTime: 1308745585
ModificationTime: 1450857296
PfmFamily: 33
TTFWeight: 700
TTFWidth: 5
LineGap: 30
VLineGap: 0
Panose: 2 11 5 0 4 2 0 2 0 3
OS2TypoAscent: 1279
OS2TypoAOffset: 0
OS2TypoDescent: -376
OS2TypoDOffset: 0
OS2TypoLinegap: 60
OS2WinAscent: 1270
OS2WinAOffset: 0
OS2WinDescent: 687
OS2WinDOffset: 0
HheadAscent: 1270
HheadAOffset: 0
HheadDescent: -687
HheadDOffset: 0
OS2SubXSize: 700
OS2SubYSize: 650
OS2SubXOff: 0
OS2SubYOff: 140
OS2SupXSize: 700
OS2SupYSize: 650
OS2SupXOff: 0
OS2SupYOff: 477
OS2StrikeYSize: 30
OS2StrikeYPos: 250
OS2FamilyClass: 2053
OS2Vendor: 'psk '
OS2CodePages: 60010183.80000000
OS2UnicodeRanges: a100006f.5000205a.00000000.00000000
Lookup: 4 0 0 "'frac' Diagonal Fractions in Latin lookup 0" { "'frac' Diagonal Fractions in Latin lookup 0 subtable"  } ['frac' ('latn' <'dflt' > ) ]
Lookup: 4 0 1 "'rlig' Required Ligatures in Latin lookup 1" { "'rlig' Required Ligatures in Latin lookup 1 subtable"  } ['rlig' ('latn' <'dflt' > ) ]
Lookup: 4 0 1 "'rlig' Required Ligatures in Latin lookup 19" { "'rlig' Required Ligatures in Latin lookup 19 subtable"  } ['rlig' ('latn' <'dflt' > ) ]
Lookup: 4 0 1 "'rlig' Required Ligatures in Latin lookup 20" { "'rlig' Required Ligatures in Latin lookup 20 subtable"  } ['rlig' ('latn' <'dflt' > ) ]

StartChar: .notdef
Encoding: 65536 -1 0
Width: 1049
VWidth: 1504
Flags: W
HStem: 0 47<134 916> 1170 47<134 916>
VStem: 80 54<47 1170> 916 54<47 1170>
LayerCount: 2
Fore
SplineSet
970 0 m 1
 80 0 l 1
 80 1217 l 1
 970 1217 l 1
 970 0 l 1
916 47 m 1
 916 1170 l 1
 134 1170 l 1
 134 47 l 1
 916 47 l 1
EndSplineSet
Validated: 1
EndChar

StartChar: exclam
Encoding: 33 33 2
Width: 252
VWidth: 1504
Flags: W
HStem: -14 145<30.997 112.76> 696 20G<154.134 266>
VStem: -1 147<18.6887 99.0825>
LayerCount: 2
Back
SplineSet
144 209 m 1
 60 209 l 1
 158 716 l 1
 266 716 l 1
 144 209 l 1
144 59 m 256
 140 39 129.5 21.8333 112.5 7.5 c 128
 95.5 -6.83333 77 -14 57 -14 c 256
 37 -14 21.6667 -6.83333 11 7.5 c 128
 0.333333 21.8333 -3.33333 39 0 59 c 0
 4 79 14.5 96 31.5 110 c 128
 48.5 124 67 131 87 131 c 256
 107 131 122.5 124 133.5 110 c 128
 144.5 96 148 79 144 59 c 256
EndSplineSet
Fore
SplineSet
144 209 m 1
 60 209 l 1
 158 716 l 1
 266 716 l 1
 144 209 l 1
146 74 m 3
 146 27 103 -14 57 -14 c 259
 23 -14 -1 10 -1 45 c 3
 -1 91 41 131 87 131 c 259
 120 131 146 108 146 74 c 3
EndSplineSet
Validated: 1
EndChar

StartChar: quotedbl
Encoding: 34 34 3
Width: 437
VWidth: 1504
Flags: W
HStem: 501 290<174 200 356 384>
VStem: 132 331
LayerCount: 2
Fore
SplineSet
384 501 m 1
 314 501 l 1
 356 791 l 1
 463 791 l 1
 384 501 l 1
200 501 m 1
 132 501 l 1
 174 791 l 1
 281 791 l 1
 200 501 l 1
EndSplineSet
Validated: 1
EndChar

StartChar: numbersign
Encoding: 35 35 4
Width: 694
VWidth: 1504
Flags: W
HStem: 0 21G<51 146.636 329 424.916> 214 79<45 122 238 405 516 600> 427 81<110 196 310 475 590 668>
DStem2: 51 0 140 0 0.320999 0.94708<28.5689 225.466 337.521 450.948 564.255 753.897> 329 0 418 0 0.319808 0.947482<28.4629 227.067 337.416 451.267 564.791 753.576>
LayerCount: 2
Fore
SplineSet
418 0 m 1
 329 0 l 1
 405 214 l 1
 211 214 l 1
 140 0 l 1
 51 0 l 1
 122 214 l 1
 29 214 l 1
 45 293 l 1
 149 293 l 1
 196 427 l 1
 93 427 l 1
 110 508 l 1
 221 508 l 1
 293 714 l 1
 379 714 l 1
 310 508 l 1
 501 508 l 1
 570 714 l 1
 659 714 l 1
 590 508 l 1
 684 508 l 1
 668 427 l 1
 561 427 l 1
 516 293 l 1
 617 293 l 1
 600 214 l 1
 492 214 l 1
 418 0 l 1
429 293 m 1
 475 427 l 1
 283 427 l 1
 238 293 l 1
 429 293 l 1
EndSplineSet
Validated: 1
EndChar

StartChar: dollar
Encoding: 36 36 5
Width: 552
VWidth: 1504
Flags: W
HStem: -83 187<171.949 236> 612 190<347 410.751>
VStem: 123 96<468.567 566.334> 374 95<162.122 273.685>
DStem2: 147 -83 236 -83 0.207912 0.978148<18.5041 108.466 812.953 907.243>
LayerCount: 2
Back
SplineSet
465 208 m 1
 455.667 166 432.167 127.833 394.5 93.5 c 128
 356.833 59.1667 311.666 36.6667 259 26 c 1
 236 -83 l 1
 147 -83 l 1
 170 23 l 1
 104.667 29 53.0003 49.3333 15 84 c 1
 72 156 l 1
 108 120.667 156.667 103.334 218 104 c 0
 258 104 292.167 113.167 320.5 131.5 c 128
 348.833 149.833 366 174.333 372 205 c 0
 382 252.333 350.333 292.666 277 326 c 1
 161 380 110.667 443.667 126 517 c 0
 135.333 560.333 157.5 597.5 192.5 628.5 c 128
 227.5 659.5 271 680 323 690 c 1
 347 802 l 1
 435 802 l 1
 411 692 l 1
 457 686 501.667 669.333 545 642 c 1
 484 569 l 1
 456 598.333 412.333 612.666 353 612 c 0
 319.667 612 290.334 604.333 265 589 c 128
 239.667 573.662 224.667 552.328 220 525 c 1
 212 487 247.333 448.333 326 409 c 0
 386 379.667 426.5 350.167 447.5 320.5 c 128
 468.5 290.833 474.333 253.333 465 208 c 1
EndSplineSet
Fore
SplineSet
353 612 m 3
 288 612 219 578 219 514 c 3
 219 479 255 445 326 409 c 0
 406 368 469 328 469 248 c 3
 469 236 468 222 465 208 c 0
 445 118 355 45 259 26 c 1
 236 -83 l 1
 147 -83 l 1
 170 23 l 1
 105 29 53 49 15 84 c 1
 72 156 l 1
 108 121 157 104 218 104 c 3
 297 104 374 146 374 222 c 3
 374 262 341 296 277 326 c 0
 175 374 123 429 123 492 c 3
 123 500 124 508 126 517 c 0
 146 609 226 671 323 690 c 1
 347 802 l 1
 435 802 l 1
 411 692 l 1
 457 686 502 669 545 642 c 1
 484 569 l 1
 456 598 412 612 353 612 c 3
EndSplineSet
Validated: 1
EndChar

StartChar: percent
Encoding: 37 37 6
Width: 1034
VWidth: 1504
Flags: W
HStem: -12 81<692.792 804.134> 289 81<199.442 307.829> 350 79<743.028 854.076> 650 80<248.147 358.224> 696 20G<762.178 871>
VStem: 90 93<383.761 555.014> 374 92<463.546 634.97> 585 91<84.0292 255.749> 870 94<164.258 334.213>
DStem2: 165 -14 257 -14 0.643684 0.765292<59.2189 953.885>
LayerCount: 2
Back
SplineSet
257 -14 m 1
 165 -14 l 1
 779 716 l 1
 871 716 l 1
 257 -14 l 1
456 508 m 0
 424.667 361.333 349.334 288.333 230 289 c 0
 112 289 68.3333 362 99 508 c 1
 131 655.333 206.333 729.333 325 730 c 1
 444.333 729.333 488 655.333 456 508 c 0
367 508 m 0
 387 602 367 649.333 307 650 c 0
 249 650 210 602.667 190 508 c 0
 170.667 416 190 370 248 370 c 0
 308 370 347.667 416 367 508 c 0
954 209 m 0
 922.667 61.6667 847 -12 727 -12 c 0
 607.666 -12 563.333 61.6667 594 209 c 1
 625.333 355.667 700.666 429 820 429 c 0
 940.667 429 985.334 355.667 954 209 c 0
863 209 m 0
 883 303 863 350 803 350 c 0
 743.667 350 704 303 684 209 c 0
 664 115.667 683.667 69.0003 743 69 c 0
 803 69 843 115.667 863 209 c 0
EndSplineSet
Fore
SplineSet
257 -14 m 1x8f80
 165 -14 l 1
 779 716 l 1
 871 716 l 1
 257 -14 l 1x8f80
456 508 m 0
 425 361 349 289 230 289 c 3
 136 289 90 335 90 427 c 3
 90 451 93 478 99 508 c 0
 131 655 206 730 325 730 c 3xd780
 419 730 466 684 466 592 c 3
 466 567 463 539 456 508 c 0
367 508 m 0
 372 532 374 552 374 570 c 3
 374 623 352 650 307 650 c 3
 249 650 210 603 190 508 c 0
 185 485 183 465 183 448 c 3
 183 396 204 370 248 370 c 3
 308 370 348 416 367 508 c 0
954 209 m 0
 923 62 847 -12 727 -12 c 3
 632 -12 585 35 585 128 c 3
 585 152 588 179 594 209 c 0
 625 356 701 429 820 429 c 3xa780
 916 429 964 382 964 290 c 3
 964 266 960 239 954 209 c 0
863 209 m 0
 868 233 870 253 870 271 c 3
 870 324 848 350 803 350 c 3
 744 350 704 303 684 209 c 0
 679 185 676 165 676 147 c 3
 676 95 699 69 743 69 c 3
 803 69 843 116 863 209 c 0
EndSplineSet
Validated: 1
EndChar

StartChar: ampersand
Encoding: 38 38 7
Width: 731
VWidth: 1504
Flags: W
HStem: -14 82<167.414 345.609> 663 77<337.628 464.45>
VStem: 24 97<114.146 250.157> 187 95<469.319 602.961> 475 90<542.418 649.808> 626 79<346.001 400>
DStem2: 347 384 259 350 0.610228 -0.792226<0 244.616> 548 134 478 72 0.665856 -0.74608<-1.21271 124.299>
LayerCount: 2
Back
SplineSet
561 -21 m 1
 478 72 l 1
 386.667 14.6667 300.667 -14 220 -14 c 0
 152 -14 99.8333 7.16667 63.5 49.5 c 128
 27.1667 91.8333 15.6667 142.667 29 202 c 0
 48.3333 291.333 111 362 217 414 c 1
 189.667 462 181 508.667 191 554 c 0
 202.333 606 230 650 274 686 c 128
 318 722 368.667 740 426 740 c 0
 475.333 740 512.667 725.167 538 695.5 c 128
 563.333 665.833 571 628 561 582 c 0
 543.667 502.667 472.334 436.667 347 384 c 1
 381 334 430.667 269.333 496 190 c 1
 559.333 254 602.666 324 626 400 c 1
 705 400 l 1
 667.667 292 615.334 203.333 548 134 c 1
 586 90.6667 620 53 650 21 c 1
 561 -21 l 1
472 578 m 0
 484 635.333 461.667 663.666 405 663 c 0
 375 663 348.833 653 326.5 633 c 128
 304.167 613 290 588.667 284 560 c 1
 276.667 530.667 287.334 493.334 316 448 c 1
 410.667 491.333 462.667 534.667 472 578 c 0
430 128 m 1
 259 350 l 1
 181.667 310.667 137 263.334 125 208 c 0
 115.667 166.667 122.834 133 146.5 107 c 128
 170.167 81 204 68 248 68 c 0
 314 68 374.667 88 430 128 c 1
EndSplineSet
Fore
SplineSet
220 -14 m 3
 114 -14 24 51 24 156 c 3
 24 171 25 186 29 202 c 0
 48 291 111 362 217 414 c 1
 197 449 187 483 187 517 c 3
 187 529 188 542 191 554 c 0
 213 653 308 740 426 740 c 3
 504 740 565 697 565 619 c 3
 565 607 564 595 561 582 c 0
 544 503 472 437 347 384 c 1
 381 334 431 269 496 190 c 1
 559 254 603 324 626 400 c 1
 705 400 l 1
 668 292 615 203 548 134 c 1
 586 91 620 53 650 21 c 1
 561 -21 l 1
 478 72 l 1
 387 15 301 -14 220 -14 c 3
472 578 m 0
 474 588 475 597 475 605 c 3
 475 644 452 663 405 663 c 3
 342 663 295 613 284 560 c 0
 283 554 282 548 282 541 c 3
 282 515 293 484 316 448 c 1
 411 491 463 535 472 578 c 0
121 175 m 3
 121 106 179 68 248 68 c 3
 314 68 375 88 430 128 c 1
 259 350 l 1
 182 311 137 263 125 208 c 0
 122 196 121 185 121 175 c 3
EndSplineSet
Validated: 1
EndChar

StartChar: quotesingle
Encoding: 39 39 8
Width: 254
VWidth: 1504
Flags: W
HStem: 501 290<174 200>
VStem: 132 149
LayerCount: 2
Fore
SplineSet
200 501 m 1
 132 501 l 1
 174 791 l 1
 281 791 l 1
 200 501 l 1
EndSplineSet
Validated: 1
EndChar

StartChar: parenleft
Encoding: 40 40 9
Width: 367
VWidth: 1504
Flags: W
VStem: 59 96<98.2354 375.019>
LayerCount: 2
Back
SplineSet
159 -83 m 1
 67 39.6667 38.6667 185 74 353 c 1
 108 510.333 197 658.333 341 797 c 1
 453 797 l 1
 296.333 657.667 201 509.667 167 353 c 1
 135.667 204.333 168.334 58.9997 265 -83 c 1
 159 -83 l 1
EndSplineSet
Fore
SplineSet
159 -83 m 1
 93 6 59 106 59 218 c 3
 59 261 64 306 74 353 c 0
 108 510 197 658 341 797 c 1
 453 797 l 1
 296 658 201 510 167 353 c 0
 159 316 155 280 155 244 c 3
 155 133 192 24 265 -83 c 1
 159 -83 l 1
EndSplineSet
Validated: 1
EndChar

StartChar: parenright
Encoding: 41 41 10
Width: 367
VWidth: 1504
Flags: W
VStem: 227 96<332.852 611.62>
LayerCount: 2
Back
SplineSet
308 358 m 0
 272.667 193.333 182.667 46.333 38 -83 c 1
 -65 -83 l 1
 90.3333 66.3333 183.667 213.333 215 358 c 0
 246.333 503.333 214.333 649.666 119 797 c 1
 223 797 l 1
 315 669.666 343.333 523.333 308 358 c 0
EndSplineSet
Fore
SplineSet
308 358 m 0
 273 193 183 46 38 -83 c 1
 -65 -83 l 1
 90 66 184 213 215 358 c 0
 223 394 227 430 227 466 c 3
 227 576 191 686 119 797 c 1
 223 797 l 1
 289 705 323 603 323 491 c 3
 323 448 318 404 308 358 c 0
EndSplineSet
Validated: 1
EndChar

StartChar: asterisk
Encoding: 42 42 11
Width: 515
VWidth: 1504
Flags: W
HStem: 519 78<117.474 183.846 427.333 500.526>
LayerCount: 2
Fore
SplineSet
421 417 m 1
 335 372 l 1
 296 501 l 1
 203 372 l 1
 135 417 l 1
 254 532 l 1
 102 519 l 1
 119 597 l 1
 265 585 l 1
 197 701 l 1
 283 746 l 1
 322 617 l 1
 415 746 l 1
 483 701 l 1
 364 585 l 1
 516 597 l 1
 499 520 l 1
 353 532 l 1
 421 417 l 1
EndSplineSet
Validated: 1
EndChar

StartChar: plus
Encoding: 43 43 12
Width: 627
VWidth: 1504
Flags: W
HStem: 0 21G<200 299.153> 236 83<45 250 363 567>
DStem2: 200 0 295 0 0.207912 0.978148<19.7516 241.238 345.919 558.186>
LayerCount: 2
Fore
SplineSet
295 0 m 1
 200 0 l 1
 250 236 l 1
 27 236 l 1
 45 319 l 1
 268 319 l 1
 316 546 l 1
 411 546 l 1
 363 319 l 1
 585 319 l 1
 567 236 l 1
 344 236 l 1
 295 0 l 1
EndSplineSet
Validated: 1
EndChar

StartChar: comma
Encoding: 44 44 13
Width: 258
VWidth: 1504
Flags: W
HStem: -161 299
VStem: 1 152<0.937038 102.562>
LayerCount: 2
Back
SplineSet
150 56 m 0
 128.667 -43.3333 68.667 -115.667 -30 -161 c 1
 -53 -117 l 1
 6.33333 -85 44 -50 60 -12 c 1
 12.6667 -8.66667 -6.3333 16.3333 3 63 c 1
 8.33333 84.3334 19.6667 102.167 37 116.5 c 128
 54.3333 130.833 73 138 93 138 c 0
 114.333 138 130.5 130.333 141.5 115 c 128
 152.5 99.6667 155.333 80 150 56 c 0
EndSplineSet
Fore
SplineSet
93 138 m 3
 128 138 153 114 153 78 c 3
 153 -20 64 -118 -30 -161 c 1
 -53 -117 l 1
 6 -85 44 -50 60 -12 c 1
 20 -9 1 9 1 42 c 3
 1 94 43 138 93 138 c 3
EndSplineSet
Validated: 1
EndChar

StartChar: hyphen
Encoding: 45 45 14
AltUni2: 0000ad.ffffffff.0
Width: 339
VWidth: 1504
Flags: W
HStem: 236 81<21 287>
VStem: -11 331
LayerCount: 2
Fore
SplineSet
287 236 m 1
 -11 236 l 1
 21 317 l 1
 320 317 l 1
 287 236 l 1
EndSplineSet
Validated: 1
EndChar

StartChar: period
Encoding: 46 46 15
Width: 258
VWidth: 1504
Flags: W
HStem: -14 145<33.997 115.76>
VStem: 2 147<18.6887 99.0825>
LayerCount: 2
Back
SplineSet
147 59 m 256
 143 39 132.5 21.8333 115.5 7.5 c 128
 98.5 -6.83333 80 -14 60 -14 c 256
 40 -14 24.6667 -6.83333 14 7.5 c 128
 3.33333 21.8333 -0.333336 39 3 59 c 0
 7 79 17.5 96 34.5 110 c 128
 51.5 124 70 131 90 131 c 256
 110 131 125.5 124 136.5 110 c 128
 147.5 96 151 79 147 59 c 256
EndSplineSet
Fore
SplineSet
149 74 m 3
 149 27 106 -14 60 -14 c 259
 26 -14 2 10 2 45 c 3
 2 91 44 131 90 131 c 259
 123 131 149 108 149 74 c 3
EndSplineSet
Validated: 1
EndChar

StartChar: slash
Encoding: 47 47 16
Width: 415
VWidth: 1504
Flags: W
DStem2: -119 -42 -23 -42 0.586322 0.810078<56.2869 965.339>
LayerCount: 2
Fore
SplineSet
-23 -42 m 1
 -119 -42 l 1
 447 740 l 1
 543 740 l 1
 -23 -42 l 1
EndSplineSet
Validated: 1
EndChar

StartChar: zero
Encoding: 48 48 17
Width: 568
VWidth: 1504
Flags: W
HStem: -14 83<173.263 298.568> 638 83<286.684 411.77>
VStem: 36 95<115.901 379.019> 452 95<329.852 592.828>
LayerCount: 2
Back
SplineSet
532 353 m 0
 510.667 251.667 471.5 165.167 414.5 93.5 c 128
 357.5 21.8333 290 -14 212 -14 c 0
 136.667 -14 85.5003 22 58.5 94 c 128
 31.5 166 28.6667 252.333 50 353 c 0
 72 454.333 111.5 541 168.5 613 c 128
 225.5 685 291.667 721 367 721 c 0
 445 721 497.5 685 524.5 613 c 128
 551.5 541 554 454.333 532 353 c 0
436 353 m 0
 454 437 456.833 505.5 444.5 558.5 c 128
 432.167 611.5 401.667 638 353 638 c 0
 303.667 638 261.334 611.667 226 559 c 128
 190.667 506.333 164 437.666 146 353 c 0
 128.667 269 126.334 200.667 139 148 c 128
 151.667 95.3333 182 69 230 69 c 0
 279.334 69 321.667 95.3334 357 148 c 128
 392.334 200.667 418.667 269 436 353 c 0
EndSplineSet
Fore
SplineSet
532 353 m 0
 498 190 393 -14 212 -14 c 3
 90 -14 36 94 36 228 c 3
 36 267 41 309 50 353 c 0
 85 513 190 721 367 721 c 3
 492 721 547 617 547 481 c 3
 547 441 542 398 532 353 c 0
436 353 m 0
 447 403 452 447 452 486 c 3
 452 571 427 638 353 638 c 3
 237 638 172 475 146 353 c 0
 136 304 131 261 131 223 c 3
 131 138 156 69 230 69 c 3
 345 69 411 232 436 353 c 0
EndSplineSet
Validated: 1
EndChar

StartChar: one
Encoding: 49 49 18
Width: 568
VWidth: 1504
Flags: W
HStem: 0 77<93 205 301 396> 699 20G<353.925 396.5>
DStem2: 156 558 200 496 0.814463 0.580215<0 136.686> 188.633 0 284.633 0 0.207912 0.978148<98.6797 588.855>
LayerCount: 2
Back
SplineSet
396 0 m 1
 78 0 l 1
 93 77 l 1
 205 77 l 1
 311 576 l 1
 200 496 l 1
 156 558 l 1
 382 719 l 1
 419.333 719 433 695 423 647 c 2
 301 77 l 1
 411 77 l 1
 396 0 l 1
EndSplineSet
Fore
SplineSet
396 0 m 1
 78 0 l 1
 93 77 l 1
 205 77 l 1
 311 576 l 1
 200 496 l 1
 156 558 l 1
 382 719 l 1
 411 719 426 704 426 674 c 3
 426 666 425 657 423 647 c 2
 301 77 l 1
 411 77 l 1
 396 0 l 1
EndSplineSet
Validated: 1
EndChar

StartChar: two
Encoding: 50 50 19
Width: 568
VWidth: 1504
Flags: W
HStem: 0 84<108 457> 632 87<295.907 452.462>
VStem: 474 97<489.99 610.211>
LayerCount: 2
Back
SplineSet
457 0 m 1
 -30 0 l 1
 -12 44 4 80 18 108 c 1
 51.3333 140 147.667 218.333 307 343 c 0
 405 420.333 459.667 483.333 471 532 c 1
 485 598 453 631.333 375 632 c 0
 297.667 632 242 587.333 208 498 c 1
 123 520 l 1
 144.333 584 180 633.667 230 669 c 0
 277.333 702.333 332 719 394 719 c 0
 455.333 719 502.333 701 535 665 c 128
 567.667 629 578 583.333 566 528 c 1
 556 478.667 518.333 423 453 361 c 0
 413 323.667 348.333 272 259 206 c 0
 179 146.667 128.667 106 108 84 c 1
 492 84 l 1
 457 0 l 1
EndSplineSet
Fore
SplineSet
123 520 m 1
 160 631 253 719 394 719 c 3
 493 719 571 663 571 569 c 3
 571 556 569 542 566 528 c 0
 556 479 518 423 453 361 c 0
 413 324 348 272 259 206 c 0
 179 147 129 106 108 84 c 1
 492 84 l 1
 457 0 l 1
 -30 0 l 1
 -12 44 4 80 18 108 c 1
 51 140 148 218 307 343 c 0
 405 420 460 483 471 532 c 0
 473 542 474 551 474 560 c 3
 474 608 441 632 375 632 c 3
 298 632 242 587 208 498 c 1
 123 520 l 1
EndSplineSet
Validated: 1
EndChar

StartChar: three
Encoding: 51 51 20
Width: 568
VWidth: 1504
Flags: W
HStem: -12 92<82.0579 278.823> 522 21G<127.714 179> 638 81<270.216 417.49>
VStem: 412 98<199.087 332.28> 425 92<543.519 629.048>
LayerCount: 2
Back
SplineSet
505 248 m 1
 487.667 170 446.334 107.167 381 59.5 c 128
 315.667 11.8333 237.667 -12 147 -12 c 0
 79 -12 25 9 -15 51 c 1
 42 128 l 1
 80 96 126.667 80 182 80 c 0
 234 80 282.667 96.5 328 129.5 c 128
 373.333 162.5 400.333 201 409 245 c 1
 416.333 277 412 304.167 396 326.5 c 128
 380 348.833 356.333 360 325 360 c 0
 287.667 360 249 345.333 209 316 c 1
 182 382 l 1
 237.333 410 288 441.667 334 477 c 0
 388 519 417.667 553 423 579 c 1
 432.333 618.333 409 638 353 638 c 0
 317 638 281.333 626.5 246 603.5 c 128
 210.667 580.5 182.667 553.333 162 522 c 1
 102 557 l 1
 132 607 171.333 646.5 220 675.5 c 128
 268.667 704.5 320.334 719 375 719 c 0
 423 719 460.167 706.5 486.5 681.5 c 128
 512.833 656.5 522 623 514 581 c 1
 504.667 539.667 463.667 492.334 391 439 c 1
 436.334 429.667 469.167 408 489.5 374 c 128
 509.833 340 515 298 505 248 c 1
EndSplineSet
Fore
SplineSet
391 439 m 1xe8
 461 425 510 377 510 295 c 3
 510 280 508 264 505 248 c 0
 472 97 338 -12 147 -12 c 3
 79 -12 25 9 -15 51 c 1
 42 128 l 1
 80 96 127 80 182 80 c 3
 291 80 412 166 412 274 c 3xf0
 412 326 375 360 325 360 c 3
 288 360 249 345 209 316 c 1
 182 382 l 1
 256 420 425 521 425 595 c 3
 425 624 401 638 353 638 c 3
 272 638 196 574 162 522 c 1
 102 557 l 1
 153 642 249 719 375 719 c 3
 451 719 517 683 517 609 c 3
 517 553 473 498 391 439 c 1xe8
EndSplineSet
Validated: 1
EndChar

StartChar: four
Encoding: 52 52 21
Width: 568
VWidth: 1504
Flags: W
HStem: 0 21G<278 379.151> 159 82<122 311 426 493>
DStem2: 278 0 375 0 0.207912 0.978148<20.1674 162.387 266.505 621.326>
LayerCount: 2
Fore
SplineSet
329 241 m 1
 406 608 l 1
 352 577 298 526 244 456 c 0
 190 386 150 314 122 241 c 1
 329 241 l 1
375 0 m 1
 278 0 l 1
 311 159 l 1
 9 159 l 1
 36 284 102 409 208 534 c 0
 314 659 421 727 529 736 c 1
 426 241 l 1
 522 241 l 1
 493 159 l 1
 408 159 l 1
 375 0 l 1
EndSplineSet
Validated: 1
EndChar

StartChar: five
Encoding: 53 53 22
Width: 568
VWidth: 1504
Flags: W
HStem: -12 81<90.6698 275.861> 387 85<256.931 370.956> 635 81<302 552>
VStem: 122 60<337 358.991> 415 98<200.049 346.615>
LayerCount: 2
Back
SplineSet
507 253 m 1
 491 175 450.167 111.333 384.5 62 c 128
 318.833 12.6667 242.333 -12 155 -12 c 0
 81 -12 24.3333 9.66667 -15 53 c 1
 39 122 l 1
 87 86.6666 134.667 69 182 69.0002 c 0
 234 69.0001 282.333 86.3333 327 121 c 128
 371.667 155.667 399.667 199 411 251 c 0
 420.333 294.333 413.333 327.833 390 351.5 c 128
 366.667 375.167 331.334 387 284 387 c 256
 236.667 387 202.667 370.333 182 337 c 1
 122 334 l 1
 229 716 l 1
 587 716 l 1
 552 635 l 1
 302 635 l 1
 256 460 l 1
 275.333 468 297.333 472 322 472 c 0
 388 472 438.833 451.5 474.5 410.5 c 128
 510.167 369.5 521 317 507 253 c 1
EndSplineSet
Fore
SplineSet
322 472 m 3
 427 472 513 410 513 304 c 3
 513 118 342 -12 155 -12 c 3
 81 -12 24 10 -15 53 c 1
 39 122 l 1
 87 87 135 69 182 69 c 3
 299 69 415 167 415 286 c 3
 415 357 357 387 284 387 c 259
 237 387 203 370 182 337 c 1
 122 334 l 1
 229 716 l 1
 587 716 l 1
 552 635 l 1
 302 635 l 1
 256 460 l 1
 275 468 297 472 322 472 c 3
EndSplineSet
Validated: 1
EndChar

StartChar: six
Encoding: 54 54 23
Width: 568
VWidth: 1504
Flags: W
HStem: -12 84<179.238 312.156> 379 81<233.16 366.924> 656 75<485.158 548>
VStem: 34 99<119.104 271.854> 411 89<180.4 331.401>
LayerCount: 2
Back
SplineSet
493 226 m 0
 479 158.667 447 102.167 397 56.5 c 128
 347 10.8333 290.333 -12 227 -12 c 0
 157 -12 104.5 12.5 69.5 61.5 c 128
 34.5 110.5 25.3333 175.667 42 257 c 0
 66 372.334 125.667 474.167 221 562.5 c 128
 316.333 650.833 427.666 707 555 731 c 1
 548 656 l 1
 482 638.667 415.5 607.667 348.5 563 c 128
 281.5 518.333 229.667 468.666 193 414 c 1
 231 445.334 277 460.667 331 460 c 1
 391 460 436.5 437.5 467.5 392.5 c 128
 498.5 347.5 507 292 493 226 c 0
406 226 m 1
 415.33 266 410.163 301.5 390.5 332.5 c 128
 370.833 363.5 343 379 307 379 c 0
 269 379 233.667 364.167 201 334.5 c 128
 168.333 304.833 147 268.666 137 226 c 0
 127.667 184 133.334 147.833 154 117.5 c 128
 174.667 87.1667 204 72 242 72 c 0
 278 72 312.333 87.6667 345 119 c 128
 377.667 150.333 398 186 406 226 c 1
EndSplineSet
Fore
SplineSet
227 -12 m 3
 112 -12 34 63 34 183 c 3
 34 206 37 231 42 257 c 0
 66 372 126 474 221 562 c 0
 316 650 428 707 555 731 c 1
 548 656 l 1
 482 639 415 608 348 563 c 0
 281 518 230 469 193 414 c 1
 231 445 277 460 331 460 c 3
 429 460 500 388 500 285 c 3
 500 266 497 247 493 226 c 0
 468 106 365 -12 227 -12 c 3
133 188 m 3
 133 122 179 72 242 72 c 3
 321 72 392 157 406 226 c 0
 409 239 411 251 411 263 c 3
 411 326 365 379 307 379 c 3
 222 379 154 299 137 226 c 0
 134 213 133 200 133 188 c 3
EndSplineSet
Validated: 1
EndChar

StartChar: seven
Encoding: 55 55 24
Width: 568
VWidth: 1504
Flags: W
HStem: 0 21G<132 261> 635 81<150 478>
VStem: 132 98<0 76.9562>
LayerCount: 2
Back
SplineSet
230 0 m 1
 132 0 l 1
 199.333 280 314.666 491.667 478 635 c 1
 110 635 l 1
 150 716 l 1
 618 716 l 1
 587 635 l 1
 489.667 539 415 446.667 363 358 c 0
 303.667 256.667 259.334 137.334 230 0 c 1
EndSplineSet
Fore
SplineSet
230 0 m 1
 132 0 l 1
 199 280 315 492 478 635 c 1
 110 635 l 1
 150 716 l 1
 618 716 l 1
 587 635 l 1
 399 449 292 291 230 0 c 1
EndSplineSet
Validated: 1
EndChar

StartChar: eight
Encoding: 56 56 25
Width: 568
VWidth: 1504
Flags: W
HStem: -12 81<149.457 324.14> 639 82<270.115 427.218>
VStem: 17 93<105.837 248.175> 111 93<469.029 579.248> 409 93<149.441 300.84> 458 92<492.867 609.337>
LayerCount: 2
Back
SplineSet
405 197 m 0
 413 234.333 407.667 268 389 298 c 128
 370.333 328 338 344.333 292 347 c 1
 244 343.667 204.167 327.167 172.5 297.5 c 128
 140.833 267.833 121 234.333 113 197 c 0
 105 157.667 112 126.5 134 103.5 c 128
 156 80.5 188.667 69 232 69 c 256
 275.333 69 313 80.5 345 103.5 c 128
 377 126.5 397 157.667 405 197 c 0
456 534 m 0
 462 564 455.667 589 437 609 c 128
 418.333 629 390.333 639 353 639 c 256
 315.667 639 283.334 629 256 609 c 128
 228.667 589 212 564 206 534 c 0
 196 484.667 229.667 448.667 307 426 c 1
 396.333 448.667 446 484.667 456 534 c 0
498 202 m 0
 484 136 451.333 83.8333 400 45.5 c 128
 348.667 7.16667 286.667 -12 214 -12 c 0
 142 -12 88.6667 7 54 45 c 128
 19.3333 83 8.99996 135.333 23 202 c 0
 31 242 50 279 80 313 c 128
 110 347 144 372 182 388 c 1
 124.667 423.333 102 470.333 114 529 c 1
 126 584.333 156.167 630.166 204.5 666.5 c 128
 252.833 702.833 308 721 370 721 c 256
 432 721 479.667 702.833 513 666.5 c 128
 546.333 630.166 557 584.333 545 529 c 1
 533 469.667 490.333 422.667 417 388 c 1
 449 372 472.5 347 487.5 313 c 128
 502.5 279 506 242 498 202 c 0
EndSplineSet
Fore
SplineSet
232 69 m 259xf8
 330 69 409 132 409 230 c 3
 409 301 363 343 292 347 c 1
 195 341 110 266 110 167 c 3
 110 100 164 69 232 69 c 259xf8
458 555 m 3xf4
 458 611 411 639 353 639 c 259
 279 639 204 590 204 518 c 3
 204 477 239 446 307 426 c 1
 402 451 458 486 458 555 c 3xf4
417 388 m 1
 465 364 502 313 502 243 c 3xf8
 502 88 369 -12 214 -12 c 3
 101 -12 17 38 17 148 c 3
 17 266 96 352 182 388 c 1
 135 417 111 455 111 500 c 3
 111 627 242 721 370 721 c 259
 468 721 550 668 550 571 c 3
 550 480 501 428 417 388 c 1
EndSplineSet
Validated: 1
EndChar

StartChar: nine
Encoding: 57 57 26
Width: 568
VWidth: 1504
Flags: W
HStem: -24 75<36 98.8423> 247 81<216.62 352.216> 635 84<272.089 404.251>
VStem: 83 90<373.599 527.693> 450 101<429.714 588.948>
LayerCount: 2
Back
SplineSet
542 450 m 0
 518 334.667 458.333 232.834 363 144.5 c 128
 267.667 56.1667 156.334 4.76837e-05 29 -24 c 1
 36 51 l 1
 100 67 167.667 99.1667 239 147.5 c 128
 310.333 195.833 363 245 397 295 c 1
 361 263 313 247 253 247 c 256
 193 247 147.167 269.5 115.5 314.5 c 128
 83.8333 359.5 75.3333 415 90 481 c 1
 104 548.333 136.167 604.833 186.5 650.5 c 128
 236.833 696.167 293.333 719 356 719 c 0
 426 719 478.833 694.5 514.5 645.5 c 128
 550.171 596.5 559.338 531.333 542 450 c 0
447 481 m 1
 455 523 449 559.167 429 589.5 c 128
 409 619.833 379.667 635 341 635 c 0
 305 635 270.833 619.5 238.5 588.5 c 128
 206.167 557.5 185.667 521.667 177 481 c 1
 167.667 441 173 405.5 193 374.5 c 128
 213 343.5 241 328 277 328 c 0
 315 328 350.333 342.667 383 372 c 128
 415.667 401.334 437 437.667 447 481 c 1
EndSplineSet
Fore
SplineSet
356 719 m 3
 471 719 551 645 551 525 c 3
 551 392 469 242 363 144 c 0
 268 56 156 0 29 -24 c 1
 36 51 l 1
 100 67 168 100 239 148 c 0
 310 196 363 245 397 295 c 1
 361 263 313 247 253 247 c 259
 155 247 83 318 83 421 c 3
 83 576 204 719 356 719 c 3
450 516 m 3
 450 584 406 635 341 635 c 3
 252 635 173 536 173 444 c 3
 173 379 217 328 277 328 c 3
 370 328 450 420 450 516 c 3
EndSplineSet
Validated: 1
EndChar

StartChar: colon
Encoding: 58 58 27
Width: 258
VWidth: 1504
Flags: W
HStem: -14 145<33.997 115.76> 356 145<111.038 195.255>
VStem: 2 147<18.6887 99.0825> 79 149<389.285 468.54>
LayerCount: 2
Back
SplineSet
147 59 m 256
 143 39 132.5 21.8333 115.5 7.5 c 128
 98.5 -6.83333 80 -14 60 -14 c 256
 40 -14 24.6667 -6.83333 14 7.5 c 128
 3.33333 21.8333 -0.333336 39 3 59 c 0
 7 79 17.5 96 34.5 110 c 128
 51.5 124 70 131 90 131 c 256
 110 131 125.5 124 136.5 110 c 128
 147.5 96 151 79 147 59 c 256
226 429 m 256
 222 409 211.333 391.833 194 377.5 c 128
 176.667 363.167 158 356 138 356 c 256
 118 356 102.5 363.167 91.5 377.5 c 128
 80.5 391.833 77 409 81 429 c 256
 85 449 95.5 466 112.5 480 c 128
 129.5 494 148 501 168 501 c 256
 188 501 203.667 494 215 480 c 128
 226.333 466 230 449 226 429 c 256
EndSplineSet
Fore
SplineSet
149 74 m 3xe0
 149 27 106 -14 60 -14 c 259
 26 -14 2 10 2 45 c 3
 2 91 44 131 90 131 c 259
 123 131 149 108 149 74 c 3xe0
228 444 m 3xd0
 228 397 184 356 138 356 c 259
 105 356 79 380 79 414 c 3
 79 461 122 501 168 501 c 259
 201 501 228 478 228 444 c 3xd0
EndSplineSet
Validated: 1
EndChar

StartChar: semicolon
Encoding: 59 59 28
Width: 258
VWidth: 1504
Flags: W
HStem: 356 145<111.038 195.255>
VStem: 1 152<-0.352242 102.562> 79 149<389.285 468.54>
LayerCount: 2
Back
SplineSet
226 429 m 256
 222 409 211.333 391.833 194 377.5 c 128
 176.667 363.167 158 356 138 356 c 256
 118 356 102.5 363.167 91.5 377.5 c 128
 80.5 391.833 77 409 81 429 c 256
 85 449 95.5 466 112.5 480 c 128
 129.5 494 148 501 168 501 c 256
 188 501 203.667 494 215 480 c 128
 226.333 466 230 449 226 429 c 256
150 56 m 0
 128.667 -43.3333 68.667 -115.667 -30 -161 c 1
 -53 -117 l 1
 6.33333 -85 44 -50 60 -12 c 1
 12.6667 -8.66667 -6.3333 16.3333 3 63 c 1
 8.33333 84.3334 19.6667 102.167 37 116.5 c 128
 54.3333 130.833 73 138 93 138 c 0
 114.333 138 130.5 130.333 141.5 115 c 128
 152.5 99.6667 155.333 80 150 56 c 0
EndSplineSet
Fore
SplineSet
228 444 m 3xa0
 228 397 184 356 138 356 c 259
 105 356 79 380 79 414 c 3
 79 461 122 501 168 501 c 259
 201 501 228 478 228 444 c 3xa0
93 138 m 3
 128 138 153 114 153 78 c 3
 153 -23 64 -118 -30 -161 c 1
 -53 -117 l 1
 6 -85 44 -50 60 -12 c 1
 20 -9 1 9 1 42 c 3xc0
 1 94 43 138 93 138 c 3
EndSplineSet
Validated: 1
EndChar

StartChar: less
Encoding: 60 60 29
Width: 627
VWidth: 1504
Flags: W
HStem: -15 21G<468.052 506.421>
DStem2: 168 286 42 256 0.861597 -0.507593<0 410.431> 54 317 168 286 0.905459 0.424434<90.0649 578.617>
LayerCount: 2
Fore
SplineSet
502 -15 m 1
 42 256 l 1
 54 317 l 1
 630 587 l 1
 611 492 l 1
 168 286 l 1
 523 80 l 1
 502 -15 l 1
EndSplineSet
Validated: 1
EndChar

StartChar: equal
Encoding: 61 61 30
Width: 627
VWidth: 1504
Flags: W
HStem: 146 80<50 522> 335 79<90 563>
LayerCount: 2
Fore
SplineSet
563 335 m 1
 74 335 l 1
 90 414 l 1
 579 414 l 1
 563 335 l 1
522 146 m 1
 33 146 l 1
 50 226 l 1
 539 226 l 1
 522 146 l 1
EndSplineSet
Validated: 1
EndChar

StartChar: greater
Encoding: 62 62 31
Width: 627
VWidth: 1504
Flags: W
HStem: -15 21G<-10.7895 27.5092>
DStem2: 5 80 -15 -15 0.904854 0.425721<0 488.975> 111 587 92 492 0.863372 -0.504568<31.5299 442.327>
LayerCount: 2
Fore
SplineSet
561 256 m 1
 -15 -15 l 1
 5 80 l 1
 448 287 l 1
 92 492 l 1
 111 587 l 1
 573 317 l 1
 561 256 l 1
EndSplineSet
Validated: 1
EndChar

StartChar: question
Encoding: 63 63 32
Width: 434
VWidth: 1504
Flags: W
HStem: -14 145<107.038 189.76> 641 86<186.221 340.965>
VStem: 75 148<18.6887 98.5405> 123 87<176 282.062> 358 97<516.369 622.029>
LayerCount: 2
Back
SplineSet
450 558 m 0
 438.667 504 393 443.333 313 376 c 1
 257.667 330.667 224.667 285 214 239 c 0
 210.667 223.667 209.667 202.667 211 176 c 1
 125 176 l 1
 121.667 206 121.667 228.667 125 244 c 0
 135 293.333 174 349.5 242 412.5 c 128
 310 475.5 347.667 523 355 555 c 0
 367 612.333 338 641 268 641 c 0
 224.667 641 180 626.333 134 597 c 1
 111 671 l 1
 178.333 708.333 240 727 296 727 c 0
 353.334 727 396.167 711.667 424.5 681 c 128
 452.833 650.333 461.333 609.333 450 558 c 0
221 59 m 256
 217 39 206.5 21.8333 189.5 7.5 c 128
 172.5 -6.83333 154 -14 134 -14 c 256
 114 -14 98.5 -6.83333 87.5 7.5 c 128
 76.5 21.8333 73 39 77 59 c 256
 81 79 91.5 96 108.5 110 c 128
 125.5 124 144 131 164 131 c 256
 184 131 199.5 124 210.5 110 c 128
 221.5 96 225 79 221 59 c 256
EndSplineSet
Fore
SplineSet
296 727 m 3xd8
 385 727 455 685 455 599 c 3
 455 586 453 573 450 558 c 0
 439 504 393 443 313 376 c 0
 258 331 225 285 214 239 c 0
 212 228 210 214 210 197 c 3
 210 190 211 184 211 176 c 1
 125 176 l 1
 123 191 123 205 123 216 c 3
 123 227 123 236 125 244 c 0
 135 293 174 349 242 412 c 0
 310 475 348 523 355 555 c 0
 357 563 358 571 358 578 c 3
 358 620 328 641 268 641 c 3
 225 641 180 626 134 597 c 1
 111 671 l 1
 178 708 240 727 296 727 c 3xd8
223 74 m 3xe8
 223 27 180 -14 134 -14 c 259
 101 -14 75 10 75 44 c 3
 75 91 118 131 164 131 c 259
 197 131 223 108 223 74 c 3xe8
EndSplineSet
Validated: 1
EndChar

StartChar: at
Encoding: 64 64 33
Width: 860
VWidth: 1504
Flags: W
HStem: -143 62<216.345 449.243> 2 66<260.337 409.017> 11 69<549 593.734> 245 57<357.516 505> 417 63<345.332 497.072> 534 62<378.945 615.952>
VStem: 13 78<40.8167 247.334> 174 78<78.5874 173.899> 517 81<302.383 396.813> 738 73<225.112 420.064>
DStem2: 422.383 -143 500.397 -143 0.207912 0.978148<257.414 396.698 449.645 491.611>
LayerCount: 2
Back
SplineSet
802 266 m 0
 784.667 186 742 122 674 74 c 0
 614 32 548.667 11 478 11 c 1
 481 65 l 1
 425 23 367 2 307 2 c 0
 263.667 2 229.167 14.1667 203.5 38.5 c 128
 177.833 62.8333 168.999 93.6666 177 131 c 0
 200.333 240.333 312.333 297.333 513 302 c 1
 529 378 501 416.333 429 417 c 0
 389.667 417 351.334 406.333 314 385 c 1
 299 438 l 1
 353 466 408.667 480 466 480 c 0
 519.333 480 556.5 462.5 577.5 427.5 c 128
 598.5 392.5 603 344.667 591 284 c 1
 558 128 l 2
 552.667 104.667 549.667 88.667 549 80 c 1
 567 80 l 1
 604.333 90 638.833 112.833 670.5 148.5 c 128
 702.169 184.167 722.336 222.334 731 263 c 0
 747 340.333 734.5 404.833 693.5 456.5 c 128
 652.5 508.167 588.333 534 501 534 c 0
 403 534 316.333 502.667 241 440 c 128
 165.667 377.333 118 299 98 205 c 0
 80.6667 123 93.6667 54.8333 137 0.5 c 128
 180.333 -53.8333 242 -81 322 -81 c 0
 383.333 -81 448 -65 516 -33 c 1
 531 -93 l 1
 453.667 -126.333 378 -143 304 -143 c 0
 206 -143 129.667 -111 75 -47 c 0
 19 18.3333 1 100.667 21 200 c 1
 45 313.333 104.667 407.666 200 483 c 128
 295.333 558.333 402.666 596 522 596 c 0
 624 596 701.5 565 754.5 503 c 128
 807.5 441 823.333 362 802 266 c 0
487 161 m 2
 505 245 l 1
 351.667 239 268 203.333 254 138 c 0
 244 90.6667 266.667 67.3334 322 68 c 0
 359.333 68 393.333 76 424 92 c 0
 460 110 481 133 487 161 c 2
EndSplineSet
Fore
SplineSet
466 480 m 3xdfc0
 552 480 598 431 598 345 c 3
 598 326 595 306 591 284 c 2
 558 128 l 2
 553 105 550 89 549 80 c 1
 567 80 l 1
 642 100 714 184 731 263 c 0
 735 285 738 305 738 325 c 3
 738 460 638 534 501 534 c 3
 295 534 135 380 98 205 c 0
 93 182 91 159 91 138 c 3
 91 4 191 -81 322 -81 c 3
 383 -81 448 -65 516 -33 c 1
 531 -93 l 1
 454 -126 378 -143 304 -143 c 3
 143 -143 13 -39 13 125 c 3
 13 149 16 174 21 200 c 0
 66 412 272 596 522 596 c 3
 683 596 811 505 811 344 c 3
 811 319 808 294 802 266 c 0
 773 129 642 11 478 11 c 1xbfc0
 481 65 l 1
 425 23 367 2 307 2 c 3
 239 2 174 38 174 105 c 3
 174 113 175 122 177 131 c 0
 200 240 312 297 513 302 c 1
 516 316 517 329 517 340 c 3
 517 391 488 417 429 417 c 3
 390 417 351 406 314 385 c 1
 299 438 l 1
 353 466 409 480 466 480 c 3xdfc0
322 68 m 3xdfc0
 394 68 475 106 487 161 c 2
 505 245 l 1
 352 239 268 203 254 138 c 0
 252 131 252 124 252 118 c 3
 252 84 275 68 322 68 c 3xdfc0
EndSplineSet
Validated: 1
EndChar

StartChar: A
Encoding: 65 65 34
Width: 678
VWidth: 1504
Flags: W
HStem: 0 21G<-68 46.8828 506.234 614> 239 81<230 447> 707 20G<374.483 472.017>
DStem2: 387 727 230 320 0.530523 0.847671<-803.001 -525.073 -428.294 -428.294> 614 0 465 239 0.196894 -0.980425<-593.853 -346.617 -263.659 -20.477>
LayerCount: 2
Fore
SplineSet
614 0 m 1
 510 0 l 1
 465 239 l 1
 177 239 l 1
 35 0 l 1
 -68 0 l 1
 387 727 l 1
 468 727 l 1
 614 0 l 1
447 320 m 1
 405 618 l 1
 230 320 l 1
 447 320 l 1
EndSplineSet
Validated: 1
EndChar

StartChar: B
Encoding: 66 66 35
Width: 595
VWidth: 1504
Flags: W
HStem: -9 81<120.095 326.87> 338 80<193 380.261> 642 83<238.695 434.971>
VStem: 438 95<163.04 290.474> 477 97<490.937 605.99>
DStem2: 6.74887 -9 100.72 -9 0.207912 0.978148<107.459 374.191 456.393 687.517>
LayerCount: 2
Back
SplineSet
528 208 m 0
 496.667 63.3333 374.667 -9.00004 162 -9 c 0
 116.667 -9 66.3336 -2.33333 11 11 c 1
 158 702 l 1
 223.333 717.333 282 725 334 725 c 0
 517.333 725 595.666 661.667 569 535 c 0
 555.667 471 515 420.667 447 384 c 1
 518.333 346.667 545.333 288 528 208 c 0
474 534 m 0
 489.333 606 436.666 642 316 642 c 0
 294.667 642 269 640.667 239 638 c 1
 193 418 l 1
 299 418 l 2
 343 418 381.167 428.333 413.5 449 c 128
 445.833 469.667 466 498 474 534 c 0
435 206 m 1
 445 254 429.333 289.667 388 313 c 0
 356 330.335 314 338.668 262 338 c 1
 174 338 l 1
 119 77 l 1
 136.333 73.6667 161.333 72 194 72 c 0
 259.333 72 313.333 83.5 356 106.5 c 128
 398.667 129.5 425 162.667 435 206 c 1
EndSplineSet
Fore
SplineSet
528 208 m 0xf0
 497 63 375 -9 162 -9 c 3
 117 -9 66 -2 11 11 c 1
 158 702 l 1
 223 717 282 725 334 725 c 3
 494 725 574 677 574 580 c 3xe8
 574 566 572 551 569 535 c 0
 556 471 515 421 447 384 c 1
 504 354 533 310 533 252 c 3
 533 238 531 224 528 208 c 0xf0
299 418 m 2
 386 418 458 462 474 534 c 0
 476 542 477 550 477 557 c 3
 477 614 423 642 316 642 c 3
 295 642 269 641 239 638 c 1
 193 418 l 1
 299 418 l 2
438 233 m 3xf0
 438 313 351 338 262 338 c 2
 174 338 l 1
 119 77 l 1
 136 74 161 72 194 72 c 3
 314 72 413 113 435 206 c 0
 437 215 438 225 438 233 c 3xf0
EndSplineSet
Validated: 1
EndChar

StartChar: C
Encoding: 67 67 36
Width: 649
VWidth: 1504
Flags: W
HStem: -11 82<230.427 472.138> 608 21G<621 660.533> 645 82<345.46 608.299>
VStem: 36 99<172.239 394.591>
LayerCount: 2
Fore
SplineSet
558 38 m 1
 478 6 387 -11 286 -11 c 3
 130 -11 36 90 36 251 c 3
 36 458 174 727 471 727 c 3
 556 727 631 712 695 683 c 1
 648 608 l 1
 594 633 530 645 457 645 c 3
 219 645 135 405 135 279 c 3
 135 154 204 71 322 71 c 3
 405 71 481 86 549 116 c 1
 558 38 l 1
EndSplineSet
Validated: 1
EndChar

StartChar: D
Encoding: 68 68 37
Width: 690
VWidth: 1504
Flags: W
HStem: -6 81<121.998 361.337> 642 82<239.729 487.072>
VStem: 578 98<342.341 557.439>
DStem2: 7.81165 -6 101.72 -6 0.207912 0.978148<107.446 679.558>
LayerCount: 2
Back
SplineSet
663 373 m 0
 639.667 265 595 178.333 529 113 c 0
 449 33.6667 342.333 -5.99996 209 -6 c 0
 167.667 -6 101.667 -1 11 9 c 1
 158 704 l 1
 275.333 717.333 354 724 394 724 c 0
 516.667 724 599.334 687.333 642 614 c 1
 678 554.667 685 474.334 663 373 c 0
567 373 m 0
 605 552.333 540 642 372 642 c 0
 344 642 299.333 639 238 633 c 1
 120 80 l 1
 152 76.6667 193.333 75 244 75 c 0
 341.333 75 419.333 109.667 478 179 c 0
 521.333 230.333 551 295 567 373 c 0
EndSplineSet
Fore
SplineSet
663 373 m 0
 615 151 467 -6 209 -6 c 3
 168 -6 102 -1 11 9 c 1
 158 704 l 1
 275 717 354 724 394 724 c 3
 569 724 676 647 676 479 c 3
 676 447 671 411 663 373 c 0
567 373 m 0
 574 406 578 436 578 463 c 3
 578 582 509 642 372 642 c 3
 344 642 299 639 238 633 c 1
 120 80 l 1
 152 77 193 75 244 75 c 3
 427 75 533 208 567 373 c 0
EndSplineSet
Validated: 1
EndChar

StartChar: E
Encoding: 69 69 38
Width: 538
VWidth: 1504
Flags: W
HStem: 0 81<120 435> 337 81<193 469> 635 81<238 569>
DStem2: 9 0 102.783 0 0.207912 0.978148<102.308 363.941 447.121 668.735>
LayerCount: 2
Fore
SplineSet
435 0 m 1
 9 0 l 1
 161 716 l 1
 587 716 l 1
 569 635 l 1
 238 635 l 1
 193 418 l 1
 487 418 l 1
 469 337 l 1
 174 337 l 1
 120 81 l 1
 451 81 l 1
 435 0 l 1
EndSplineSet
Validated: 1
EndChar

StartChar: F
Encoding: 70 70 39
Width: 538
VWidth: 1504
Flags: W
HStem: 0 21G<9 108.195> 329 80<190 498> 635 81<238 584>
DStem2: 9 0 104 0 0.207912 0.978148<19.7516 355.908 437.694 668.735>
LayerCount: 2
Fore
SplineSet
104 0 m 1
 9 0 l 1
 161 716 l 1
 602 716 l 1
 584 635 l 1
 238 635 l 1
 190 409 l 1
 514 409 l 1
 498 329 l 1
 173 329 l 1
 104 0 l 1
EndSplineSet
Validated: 1
EndChar

StartChar: G
Encoding: 71 71 40
Width: 682
VWidth: 1504
Flags: W
HStem: -11 82<230.427 460.638> 298 80<361 525> 608 21G<621 660.533> 645 82<347.214 608.299>
VStem: 36 99<172.239 391.679>
DStem2: 458.469 -11 554.048 -11 0.207912 0.978148<96.9332 316.08>
LayerCount: 2
Back
SplineSet
560 17 m 1
 514 29 l 1
 450 3 374 -10.3333 286 -11 c 1
 190.667 -11 121.5 23 78.5 91 c 128
 35.5 159 25.3333 247.333 48 356 c 1
 71.3333 464 118 551.334 188 618 c 1
 265.333 690 359.666 726.333 471 727 c 0
 556.333 727 631 712.333 695 683 c 1
 648 608 l 1
 594 633.333 530.333 645.666 457 645 c 0
 365 645 290 611 232 543 c 0
 190 493 160.333 429.667 143 353 c 1
 129 283 134 222 158 170 c 1
 187.333 104 242 71 322 71 c 0
 381.333 71 434.333 79 481 95 c 1
 525 298 l 1
 344 298 l 1
 361 378 l 1
 636 378 l 1
 560 17 l 1
EndSplineSet
Fore
SplineSet
560 17 m 1
 514 29 l 1
 450 3 374 -11 286 -11 c 3
 130 -11 36 90 36 251 c 3
 36 284 40 318 48 356 c 0
 92 559 238 727 471 727 c 3
 556 727 631 712 695 683 c 1
 648 608 l 1
 594 633 530 645 457 645 c 3
 281 645 178 512 143 353 c 0
 138 327 135 302 135 279 c 3
 135 154 204 71 322 71 c 3
 381 71 434 79 481 95 c 1
 525 298 l 1
 344 298 l 1
 361 378 l 1
 636 378 l 1
 560 17 l 1
EndSplineSet
Validated: 1
EndChar

StartChar: H
Encoding: 72 72 41
Width: 709
VWidth: 1504
Flags: W
HStem: 0 21G<9 108.235 474 573.246> 340 81<193 546> 696 20G<156.754 256 621.729 721>
DStem2: 9 0 104 0 0.207912 0.978148<19.7516 367.291 450.056 731.956> 474 0 569 0 0.207912 0.978148<19.7516 347.54 430.304 731.956>
LayerCount: 2
Fore
SplineSet
569 0 m 1
 474 0 l 1
 546 340 l 1
 176 340 l 1
 104 0 l 1
 9 0 l 1
 161 716 l 1
 256 716 l 1
 193 421 l 1
 563 421 l 1
 626 716 l 1
 721 716 l 1
 569 0 l 1
EndSplineSet
Validated: 1
EndChar

StartChar: I
Encoding: 73 73 42
Width: 245
VWidth: 1504
Flags: W
HStem: 0 21G<9 108.246> 696 20G<156.754 256>
VStem: 9 247
DStem2: 9 0 104 0 0.207912 0.978148<19.7516 731.956>
LayerCount: 2
Fore
SplineSet
104 0 m 1
 9 0 l 1
 161 716 l 1
 256 716 l 1
 104 0 l 1
EndSplineSet
Validated: 1
EndChar

StartChar: J
Encoding: 74 74 43
Width: 424
VWidth: 1504
Flags: W
HStem: -14 82<-38.7205 153.624> 696 20G<335.739 435>
DStem2: 184.61 -14 279.798 -14 0.207912 0.978148<144.9 746.355>
LayerCount: 2
Back
SplineSet
334 241 m 2
 298 71.6667 203.333 -13.3333 50 -14 c 0
 12 -14 -28.3333 -4.33333 -71 15 c 1
 -29 93 l 1
 -5 75.6667 26.6667 67.3334 66 68 c 0
 113.333 68 150.833 82 178.5 110 c 128
 206.167 138 227.334 186.667 242 256 c 2
 340 716 l 1
 435 716 l 1
 334 241 l 2
EndSplineSet
Fore
SplineSet
334 241 m 2
 298 72 203 -14 50 -14 c 3
 12 -14 -28 -4 -71 15 c 1
 -29 93 l 1
 -5 76 27 68 66 68 c 3
 182 68 218 145 242 256 c 2
 340 716 l 1
 435 716 l 1
 334 241 l 2
EndSplineSet
Validated: 1
EndChar

StartChar: K
Encoding: 75 75 44
Width: 618
VWidth: 1504
Flags: W
HStem: 0 10G<9 108.181 455.817 526.647> 696 20G<156.754 256 573.939 671.5>
DStem2: 6.66188 -11 101.662 -11 0.207912 0.978148<30.9974 324.2 439.721 743.202> 188 400 235 344 0.781307 0.624147<0 1.76917 102.657 525.837> 313 408 235 344 0.550691 -0.834709<10.4675 435.651>
LayerCount: 2
Fore
SplineSet
567 23 m 1
 469 -11 l 1
 235 344 l 1
 164 287 l 1
 104 0 l 1
 9 0 l 1
 161 716 l 1
 256 716 l 1
 188 400 l 1
 599 728 l 1
 686 704 l 1
 313 408 l 1
 567 23 l 1
EndSplineSet
Validated: 1
EndChar

StartChar: L
Encoding: 76 76 45
Width: 540
VWidth: 1504
Flags: W
HStem: 0 81<120 454> 696 20G<156.754 256>
DStem2: 9 0 102.783 0 0.207912 0.978148<102.308 731.956>
LayerCount: 2
Fore
SplineSet
454 0 m 1
 9 0 l 1
 161 716 l 1
 256 716 l 1
 120 81 l 1
 471 81 l 1
 454 0 l 1
EndSplineSet
Validated: 1
EndChar

StartChar: M
Encoding: 77 77 46
Width: 863
VWidth: 1504
Flags: W
HStem: 0 21G<-23 74.6577 330.108 409.36 662 756.793> 696 20G<175.302 283.725 742.785 854>
DStem2: -23 0 69 0 0.274011 0.961726<25.2091 601.987> 280 716 226 555 0.183093 -0.983096<148.391 606.248> 391 120 397 0 0.521218 0.853423<0 553.144> 662 0 754 0 0.138322 0.990387<12.7256 560.454>
LayerCount: 2
Fore
SplineSet
754 0 m 1
 662 0 l 1
 740 555 l 1
 397 0 l 1
 334 0 l 1
 226 555 l 1
 69 0 l 1
 -23 0 l 1
 181 716 l 1
 280 716 l 1
 391 120 l 1
 755 716 l 1
 854 716 l 1
 754 0 l 1
EndSplineSet
Validated: 1
EndChar

StartChar: N
Encoding: 78 78 47
Width: 709
VWidth: 1504
Flags: W
HStem: 0 21G<9 108.234 469.36 573.246> 696 20G<156.754 264.799 621.724 721>
DStem2: 9 0 104 0 0.207912 0.978148<19.7516 613.629> 256 716 227 581 0.396587 -0.917997<112.429 618.337> 473.117 0 569 0 0.207912 0.978148<153.351 732.14>
LayerCount: 2
Fore
SplineSet
569 0 m 1
 478 0 l 1
 227 581 l 1
 104 0 l 1
 9 0 l 1
 161 716 l 1
 256 716 l 1
 505 150 l 1
 626 716 l 1
 721 716 l 1
 569 0 l 1
EndSplineSet
Validated: 1
EndChar

StartChar: O
Encoding: 79 79 48
Width: 779
VWidth: 1504
Flags: W
HStem: -15 83<238.368 446.845> 648 82<358.045 558.765>
VStem: 38 94<180.908 399.599> 665 94<314.411 537.607>
LayerCount: 2
Back
SplineSet
656 358 m 0
 674 440 665.167 508.833 629.5 564.5 c 128
 593.833 620.167 537.333 648 460 648 c 256
 382.667 648 314.667 620.167 256 564.5 c 128
 197.333 508.833 159 440 141 358 c 0
 123.667 276 132.667 207.167 168 151.5 c 128
 203.333 95.8333 259.666 68 337 68 c 256
 414.333 68 482.5 95.8334 541.5 151.5 c 128
 600.5 207.167 638.667 276 656 358 c 0
749 356 m 256
 727 250.667 675.667 162.5 595 91.5 c 128
 514.333 20.5 422.333 -15 319 -15 c 256
 215.667 -15 139.167 20.6667 89.5 92 c 128
 39.8333 163.333 26 251.333 48 356 c 256
 70 461.333 121.333 550 202 622 c 128
 282.667 694 374.667 730 478 730 c 256
 581.333 730 657.833 694 707.5 622 c 128
 757.167 550 771 461.333 749 356 c 256
EndSplineSet
Fore
SplineSet
337 68 m 259
 506 68 625 212 656 358 c 0
 662 386 665 411 665 436 c 3
 665 564 584 648 460 648 c 259
 291 648 173 503 141 358 c 0
 135 331 132 305 132 281 c 3
 132 153 212 68 337 68 c 259
749 356 m 256
 709 166 540 -15 319 -15 c 259
 153 -15 38 95 38 264 c 3
 38 293 41 324 48 356 c 256
 88 547 256 730 478 730 c 259
 646 730 759 620 759 448 c 3
 759 419 756 388 749 356 c 256
EndSplineSet
Validated: 1
EndChar

StartChar: P
Encoding: 80 80 49
Width: 586
VWidth: 1504
Flags: W
HStem: 0 21G<9 108.099> 278 82<182.764 379.539> 642 82<239.259 447.944>
VStem: 499 97<459.292 600.202>
DStem2: 9 0 104 0 0.207912 0.978148<19.7516 311.231 396.905 678.363>
LayerCount: 2
Back
SplineSet
591 510 m 0
 575.666 440.667 535.833 384.667 471.5 342 c 128
 407.167 299.333 329.334 278 238 278 c 0
 214.666 278 189.332 279.667 162 283 c 1
 104 0 l 1
 9 0 l 1
 158 705 l 1
 233.333 717 298.333 723.333 353 724 c 1
 441 724 506 704.167 548 664.5 c 128
 590 624.833 604.333 573.333 591 510 c 0
495 505 m 1
 514.333 596.333 460.666 642 334 642 c 0
 300 642 268.333 640.667 239 638 c 1
 182 369 l 1
 214 363 241.667 360 265 360 c 0
 397 359.333 473.667 407.666 495 505 c 1
EndSplineSet
Fore
SplineSet
591 510 m 0
 560 368 414 278 238 278 c 3
 215 278 189 280 162 283 c 1
 104 0 l 1
 9 0 l 1
 158 705 l 1
 233 717 298 724 353 724 c 3
 484 724 596 674 596 554 c 3
 596 540 594 525 591 510 c 0
495 505 m 0
 498 517 499 528 499 539 c 3
 499 608 444 642 334 642 c 3
 300 642 268 641 239 638 c 1
 182 369 l 1
 214 363 242 360 265 360 c 3
 397 360 474 408 495 505 c 0
EndSplineSet
Validated: 1
EndChar

StartChar: Q
Encoding: 81 81 50
Width: 779
VWidth: 1504
Flags: W
HStem: -107 81<565.438 630.148> -15 83<238.486 397.957> 648 82<358.045 558.765>
VStem: 38 94<180.908 399.599> 665 94<314.892 537.607>
LayerCount: 2
Back
SplineSet
656 358 m 0
 674 440 665.167 508.833 629.5 564.5 c 128
 593.833 620.167 537.333 648 460 648 c 256
 382.667 648 314.667 620.167 256 564.5 c 128
 197.333 508.833 159 440 141 358 c 0
 123.667 276 132.667 207.167 168 151.5 c 128
 203.333 95.8333 259.666 68 337 68 c 256
 414.333 68 482.5 95.8334 541.5 151.5 c 128
 600.5 207.167 638.667 276 656 358 c 0
749 356 m 0
 731.667 276 698 206.667 648 148 c 128
 598 89.3333 537.333 48.6666 466 26 c 1
 465 20 l 1
 541 0 610.667 -15.3333 674 -26 c 1
 626 -107 l 1
 554.667 -87 465.334 -58.3333 358 -21 c 0
 352.667 -19 339.667 -17 319 -15 c 1
 215.667 -15 139.167 20.6667 89.5 92 c 128
 39.8333 163.333 26 251.333 48 356 c 256
 70 461.333 121.333 550 202 622 c 128
 282.667 694 374.667 730 478 730 c 256
 581.333 730 657.833 694 707.5 622 c 128
 757.167 550 771 461.333 749 356 c 0
EndSplineSet
Fore
SplineSet
337 68 m 259
 506 68 625 212 656 358 c 0
 662 386 665 411 665 436 c 3
 665 564 584 648 460 648 c 259
 291 648 173 503 141 358 c 0
 135 331 132 305 132 281 c 3
 132 153 212 68 337 68 c 259
749 356 m 0
 715 199 610 72 466 26 c 1
 465 20 l 1
 541 0 611 -15 674 -26 c 1
 626 -107 l 1
 555 -87 465 -58 358 -21 c 0
 353 -19 340 -17 319 -15 c 1
 153 -15 38 95 38 264 c 3
 38 293 41 324 48 356 c 256
 88 547 256 730 478 730 c 259
 646 730 759 620 759 448 c 3
 759 419 756 388 749 356 c 0
EndSplineSet
Validated: 1
EndChar

StartChar: R
Encoding: 82 82 51
Width: 594
VWidth: 1504
Flags: W
HStem: 0 21G<9 108.116 411 506> 311 79<187 351.519> 641 83<237.321 453.972>
VStem: 414 94<0 230.412> 501 95<471.479 599.775>
DStem2: 9 0 104 0 0.207912 0.978148<19.7516 337.262 418.486 676.568>
LayerCount: 2
Back
SplineSet
505 0 m 1
 411 0 l 1
 427 207.333 386.333 311 289 311 c 2
 168 311 l 1
 104 0 l 1
 9 0 l 1
 158 704 l 1
 233.333 717.333 299.333 724 356 724 c 0
 441.334 724 505.167 705.833 547.5 669.5 c 128
 589.833 633.167 604.333 584 591 522 c 0
 573.667 440 522 380.667 436 344 c 1
 468 318.667 489 282 499 234 c 128
 509 186 511 108 505 0 c 1
498 516 m 1
 516 599.333 462.667 641 338 641 c 0
 298 641 264.667 639.333 238 636 c 1
 187 390 l 1
 302 390 l 2
 415.333 390 480.666 432 498 516 c 1
EndSplineSet
Fore
SplineSet
436 344 m 1xe8
 497 296 508 224 508 109 c 3
 508 77 507 40 505 0 c 1
 411 0 l 1
 413 29 414 57 414 82 c 3xf0
 414 235 373 311 289 311 c 2
 168 311 l 1
 104 0 l 1
 9 0 l 1
 158 704 l 1
 233 717 299 724 356 724 c 3
 484 724 596 681 596 564 c 3
 596 551 594 537 591 522 c 0
 574 440 522 381 436 344 c 1xe8
498 516 m 0
 500 527 501 537 501 546 c 3xe8
 501 610 447 641 338 641 c 3
 298 641 265 639 238 636 c 1
 187 390 l 1
 302 390 l 2
 415 390 481 432 498 516 c 0
EndSplineSet
Validated: 1
EndChar

StartChar: S
Encoding: 83 83 52
Width: 549
VWidth: 1504
Flags: W
HStem: -14 86<98.8585 303.005> 606 21G<481.5 519.2> 644 86<271.76 469.99>
VStem: 100 98<471.287 584.406> 390 100<150.111 270.226>
LayerCount: 2
Fore
SplineSet
181 -14 m 3
 102 -14 33 8 -26 51 c 1
 32 137 l 1
 80 94 138 72 205 72 c 3
 302 72 390 126 390 214 c 3
 390 263 350 301 272 328 c 0
 157 367 100 424 100 499 c 3
 100 630 238 730 387 730 c 259
 458 730 516 714 561 681 c 1
 504 606 l 1
 459 631 413 644 366 644 c 3
 285 644 198 601 198 525 c 3
 198 478 238 441 317 414 c 0
 415 380 490 340 490 245 c 3
 490 92 341 -14 181 -14 c 3
EndSplineSet
Validated: 1
EndChar

StartChar: T
Encoding: 84 84 53
Width: 633
VWidth: 1504
Flags: W
HStem: 0 21G<205 303.22> 635 81<92 338 433 695>
DStem2: 205 0 299 0 0.207912 0.978148<19.5437 648.776>
LayerCount: 2
Fore
SplineSet
299 0 m 1
 205 0 l 1
 338 635 l 1
 74 635 l 1
 92 716 l 1
 713 716 l 1
 695 635 l 1
 433 635 l 1
 299 0 l 1
EndSplineSet
Validated: 1
EndChar

StartChar: U
Encoding: 85 85 54
Width: 725
VWidth: 1504
Flags: W
HStem: -14 82<219.132 409.454> 696 20G<156.766 257 634.766 736>
VStem: 61 98<126.755 343.531>
DStem2: 6.19446 -14 102.194 -14 0.207912 0.978148<256.962 746.234> 484.194 -14 580.194 -14 0.207912 0.978148<191.492 746.234>
LayerCount: 2
Back
SplineSet
648 305 m 2
 602.666 92.3333 484.333 -14 293 -14 c 256
 101.667 -14 28.667 92.3333 74 305 c 2
 161 716 l 1
 257 716 l 1
 170 305 l 2
 136 146.333 182.667 67.333 310 68 c 257
 437.333 68 518 147 552 305 c 2
 639 716 l 1
 736 716 l 1
 648 305 l 2
EndSplineSet
Fore
SplineSet
648 305 m 2
 603 92 484 -14 293 -14 c 259
 138 -14 61 55 61 194 c 3
 61 227 65 264 74 305 c 2
 161 716 l 1
 257 716 l 1
 170 305 l 2
 163 272 159 241 159 215 c 3
 159 116 210 68 310 68 c 259
 437 68 518 147 552 305 c 2
 639 716 l 1
 736 716 l 1
 648 305 l 2
EndSplineSet
Validated: 1
EndChar

StartChar: V
Encoding: 86 86 55
Width: 634
VWidth: 1504
Flags: W
HStem: 0 21G<204.536 306.927> 696 20G<84 190.101 608.348 722>
DStem2: 187 716 84 716 0.170644 -0.985333<0 593.919> 278 129 295 0 0.512201 0.858866<0 679.327>
LayerCount: 2
Fore
SplineSet
295 0 m 1
 208 0 l 1
 84 716 l 1
 187 716 l 1
 278 129 l 1
 620 716 l 1
 722 716 l 1
 295 0 l 1
EndSplineSet
Validated: 1
EndChar

StartChar: W
Encoding: 87 87 56
Width: 920
VWidth: 1504
Flags: W
HStem: 0 21G<124.715 224.359 573.017 671.777> 696 20G<80 184.629 490.545 592.958 899.839 1012>
VStem: 80 104<607.043 716>
DStem2: 202 144 214 0 0.459918 0.887961<0 536.465> 591 716 517 585 0.0986616 -0.995121<123.06 574.734>
LayerCount: 2
Fore
SplineSet
662 0 m 1
 575 0 l 1
 517 585 l 1
 214 0 l 1
 126 0 l 1
 80 716 l 1
 184 716 l 1
 202 144 l 1
 501 716 l 1
 591 716 l 1
 647 144 l 1
 909 716 l 1
 1012 716 l 1
 662 0 l 1
EndSplineSet
Validated: 1
EndChar

StartChar: X
Encoding: 88 88 57
Width: 640
VWidth: 1504
Flags: W
HStem: 0 21G<-68 65.7586 454.931 578> 696 20G<95 220.857 584.857 721>
DStem2: -68 0 47 0 0.685428 0.72814<78.8242 476.421 603.293 981.271> 211 716 95 716 0.459085 -0.888392<0 312.104 428.036 752.696>
LayerCount: 2
Fore
SplineSet
578 0 m 1
 465 0 l 1
 319 290 l 1
 47 0 l 1
 -68 0 l 1
 275 367 l 1
 95 716 l 1
 211 716 l 1
 349 436 l 1
 603 716 l 1
 721 716 l 1
 390 367 l 1
 578 0 l 1
EndSplineSet
Validated: 1
EndChar

StartChar: Y
Encoding: 89 89 58
Width: 595
VWidth: 1504
Flags: W
HStem: 0 21G<187 284.204> 696 20G<77 195.012 565.478 690>
DStem2: 187 716 77 716 0.400222 -0.916418<0 346.715> 187 0 280 0 0.207912 0.978148<19.3358 319.882> 316 394 346 314 0.650169 0.75979<0 417.597>
LayerCount: 2
Fore
SplineSet
280 0 m 1
 187 0 l 1
 253 313 l 1
 77 716 l 1
 187 716 l 1
 316 394 l 1
 582 716 l 1
 690 716 l 1
 346 314 l 1
 280 0 l 1
EndSplineSet
Validated: 1
EndChar

StartChar: Z
Encoding: 90 90 59
Width: 678
VWidth: 1504
Flags: W
HStem: 0 81<122 575> 635 81<167 573>
DStem2: -12 60 122 81 0.713176 0.700985<110.286 820.274>
LayerCount: 2
Fore
SplineSet
575 0 m 1
 -26 0 l 1
 -12 60 l 1
 573 635 l 1
 132 635 l 1
 167 716 l 1
 722 716 l 1
 708 654 l 1
 122 81 l 1
 609 81 l 1
 575 0 l 1
EndSplineSet
Validated: 1
EndChar

StartChar: bracketleft
Encoding: 91 91 60
Width: 351
VWidth: 1504
Flags: W
HStem: -116 77<83 215> 716 78<244 393>
DStem2: -21 -116 66.6331 -116 0.207912 0.978148<96.9402 868.915>
LayerCount: 2
Fore
SplineSet
215 -116 m 1
 -21 -116 l 1
 171 794 l 1
 409 794 l 1
 393 716 l 1
 244 716 l 1
 83 -39 l 1
 232 -39 l 1
 215 -116 l 1
EndSplineSet
Validated: 1
EndChar

StartChar: backslash
Encoding: 92 92 61
Width: 403
VWidth: 1504
Flags: W
HStem: 707 20G<54 157.911>
VStem: 54 325
DStem2: 152 727 54 727 0.285745 -0.958306<0 773.411>
LayerCount: 2
Fore
SplineSet
379 -41 m 1
 283 -41 l 1
 54 727 l 1
 152 727 l 1
 379 -41 l 1
EndSplineSet
Validated: 1
EndChar

StartChar: bracketright
Encoding: 93 93 62
Width: 351
VWidth: 1504
Flags: W
HStem: -116 77<-29 119> 716 78<147 280>
DStem2: 102.633 -116 191 -116 0.207912 0.978148<78.7202 850.695>
LayerCount: 2
Fore
SplineSet
191 -116 m 1
 -45 -116 l 1
 -29 -39 l 1
 119 -39 l 1
 280 716 l 1
 131 716 l 1
 147 794 l 1
 385 794 l 1
 191 -116 l 1
EndSplineSet
Validated: 1
EndChar

StartChar: asciicircum
Encoding: 94 94 63
Width: 628
VWidth: 1504
Flags: W
HStem: 702 20G<356.207 452.193>
DStem2: 30 229 128 229 0.567733 0.823213<55.6378 513.798> 447 722 384 609 0.251303 -0.967909<93.5416 484.718>
LayerCount: 2
Fore
SplineSet
575 229 m 1
 477 229 l 1
 384 609 l 1
 128 229 l 1
 30 229 l 1
 370 722 l 1
 447 722 l 1
 575 229 l 1
EndSplineSet
Validated: 1
EndChar

StartChar: underscore
Encoding: 95 95 64
Width: 565
VWidth: 1504
Flags: W
HStem: -263 79<-104 442>
LayerCount: 2
Fore
SplineSet
442 -263 m 1
 -122 -263 l 1
 -104 -184 l 1
 460 -184 l 1
 442 -263 l 1
EndSplineSet
Validated: 1
EndChar

StartChar: grave
Encoding: 96 96 65
Width: 315
VWidth: 1504
Flags: W
HStem: 564 173<230 230.035>
VStem: 135 167
LayerCount: 2
Fore
SplineSet
302 564 m 1
 230 564 l 1
 135 710 l 1
 227 737 l 1
 302 564 l 1
EndSplineSet
Validated: 1
EndChar

StartChar: a
Encoding: 97 97 66
Width: 648
VWidth: 1504
Flags: W
HStem: -14 83<166.247 345.104> 453 78<245.842 438.679>
VStem: 21 92<122.951 309.235>
DStem2: 408.537 -14 501.904 -14 0.207912 0.978148<155.671 428.432>
LayerCount: 2
Back
SplineSet
551 6 m 1
 456 -12 l 1
 444 4 436.333 33 433 75 c 1
 383.667 15.6667 318.667 -14 238 -14 c 0
 174.667 -14 122.667 5.16667 82 43.5 c 128
 41.3333 81.8333 21 132.667 21 196 c 0
 21 286 51.8333 364.333 113.5 431 c 128
 175.167 497.667 251 531 341 531 c 0
 452.333 531 537.667 499.333 597 436 c 1
 534 137 l 1
 526 89 531.667 45.3333 551 6 c 1
457 214 m 2
 495 394 l 1
 455.667 433.333 401.334 453 332 453 c 0
 272.667 453 221.334 428.667 178 380 c 128
 134.667 331.333 113 274.333 113 209 c 0
 113 115.667 161 69.0003 257 69 c 0
 304.333 69 347.5 83.3333 386.5 112 c 128
 425.5 140.667 449 174.667 457 214 c 2
EndSplineSet
Fore
SplineSet
238 -14 m 3
 112 -14 21 70 21 196 c 3
 21 374 163 531 341 531 c 3
 452 531 538 499 597 436 c 1
 534 137 l 2
 532 123 530 109 530 96 c 3
 530 64 537 34 551 6 c 1
 456 -12 l 1
 444 4 436 33 433 75 c 1
 384 16 319 -14 238 -14 c 3
257 69 m 3
 351 69 441 136 457 214 c 2
 495 394 l 1
 456 433 401 453 332 453 c 3
 210 453 113 333 113 209 c 3
 113 116 161 69 257 69 c 3
EndSplineSet
Validated: 1
EndChar

StartChar: b
Encoding: 98 98 67
Width: 654
VWidth: 1504
Flags: W
HStem: -12 78<192.738 384.515> 450 82<280.676 465.753>
VStem: 54 90<107.602 221.433> 519 92<210.384 395.802>
DStem2: 13.025 -12 108.335 -12 0.207912 0.978148<194.068 426.041 513.607 762.543>
LayerCount: 2
Back
SplineSet
611 323 m 0
 611 233 579.333 154.667 516 88 c 128
 452.667 21.3333 377.334 -12 290 -12 c 0
 132.667 -12 54.0003 44 54 156 c 0
 54 172 56 189.667 60 209 c 2
 171 734 l 1
 266 734 l 1
 211 471 l 1
 264.333 512.333 325.333 532.666 394 532 c 0
 458 532 510.167 512.667 550.5 474 c 128
 590.833 435.333 611 385 611 323 c 0
519 310 m 0
 519 403.333 471 450 375 450 c 0
 329.667 450 286.5 436.667 245.5 410 c 128
 204.5 383.333 180.667 348.333 174 305 c 1
 149 196 l 2
 145.667 182.667 144 170 144 158 c 0
 144 132 157.667 110.167 185 92.5 c 128
 212.333 74.8333 250.333 66 299 66 c 0
 358.333 66 409.833 90.6667 453.5 140 c 128
 497.168 189.333 519.001 246 519 310 c 0
EndSplineSet
Fore
SplineSet
394 532 m 3
 520 532 611 448 611 323 c 3
 611 147 465 -12 290 -12 c 3
 133 -12 54 44 54 156 c 3
 54 172 56 190 60 209 c 2
 171 734 l 1
 266 734 l 1
 211 471 l 1
 264 512 325 532 394 532 c 3
519 310 m 3
 519 403 471 450 375 450 c 3
 282 450 187 387 174 305 c 1
 149 196 l 2
 146 183 144 170 144 158 c 3
 144 92 223 66 299 66 c 3
 420 66 519 187 519 310 c 3
EndSplineSet
Validated: 1
EndChar

StartChar: c
Encoding: 99 99 68
Width: 521
VWidth: 1504
Flags: W
HStem: -14 80<174.411 360.508> 451 80<246.795 433.655>
VStem: 19 98<122.721 306.796>
LayerCount: 2
Fore
SplineSet
117 204 m 3
 117 118 169 66 253 66 c 3
 303 66 355 81 408 110 c 1
 424 32 l 1
 370 2 308 -14 239 -14 c 3
 109 -14 19 60 19 190 c 3
 19 360 149 531 355 531 c 3
 423 531 478 516 520 486 c 1
 471 408 l 1
 430 437 384 451 334 451 c 3
 206 451 117 329 117 204 c 3
EndSplineSet
Validated: 1
EndChar

StartChar: d
Encoding: 100 100 69
Width: 654
VWidth: 1504
Flags: W
HStem: -14 83<171.71 337.165> 453 78<242.161 413.05>
VStem: 21 94<123.62 310.427>
DStem2: 408.788 -14 502.904 -14 0.207912 0.978148<141.751 356.79 484.685 789.271>
LayerCount: 2
Back
SplineSet
535 137 m 1
 529.671 91 535.338 47.3333 552 6 c 1
 457 -12 l 1
 445 4 437.667 33 435 75 c 1
 375 15.6667 307.667 -14 233 -14 c 256
 159 -14 102.167 12.3333 62.5 65 c 128
 22.8333 117.667 11.6666 184.667 29 266 c 0
 45 341.333 82.8333 404.333 142.5 455 c 128
 202.167 505.667 268.334 531 341 531 c 0
 416.333 531 472.666 507.333 510 460 c 1
 573 758 l 1
 668 758 l 1
 535 137 l 1
453 194 m 2
 477 311 l 1
 486.333 349 475.166 382.167 443.5 410.5 c 128
 411.833 438.833 374.666 453 332 453 c 0
 280 453 235 435.333 197 400 c 128
 159 364.667 134 320 122 266 c 0
 108.667 204.667 113.834 156.5 137.5 121.5 c 128
 161.167 86.5 201 69 257 69 c 0
 307 69 350.167 80.3333 386.5 103 c 128
 422.833 125.667 445 156 453 194 c 2
EndSplineSet
Fore
SplineSet
535 137 m 2
 533 126 533 115 533 104 c 3
 533 70 539 37 552 6 c 1
 457 -12 l 1
 445 4 438 33 435 75 c 1
 375 16 308 -14 233 -14 c 259
 111 -14 21 69 21 196 c 3
 21 218 24 241 29 266 c 0
 58 402 183 531 341 531 c 3
 416 531 473 507 510 460 c 1
 573 758 l 1
 668 758 l 1
 535 137 l 2
115 205 m 3
 115 116 168 69 257 69 c 3
 353 69 437 116 453 194 c 2
 477 311 l 2
 479 320 480 328 480 336 c 3
 480 405 399 453 332 453 c 3
 219 453 143 363 122 266 c 0
 117 244 115 224 115 205 c 3
EndSplineSet
Validated: 1
EndChar

StartChar: e
Encoding: 101 101 70
Width: 588
VWidth: 1504
Flags: W
HStem: -14 85<180.761 401.872> 218 69<132.974 414.551> 453 78<258.839 433.75>
VStem: 18 96<133.516 229.583> 463 82<325.885 425.259>
LayerCount: 2
Back
SplineSet
545 370 m 0
 545 318.667 518.333 279.667 465 253 c 0
 419.667 229.667 363.334 218 296 218 c 0
 234.667 218 174.667 222 116 230 c 1
 114.667 224 114 218 114 212 c 0
 114 166.667 128.667 131.834 158 107.5 c 128
 187.333 83.1667 225.333 71 272 71 c 0
 326 71 393.333 84 474 110 c 1
 466 27 l 1
 388 -0.333334 316 -14 250 -14 c 0
 180.667 -14 124.667 3.83333 82 39.5 c 128
 39.3333 75.1667 18 123.667 18 185 c 0
 18 281 52.1667 362.667 120.5 430 c 128
 188.833 497.333 268.666 531 360 531 c 0
 483.333 531 545 477.333 545 370 c 0
463 372 m 0
 463 426 424 453 346 453 c 0
 304.667 453 262.667 438 220 408 c 128
 177.333 378 148 341.333 132 298 c 1
 160 290.667 208.333 287 277 287 c 0
 401 287.667 463 316 463 372 c 0
EndSplineSet
Fore
SplineSet
250 -14 m 3
 119 -14 18 57 18 185 c 3
 18 378 175 531 360 531 c 3
 483 531 545 477 545 370 c 3
 545 261 417 218 296 218 c 3
 235 218 175 222 116 230 c 1
 115 224 114 218 114 212 c 3
 114 120 180 71 272 71 c 3
 326 71 393 84 474 110 c 1
 466 27 l 1
 388 0 316 -14 250 -14 c 3
463 372 m 3
 463 426 424 453 346 453 c 3
 247 453 159 371 132 298 c 1
 160 291 208 287 277 287 c 3
 401 287 463 316 463 372 c 3
EndSplineSet
Validated: 1
EndChar

StartChar: f
Encoding: 102 102 71
Width: 382
VWidth: 1504
Flags: W
HStem: -226 82<-178.754 -28.0647> 433 78<68 137 248 378> 687 82<327.495 477.754>
DStem2: -3.83959 -226 91.1604 -226 0.207912 0.978148<136.767 673.881 773.255 896.563>
LayerCount: 2
Back
SplineSet
146 32 m 2
 108.667 -139.333 23.3337 -225.333 -110 -226 c 0
 -152 -226 -185 -215 -209 -193 c 1
 -167 -122 l 1
 -135.667 -137.333 -110 -144.666 -90 -144 c 0
 -20.6667 -144 26.3333 -85.3333 51 32 c 2
 137 433 l 1
 51 433 l 1
 68 511 l 1
 155 511 l 1
 191 682.333 275.667 768.333 409 769 c 0
 451 769 484 758 508 736 c 1
 466 665 l 1
 434.667 680.333 409.334 687.666 390 687 c 0
 320.667 687 273.334 628.333 248 511 c 1
 394 511 l 1
 378 433 l 1
 232 433 l 1
 146 32 l 2
EndSplineSet
Fore
SplineSet
146 32 m 2
 109 -139 23 -226 -110 -226 c 3
 -152 -226 -185 -215 -209 -193 c 1
 -167 -122 l 1
 -136 -137 -110 -144 -90 -144 c 3
 -21 -144 26 -85 51 32 c 2
 137 433 l 1
 51 433 l 1
 68 511 l 1
 155 511 l 1
 191 682 276 769 409 769 c 3
 451 769 484 758 508 736 c 1
 466 665 l 1
 435 680 409 687 390 687 c 3
 321 687 273 628 248 511 c 1
 394 511 l 1
 378 433 l 1
 232 433 l 1
 146 32 l 2
EndSplineSet
Validated: 1
EndChar

StartChar: g
Encoding: 103 103 72
Width: 499
VWidth: 1504
Flags: W
HStem: -226 80<62.4599 229.175> 152 78<167.61 304.659> 445 77<204.423 335.345> 457 65<409 484>
VStem: 51 87<118.93 161.332 259.156 380.659> 272 89<-107.552 -20.2857> 363 82<288.877 416.771>
LayerCount: 2
Back
SplineSet
358 -68 m 0
 348 -115.333 323 -153.5 283 -182.5 c 128
 243 -211.5 190.333 -226 125 -226 c 0
 71 -226 19.3333 -208.667 -30 -174 c 1
 17 -99 l 1
 64.3333 -130.333 107.667 -146 147 -146 c 0
 178.333 -146 205.833 -138.667 229.5 -124 c 128
 253.167 -109.333 267 -91.9997 271 -72 c 1
 278.333 -42 256.333 -15.3333 205 8 c 0
 165.667 25.3333 128.667 44.3333 94 65 c 128
 59.3333 85.6667 45.6666 113 53 147 c 0
 57 163 66 183.667 80 209 c 1
 52 248.333 43 290 53 334 c 1
 64.3333 389.333 92.1666 434.5 136.5 469.5 c 128
 180.833 504.5 229 522 281 522 c 2
 498 522 l 1
 484 457 l 1
 409 457 l 1
 440.333 433.667 451.333 396 442 344 c 1
 430 284.667 404 237.834 364 203.5 c 128
 324 169.167 273.333 152 212 152 c 0
 190 152 169 155.333 149 162 c 1
 143 156.665 139.333 150.332 138 143 c 0
 134.667 127.667 167 110 235 90 c 0
 333 60.6667 374 8.00003 358 -68 c 0
361 337 m 256
 367 367 361.5 392.5 344.5 413.5 c 128
 327.5 434.5 304 445 274 445 c 256
 244 445 215.833 434.5 189.5 413.5 c 128
 163.167 392.5 147 367 141 337 c 256
 135 307 140.667 281.667 158 261 c 128
 175.333 240.333 199 229.999 229 230 c 0
 265 230 294.5 240.333 317.5 261 c 128
 340.5 281.667 355 307 361 337 c 256
EndSplineSet
Fore
SplineSet
147 -146 m 3xde
 204 -146 272 -114 272 -61 c 3
 272 -35 250 -12 205 8 c 0
 166 25 129 44 94 65 c 0
 65 82 51 104 51 130 c 3
 51 154 63 178 80 209 c 1
 59 238 49 268 49 300 c 3
 49 311 50 322 53 334 c 0
 73 434 166 522 281 522 c 2xee
 498 522 l 1
 484 457 l 1
 409 457 l 1
 433 439 445 413 445 378 c 3
 445 368 444 356 442 344 c 0
 420 233 341 152 212 152 c 3
 190 152 169 155 149 162 c 1
 143 157 138 149 138 141 c 3
 138 126 170 109 235 90 c 0
 319 65 361 23 361 -37 c 3
 361 -47 360 -57 358 -68 c 0
 337 -167 249 -226 125 -226 c 3
 71 -226 19 -209 -30 -174 c 1
 17 -99 l 1
 64 -130 108 -146 147 -146 c 3xde
139 315 m 3
 139 264 180 230 229 230 c 3
 306 230 363 284 363 360 c 3
 363 411 323 445 274 445 c 259
 205 445 139 385 139 315 c 3
EndSplineSet
Validated: 1
EndChar

StartChar: h
Encoding: 104 104 73
Width: 636
VWidth: 1504
Flags: W
HStem: 0 21G<9 108.214> 444 81<277.552 424.506>
VStem: 417 97<4.75108 187.883> 465 98<222.102 402.346>
DStem2: 4.1112 -23 99.1112 -23 0.207912 0.978148<43.2654 422.168 509.26 798.424> 394.054 -23 489.817 -23 0.207912 0.978148<120.281 360.327>
LayerCount: 2
Back
SplineSet
555 289 m 2
 520 119 l 2
 516 99 514 84 514 74 c 0
 514 56.6667 519.667 35.6667 531 11 c 1
 441 -23 l 1
 425 0.333334 417 27 417 57 c 0
 417 74.3334 420.333 99.3334 427 132 c 2
 460 287 l 2
 463.333 301 465 315.667 465 331 c 0
 465 365 455.5 392.333 436.5 413 c 128
 417.5 433.667 390.667 444 356 444 c 0
 316 444 276.5 429.167 237.5 399.5 c 128
 198.5 369.833 175 336.333 167 299 c 2
 104 0 l 1
 9 0 l 1
 170 758 l 1
 265 758 l 1
 200 456 l 1
 255.333 502 318 525 388 525 c 0
 504 525 562.333 469.333 563 358 c 0
 563 337.333 560.333 314.333 555 289 c 2
EndSplineSet
Fore
SplineSet
465 331 m 3xd0
 465 399 425 444 356 444 c 3
 273 444 182 368 167 299 c 2
 104 0 l 1
 9 0 l 1
 170 758 l 1
 265 758 l 1
 200 456 l 1
 255 502 318 525 388 525 c 3
 504 525 563 469 563 358 c 3xd0
 563 337 560 314 555 289 c 2
 520 119 l 2
 516 99 514 84 514 74 c 3
 514 57 520 36 531 11 c 1
 441 -23 l 1
 425 0 417 27 417 57 c 3xe0
 417 74 420 99 427 132 c 2
 460 287 l 2
 463 301 465 316 465 331 c 3xd0
EndSplineSet
Validated: 1
EndChar

StartChar: i
Encoding: 105 105 74
Width: 245
VWidth: 1504
Flags: W
HStem: 0 21G<9 108.227> 491 20G<112.773 212> 590 144<152.038 235.962>
VStem: 120 148<622.46 701.54>
DStem2: 9 0 104 0 0.207912 0.978148<19.7516 522.288>
LayerCount: 2
Back
SplineSet
104 0 m 1
 9 0 l 1
 117 511 l 1
 212 511 l 1
 104 0 l 1
266 662 m 256
 262 642 251.5 625 234.5 611 c 128
 217.5 597 199 590 179 590 c 256
 159 590 143.5 597 132.5 611 c 128
 121.5 625 118 642 122 662 c 256
 126 682 136.5 699 153.5 713 c 128
 170.5 727 189 734 209 734 c 256
 229 734 244.5 727 255.5 713 c 128
 266.5 699 270 682 266 662 c 256
EndSplineSet
Fore
SplineSet
104 0 m 1
 9 0 l 1
 117 511 l 1
 212 511 l 1
 104 0 l 1
268 677 m 3
 268 630 225 590 179 590 c 259
 146 590 120 613 120 647 c 3
 120 694 163 734 209 734 c 259
 242 734 268 711 268 677 c 3
EndSplineSet
Validated: 1
EndChar

StartChar: j
Encoding: 106 106 75
Width: 257
VWidth: 1504
Flags: W
HStem: -212 77<-167 -68.3438> 491 20G<124.775 224> 590 144<165.745 249.962>
VStem: 133 149<622.46 701.54>
DStem2: -24.0907 -212 69.199 -212 0.207912 0.978148<138.499 739.03>
LayerCount: 2
Back
SplineSet
120 27 m 2
 86.6667 -128.333 -10.3333 -208 -171 -212 c 1
 -167 -135 l 1
 -97.6667 -129.667 -51 -114.667 -27 -90 c 128
 -3 -65.3333 17.6667 -13.3333 35 66 c 2
 129 511 l 1
 224 511 l 1
 120 27 l 2
280 662 m 256
 276 642 265.5 625 248.5 611 c 128
 231.5 597 213 590 193 590 c 256
 173 590 157.333 597 146 611 c 128
 134.667 625 131 642 135 662 c 256
 139 682 149.667 699 167 713 c 128
 184.333 727 203 734 223 734 c 256
 243 734 258.5 727 269.5 713 c 128
 280.5 699 284 682 280 662 c 256
EndSplineSet
Fore
SplineSet
120 27 m 2
 87 -128 -10 -208 -171 -212 c 1
 -167 -135 l 1
 -14 -124 7 -66 35 66 c 2
 129 511 l 1
 224 511 l 1
 120 27 l 2
282 677 m 3
 282 630 239 590 193 590 c 259
 160 590 133 613 133 647 c 3
 133 694 177 734 223 734 c 259
 256 734 282 711 282 677 c 3
EndSplineSet
Validated: 1
EndChar

StartChar: k
Encoding: 107 107 76
Width: 511
VWidth: 1504
Flags: W
HStem: 0 6G<9 108.147 356.336 456.667> 502 20G<414.551 543>
DStem2: 5.81165 -15 100.812 -15 0.207912 0.978148<35.0867 256.701 368.309 790.245> 173 326 269 301 0.808292 0.588781<62.8765 332.832> 269 301 191 247 0.574591 -0.818441<0 316.661>
LayerCount: 2
Fore
SplineSet
474 9 m 1
 370 -15 l 1
 191 247 l 1
 149 217 l 1
 104 0 l 1
 9 0 l 1
 170 758 l 1
 265 758 l 1
 173 326 l 1
 442 522 l 1
 543 504 l 1
 269 301 l 1
 474 9 l 1
EndSplineSet
Validated: 1
EndChar

StartChar: l
Encoding: 108 108 77
Width: 320
VWidth: 1504
Flags: W
HStem: -12 86<188.559 232.36>
VStem: 54 97<109.121 311.516>
DStem2: 6.54695 -12 101.083 -12 0.207912 0.978148<225.927 787.157>
LayerCount: 2
Back
SplineSet
230 -12 m 1
 82.6667 -4 27.6667 87.6667 65 263 c 2
 170 758 l 1
 265 758 l 1
 164 284 l 1
 146.667 206.667 147 152 165 120 c 0
 180.333 92.6667 211.666 77.3334 259 74 c 1
 230 -12 l 1
EndSplineSet
Fore
SplineSet
151 187 m 3
 151 111 184 79 259 74 c 1
 230 -12 l 1
 112 -6 54 54 54 167 c 3
 54 196 57 228 65 263 c 2
 170 758 l 1
 265 758 l 1
 164 284 l 2
 156 246 151 214 151 187 c 3
EndSplineSet
Validated: 1
EndChar

StartChar: m
Encoding: 109 109 78
Width: 956
VWidth: 1504
Flags: W
HStem: 0 21G<9 108.197 364 463.149> 447 79<273.227 410.139 615.9 748.357>
VStem: 102 87<387.125 510.466> 740 95<4.78374 197.203> 785 98<219.773 410.767>
DStem2: 4.1112 -23 99.1112 -23 0.207912 0.978148<43.2654 426.028> 359.111 -23 454.111 -23 0.207912 0.978148<43.2654 388.741> 715.054 -23 809.88 -23 0.207912 0.978148<116.503 364.962>
LayerCount: 2
Back
SplineSet
839 114 m 1
 835 88.6667 834 68.3334 836 53 c 128
 838 37.6667 843 23.6667 851 11 c 1
 761 -23 l 1
 751.661 -9.66667 745.328 10.8333 742 38.5 c 128
 738.667 66.1667 740.667 97.3334 748 132 c 2
 779 283 l 2
 789 329 787 367 773 397 c 1
 755.667 430.333 727.667 447 689 447 c 0
 655.667 447 622 434 588 408 c 128
 554 382 533.333 353.667 526 323 c 1
 459 0 l 1
 364 0 l 1
 429 308 l 2
 449 400 420.333 446.333 343 447 c 0
 309 447 273.167 431.667 235.5 401 c 128
 197.833 370.333 175.333 338.333 168 305 c 2
 104 0 l 1
 9 0 l 1
 89 376 l 2
 94.3333 401.333 98.3333 423.333 101 442 c 0
 104.333 463.333 101.333 485.333 92 508 c 1
 174 525 l 1
 187.333 501 191.666 472.333 187 439 c 1
 209 469 237.5 491 272.5 505 c 128
 307.5 519 340.667 526 372 526 c 0
 438 526 485 498 513 442 c 1
 578.333 498 648.666 526 724 526 c 0
 783.333 526 827.166 503.833 855.5 459.5 c 128
 883.833 415.167 890.333 356.667 875 284 c 2
 839 114 l 1
EndSplineSet
Fore
SplineSet
785 336 m 3xe8
 785 402 749 447 689 447 c 3
 621 447 538 380 526 323 c 2
 459 0 l 1
 364 0 l 1
 429 308 l 2
 433 327 435 344 435 359 c 3
 435 417 404 447 343 447 c 3
 272 447 181 364 168 305 c 2
 104 0 l 1
 9 0 l 1
 89 376 l 2
 95 406 102 431 102 457 c 3
 102 473 99 490 92 508 c 1
 174 525 l 1
 184 507 189 487 189 464 c 3
 189 456 188 447 187 439 c 1
 223 488 294 526 372 526 c 3
 438 526 485 498 513 442 c 1
 578 498 649 526 724 526 c 3
 827 526 883 455 883 353 c 3xe8
 883 331 880 308 875 284 c 2
 839 114 l 2
 836 97 835 83 835 70 c 3
 835 47 840 29 851 11 c 1
 761 -23 l 1
 747 -3 740 29 740 63 c 3xf0
 740 86 743 110 748 132 c 2
 779 283 l 2
 783 302 785 320 785 336 c 3xe8
EndSplineSet
Validated: 1
EndChar

StartChar: n
Encoding: 110 110 79
Width: 636
VWidth: 1504
Flags: W
HStem: 0 21G<9 108.197> 447 79<283.284 431.911>
VStem: 102 87<439.483 510.49> 421 95<4.86831 197.578> 468 96<221.062 412.049>
DStem2: 4.1112 -23 99.1112 -23 0.207912 0.978148<43.2654 422.484> 396.054 -23 489.88 -23 0.207912 0.978148<118.414 372.225>
LayerCount: 2
Back
SplineSet
519 114 m 1
 515.667 88.6667 515 68.3334 517 53 c 128
 519 37.6667 524 23.6667 532 11 c 1
 442 -23 l 1
 432.667 -9.66667 426.334 10.8333 423 38.5 c 128
 419.667 66.1667 421.667 97.3334 429 132 c 2
 462 290 l 2
 484 394 447.333 446.333 352 447 c 0
 316.667 447 278.667 431.167 238 399.5 c 128
 197.333 367.833 173.999 336.333 168 305 c 2
 104 0 l 1
 9 0 l 1
 89 376 l 2
 94.3333 401.333 98.3333 423.333 101 442 c 0
 104.333 463.333 101.333 485.333 92 508 c 1
 174 525 l 1
 187.333 501 191.666 472.333 187 439 c 1
 249 497 314 526 382 526 c 256
 450 526 499.833 505 531.5 463 c 128
 563.167 421 571.667 363.333 557 290 c 1
 519 114 l 1
EndSplineSet
Fore
SplineSet
382 526 m 259xe8
 492 526 564 466 564 355 c 3xe8
 564 335 562 313 557 290 c 2
 519 114 l 1
 517 98 516 84 516 72 c 3
 516 46 521 29 532 11 c 1
 442 -23 l 1
 430 -6 421 30 421 65 c 3xf0
 421 86 424 108 429 132 c 2
 462 290 l 2
 466 309 468 327 468 343 c 3
 468 412 429 447 352 447 c 3
 281 447 182 370 168 305 c 2
 104 0 l 1
 9 0 l 1
 89 376 l 2
 96 408 102 430 102 459 c 3
 102 475 99 491 92 508 c 1
 174 525 l 1
 184 507 189 487 189 464 c 3
 189 456 188 448 187 439 c 1
 249 497 314 526 382 526 c 259xe8
EndSplineSet
Validated: 1
EndChar

StartChar: o
Encoding: 111 111 80
Width: 619
VWidth: 1504
Flags: W
HStem: -12 80<178.329 345.594> 450 81<250.412 418.265>
VStem: 20 95<130.278 306.388> 481 95<211.499 387.9>
LayerCount: 2
Back
SplineSet
569 259 m 256
 553 183 513.833 118.833 451.5 66.5 c 128
 389.167 14.1667 319 -12 241 -12 c 256
 163 -12 103.833 14 63.5 66 c 128
 23.1667 118 11 182.333 27 259 c 256
 43 335 82.3333 399.333 145 452 c 128
 207.667 504.667 278 531 356 531 c 256
 434 531 493 504.667 533 452 c 128
 573 399.333 585 335 569 259 c 256
475 259 m 0
 487 313 480.333 358.333 455 395 c 128
 429.667 431.667 390.667 450 338 450 c 256
 286 450 239.667 431.667 199 395 c 128
 158.333 358.333 132 313 120 259 c 0
 108.667 205 115.667 159.667 141 123 c 128
 166.333 86.3333 205 68 257 68 c 256
 309 68 355.5 86.3334 396.5 123 c 128
 437.5 159.667 463.667 205 475 259 c 0
EndSplineSet
Fore
SplineSet
569 259 m 256
 539 118 413 -12 241 -12 c 259
 115 -12 20 69 20 197 c 3
 20 217 22 237 27 259 c 256
 57 399 185 531 356 531 c 259
 486 531 576 449 576 321 c 3
 576 301 574 281 569 259 c 256
115 211 m 3
 115 124 172 68 257 68 c 259
 369 68 455 162 475 259 c 0
 479 276 481 292 481 308 c 3
 481 394 422 450 338 450 c 259
 225 450 141 356 120 259 c 0
 116 242 115 226 115 211 c 3
EndSplineSet
Validated: 1
EndChar

StartChar: p
Encoding: 112 112 81
Width: 648
VWidth: 1504
Flags: W
HStem: -14 83<203.424 377.645> 453 78<292.075 450.547> 505 20G<92 179>
VStem: 102 87<439.279 510.489> 512 95<220.113 390.977>
DStem2: -36 -215 57 -215 0.207912 0.978148<19.3358 288.232 429.305 613.976>
LayerCount: 2
Back
SplineSet
507 268 m 0
 518.333 320 511.333 363.833 486 399.5 c 128
 460.667 435.167 423 453 373 453 c 0
 333 453 290.667 436.833 246 404.5 c 128
 201.333 372.167 175 336.667 167 298 c 2
 149 214 l 1
 139.667 174.667 148.334 140.667 175 112 c 128
 201.667 83.3333 238.667 69 286 69 c 0
 342 69 389.5 86.8334 428.5 122.5 c 128
 467.5 158.167 493.667 206.667 507 268 c 0
600 269 m 0
 582 185.667 542 117.667 480 65 c 128
 418 12.3333 348.667 -14 272 -14 c 0
 202 -14 149 6.66667 113 48 c 1
 57 -215 l 1
 -36 -215 l 1
 101 438 l 1
 104.333 462 101.333 485.333 92 508 c 1
 174 525 l 1
 187.333 501 191.666 472.333 187 439 c 1
 248.333 500.333 319.333 531 400 531 c 0
 474 531 529.667 505.833 567 455.5 c 128
 604.333 405.167 615.333 343 600 269 c 0
EndSplineSet
Fore
SplineSet
145 185 m 3xd8
 145 113 213 69 286 69 c 3
 410 69 483 160 507 268 c 0
 511 284 512 299 512 314 c 3
 512 398 454 453 373 453 c 3
 290 453 182 369 167 298 c 2
 149 214 l 2
 147 204 145 194 145 185 c 3xd8
600 269 m 0
 568 122 442 -14 272 -14 c 3
 202 -14 149 7 113 48 c 1
 57 -215 l 1
 -36 -215 l 1
 101 438 l 2
 102 444 102 451 102 457 c 3
 102 474 99 491 92 508 c 1
 174 525 l 1xb8
 184 507 189 487 189 464 c 3
 189 456 188 448 187 439 c 1
 248 500 319 531 400 531 c 3
 520 531 607 453 607 331 c 3
 607 311 604 291 600 269 c 0
EndSplineSet
Validated: 1
EndChar

StartChar: q
Encoding: 113 113 82
Width: 648
VWidth: 1504
Flags: W
HStem: -14 83<166.247 349.663> 453 78<245.842 438.679>
VStem: 21 92<122.951 311.526>
DStem2: 366 -215 460 -215 0.207912 0.978148<19.5437 268.688 361.122 633.884>
LayerCount: 2
Back
SplineSet
460 -215 m 1
 366 -215 l 1
 421 48 l 1
 367.667 6.66667 306.667 -14 238 -14 c 0
 174.667 -14 122.667 5.16667 82 43.5 c 128
 41.3333 81.8333 21 132.667 21 196 c 0
 21 286 51.8333 364.333 113.5 431 c 128
 175.167 497.667 251 531 341 531 c 0
 452.333 531 537.667 499.333 597 436 c 1
 460 -215 l 1
457 214 m 2
 495 394 l 1
 455.667 433.333 401.334 453 332 453 c 0
 272.667 453 221.334 428.667 178 380 c 128
 134.667 331.333 113 274.333 113 209 c 0
 113 115.667 161 69.0003 257 69 c 0
 304.333 69 347.5 83.3333 386.5 112 c 128
 425.5 140.667 449 174.667 457 214 c 2
EndSplineSet
Fore
SplineSet
238 -14 m 3
 112 -14 21 70 21 196 c 3
 21 380 163 531 341 531 c 3
 452 531 538 499 597 436 c 1
 460 -215 l 1
 366 -215 l 1
 421 48 l 1
 368 7 307 -14 238 -14 c 3
257 69 m 3
 351 69 441 136 457 214 c 2
 495 394 l 1
 456 433 401 453 332 453 c 3
 210 453 113 338 113 209 c 3
 113 116 161 69 257 69 c 3
EndSplineSet
Validated: 1
EndChar

StartChar: r
Encoding: 114 114 83
Width: 370
VWidth: 1504
Flags: W
HStem: 0 21G<9 108.191> 444 82<261.951 375.821>
VStem: 99 83<379.116 510.657>
DStem2: 9 0 104 0 0.207912 0.978148<19.7516 414.874>
LayerCount: 2
Back
SplineSet
375 441 m 1
 367 443 355.333 444 340 444 c 0
 244.667 444 185 386.667 161 272 c 2
 104 0 l 1
 9 0 l 1
 80 338 l 2
 88 374 94 408.667 98 442 c 1
 101.333 463.333 98.333 485.333 89 508 c 1
 171 525 l 1
 184.334 501 186.001 469.333 176 430 c 1
 196 460 222 483.5 254 500.5 c 128
 286 517.5 316 526 344 526 c 0
 364 526 379.667 524.667 391 522 c 1
 375 441 l 1
EndSplineSet
Fore
SplineSet
176 430 m 1
 208 477 274 526 344 526 c 3
 364 526 380 525 391 522 c 1
 375 441 l 1
 367 443 355 444 340 444 c 3
 245 444 185 387 161 272 c 2
 104 0 l 1
 9 0 l 1
 80 338 l 2
 89 380 99 427 99 459 c 3
 99 475 96 491 89 508 c 1
 171 525 l 1
 179 511 182 495 182 476 c 3
 182 462 180 447 176 430 c 1
EndSplineSet
Validated: 1
EndChar

StartChar: s
Encoding: 115 115 84
Width: 445
VWidth: 1504
Flags: W
HStem: -14 83<64.8135 242.876> 451 74<200.832 358>
VStem: 71 92<340.06 415.43> 278 97<100.541 195.61>
LayerCount: 2
Fore
SplineSet
135 -14 m 3
 84 -14 33 3 -18 36 c 1
 33 111 l 1
 68 83 109 69 156 69 c 3
 233 69 278 101 278 153 c 3
 278 185 250 210 194 229 c 0
 112 256 71 296 71 348 c 3
 71 439 169 525 293 525 c 3
 351 525 397 510 432 481 c 1
 382 412 l 1
 352 438 315 451 271 451 c 3
 217 451 163 413 163 373 c 3
 163 349 195 325 257 302 c 0
 336 273 375 231 375 175 c 3
 375 69 274 -14 135 -14 c 3
EndSplineSet
Validated: 1
EndChar

StartChar: t
Encoding: 116 116 85
Width: 388
VWidth: 1504
Flags: W
HStem: -14 85<178.157 298.081> 433 78<56 141 253 400>
VStem: 77 95<76.8155 190.75>
DStem2: 45.8026 -14 139.59 -14 0.207912 0.978148<159.773 457.025 556.606 680.033>
LayerCount: 2
Back
SplineSet
299 8 m 1
 263 -6 228.667 -13.3333 196 -14 c 1
 150 -14 116.833 1.66667 96.5 33 c 128
 76.1667 64.3333 71.6667 107 83 161 c 2
 141 433 l 1
 39 433 l 1
 56 511 l 1
 158 511 l 1
 188 651 l 1
 290 692 l 1
 253 511 l 1
 417 511 l 1
 400 433 l 1
 236 433 l 1
 177 162 l 2
 163.667 100.667 177 70.3337 217 71 c 0
 242.333 71 271.666 76.3333 305 87 c 1
 299 8 l 1
EndSplineSet
Fore
SplineSet
196 -14 m 3
 121 -14 77 31 77 107 c 3
 77 123 79 142 83 161 c 2
 141 433 l 1
 39 433 l 1
 56 511 l 1
 158 511 l 1
 188 651 l 1
 290 692 l 1
 253 511 l 1
 417 511 l 1
 400 433 l 1
 236 433 l 1
 177 162 l 2
 174 147 172 133 172 122 c 3
 172 88 187 71 217 71 c 3
 242 71 272 76 305 87 c 1
 299 8 l 1
 263 -6 229 -14 196 -14 c 3
EndSplineSet
Validated: 1
EndChar

StartChar: u
Encoding: 117 117 86
Width: 628
VWidth: 1504
Flags: W
HStem: -14 85<177.132 308.407> 506 5G<89 183.5 496.695 596>
VStem: 47 99<102.148 286.867> 98 95<321.055 510.156>
DStem2: 4.71109 -14 100.798 -14 0.207912 0.978148<213.073 464.744> 388.6 -14 483.904 -14 0.207912 0.978148<161.44 536.897>
LayerCount: 2
Back
SplineSet
532 6 m 1
 438 -12 l 1
 426 4 418.333 33 415 75 c 1
 341.667 15.6667 276 -14 218 -14 c 0
 104 -14 47 38.6667 47 144 c 0
 47 170 50.3333 199.333 57 232 c 2
 93 399 l 2
 96.3333 413 98 427.333 98 442 c 0
 98 464 95 486 89 508 c 1
 179 526 l 1
 188.334 498.667 193 471.667 193 445 c 0
 193 425.667 191 406.667 187 388 c 2
 155 241 l 2
 149 213 146 190.333 146 173 c 0
 146 105 179.667 71 247 71 c 0
 284.334 71 323.167 85.1667 363.5 113.5 c 128
 403.833 141.833 428 173.666 436 209 c 2
 501 511 l 1
 596 511 l 1
 516 137 l 2
 514 127.667 513 117 513 105 c 0
 512.333 75 518.666 42 532 6 c 1
EndSplineSet
Fore
SplineSet
532 6 m 1xe0
 438 -12 l 1
 426 4 418 33 415 75 c 1
 342 16 276 -14 218 -14 c 3
 104 -14 47 39 47 144 c 3xe0
 47 170 50 199 57 232 c 2
 93 399 l 2
 96 413 98 427 98 442 c 3
 98 464 95 486 89 508 c 1
 179 526 l 1
 188 499 193 472 193 445 c 3xd0
 193 426 191 407 187 388 c 2
 155 241 l 2
 149 213 146 190 146 173 c 3
 146 105 180 71 247 71 c 3
 329 71 421 144 436 209 c 2
 501 511 l 1
 596 511 l 1
 516 137 l 2
 514 128 513 117 513 105 c 3
 513 75 519 42 532 6 c 1xe0
EndSplineSet
Validated: 1
EndChar

StartChar: v
Encoding: 118 118 87
Width: 538
VWidth: 1504
Flags: W
HStem: 0 21G<159.951 254.542> 491 20G<36 139.67 473.802 587>
DStem2: 135 511 36 511 0.244767 -0.969582<0 404.534> 227 117 241 0 0.560669 0.82804<0 472.022>
LayerCount: 2
Fore
SplineSet
241 0 m 1
 165 0 l 1
 36 511 l 1
 135 511 l 1
 227 117 l 1
 487 511 l 1
 587 511 l 1
 241 0 l 1
EndSplineSet
Validated: 1
EndChar

StartChar: w
Encoding: 119 119 88
Width: 722
VWidth: 1504
Flags: W
HStem: 0 21G<55.2172 147.019 450.496 543.237> 491 20G<36 134 351.772 445.679 663.762 770>
VStem: 36 98<332.15 511> 56 72<125 178.85>
DStem2: 128 125 135 0 0.515109 0.857125<0 375.975> 442 511 382 411 0.172555 -0.985<88.1467 392.461>
LayerCount: 2
Fore
SplineSet
534 0 m 1xd0
 454 0 l 1
 382 411 l 1
 135 0 l 1
 56 0 l 1xd0
 36 511 l 1
 134 511 l 1xe0
 128 125 l 1
 364 511 l 1
 442 511 l 1
 513 125 l 1
 672 511 l 1
 770 511 l 1
 534 0 l 1xd0
EndSplineSet
Validated: 1
EndChar

StartChar: x
Encoding: 120 120 89
Width: 524
VWidth: 1504
Flags: W
HStem: 0 21G<-83 53.6091 347.411 475> 491 20G<39 165.556 434.889 570>
DStem2: -83 0 33 0 0.725705 0.688006<84.1818 367.037 481.001 742.726> 153 511 39 511 0.533121 -0.846039<0 212.53 309.905 542.682>
LayerCount: 2
Fore
SplineSet
475 0 m 1
 360 0 l 1
 236 197 l 1
 33 0 l 1
 -83 0 l 1
 194 262 l 1
 39 511 l 1
 153 511 l 1
 266 331 l 1
 456 511 l 1
 570 511 l 1
 307 262 l 1
 475 0 l 1
EndSplineSet
Validated: 1
EndChar

StartChar: y
Encoding: 121 121 90
Width: 543
VWidth: 1504
Flags: W
HStem: -227 78<-66.7179 -11.6435> 491 20G<36 145.066 472.807 590>
DStem2: 140 511 36 511 0.257408 -0.966303<0 390.94> 236 132 248 11 0.564566 0.825388<0 453.964>
LayerCount: 2
Fore
SplineSet
248 11 m 2
 157 -122 52 -202 -66 -227 c 1
 -74 -149 l 1
 19 -129 98 -67 162 38 c 1
 36 511 l 1
 140 511 l 1
 236 132 l 1
 486 511 l 1
 590 511 l 1
 248 11 l 2
EndSplineSet
Validated: 1
EndChar

StartChar: z
Encoding: 122 122 91
Width: 538
VWidth: 1504
Flags: W
HStem: 0 80<111 430> 432 79<105 396>
DStem2: -23 57 111 80 0.745148 0.666899<115.189 562.304>
LayerCount: 2
Fore
SplineSet
430 0 m 1
 -36 0 l 1
 -23 57 l 1
 396 432 l 1
 71 432 l 1
 105 511 l 1
 542 511 l 1
 528 450 l 1
 111 80 l 1
 460 80 l 1
 430 0 l 1
EndSplineSet
Validated: 1
EndChar

StartChar: braceleft
Encoding: 123 123 92
Width: 383
VWidth: 1504
Flags: W
HStem: -132 76<154.494 238> 269 78<53 107.052> 671 78<299.771 408>
VStem: 49 93<-41.8122 72.1072> 117 91<145.639 256.672>
LayerCount: 2
Back
SplineSet
238 -132 m 1
 203 -132 l 2
 82.3333 -132 32.6666 -81 54 21 c 1
 59.3333 41 70.1666 73.3333 86.5 118 c 128
 102.833 162.667 112.666 194 116 212 c 0
 124 248 97.3333 267 36 269 c 1
 53 347 l 1
 115 349 149.333 367.667 156 403 c 1
 161.333 424.333 165.166 457.333 167.5 502 c 128
 169.834 546.667 173.001 578 177 596 c 0
 198.333 698 269.333 749 390 749 c 2
 424 749 l 1
 408 671 l 1
 369 671 l 2
 313.667 671 279 645 265 593 c 1
 261 507.667 255 446 247 408 c 1
 241.666 386 230.832 365.167 214.5 345.5 c 128
 198.167 325.833 180.667 313.333 162 308 c 1
 200 290.667 214.333 257.334 205 208 c 1
 197 170.667 176.667 109.334 144 24 c 1
 134.667 -29.3333 158.334 -56 215 -56 c 2
 254 -56 l 1
 238 -132 l 1
EndSplineSet
Fore
SplineSet
238 -132 m 1xf0
 203 -132 l 2
 100 -132 49 -96 49 -22 c 3xf0
 49 -9 50 6 54 21 c 0
 62 50 110 182 116 212 c 0
 117 216 117 220 117 224 c 3
 117 252 90 267 36 269 c 1
 53 347 l 1
 115 349 149 368 156 403 c 0
 162 434 170 564 177 596 c 0
 198 698 269 749 390 749 c 2
 424 749 l 1
 408 671 l 1
 369 671 l 2
 314 671 267 638 265 593 c 0
 261 508 256 446 247 408 c 0
 237 367 201 319 162 308 c 1
 193 294 208 270 208 235 c 3xe8
 208 227 207 218 205 208 c 0
 197 171 177 109 144 24 c 0
 142 19 142 9 142 3 c 3
 142 -36 166 -56 215 -56 c 2
 254 -56 l 1
 238 -132 l 1xf0
EndSplineSet
Validated: 1
EndChar

StartChar: bar
Encoding: 124 124 93
Width: 266
VWidth: 1504
Flags: W
VStem: -29 306
DStem2: -29 -250 56 -250 0.207912 0.978148<17.6725 1063.99>
LayerCount: 2
Fore
SplineSet
56 -250 m 1
 -29 -250 l 1
 191 791 l 1
 277 791 l 1
 56 -250 l 1
EndSplineSet
Validated: 1
EndChar

StartChar: braceright
Encoding: 125 125 94
Width: 383
VWidth: 1504
Flags: W
HStem: -132 76<-21 89.1172> 269 78<276.586 334> 671 78<147 234.088>
VStem: 178 89<360.281 464.165> 244 92<543.18 659.252>
DStem2: 119 18 208 21 0.100703 0.994917<-49.4744 242.707> 181 408 268 403 0.307367 0.951591<11.3426 219.881>
LayerCount: 2
Back
SplineSet
334 269 m 1
 270.667 267 235 248 227 212 c 0
 223.665 193.995 220.832 162.662 218.5 118 c 128
 216.167 73.3333 212.667 41 208 21 c 0
 186.667 -81 116.334 -132 -3 -132 c 2
 -38 -132 l 1
 -21 -56 l 1
 17 -56 l 2
 75 -56 109 -31.3333 119 18 c 0
 124.333 41.3333 127.833 73.6666 129.5 115 c 128
 131.167 156.333 134 187.333 138 208 c 0
 148 258 176.333 291.333 223 308 c 1
 207 313.333 194.667 325.833 186 345.5 c 128
 177.333 365.167 175.666 386 181 408 c 256
 186.333 430 196.833 462 212.5 504 c 128
 228.167 546 238 577.667 242 599 c 0
 252 647 228 671 170 671 c 2
 131 671 l 1
 147 749 l 1
 182 749 l 2
 302.667 749 352.334 698 331 596 c 0
 327 578 316.667 546.667 300 502 c 128
 283.331 457.333 272.664 424.333 268 403 c 0
 260.667 367.667 288 349 350 347 c 1
 334 269 l 1
EndSplineSet
Fore
SplineSet
223 308 m 1xf0
 198 316 178 347 178 383 c 3xf0
 178 391 179 400 181 408 c 256
 190 444 235 562 242 599 c 0
 243 606 244 613 244 619 c 3
 244 654 219 671 170 671 c 2
 131 671 l 1
 147 749 l 1
 182 749 l 2
 284 749 336 713 336 639 c 3xe8
 336 626 334 611 331 596 c 0
 324 566 275 434 268 403 c 0
 267 399 267 395 267 392 c 3
 267 364 295 349 350 347 c 1
 334 269 l 1
 271 267 235 248 227 212 c 0
 221 181 215 51 208 21 c 0
 187 -81 116 -132 -3 -132 c 2
 -38 -132 l 1
 -21 -56 l 1
 17 -56 l 2
 75 -56 109 -31 119 18 c 0
 128 56 130 169 138 208 c 0
 148 258 176 291 223 308 c 1xf0
EndSplineSet
Validated: 1
EndChar

StartChar: asciitilde
Encoding: 126 126 95
Width: 634
VWidth: 1504
Flags: W
HStem: 217 84<400.122 516.794> 310 80<126.371 246.279>
VStem: 12 83<217 273.338> 549 81<336.629 390>
LayerCount: 2
Back
SplineSet
624 366 m 1
 614 320 593.667 283.667 563 257 c 128
 532.333 230.333 497 217 457 217 c 0
 433 217 383.5 232.5 308.5 263.5 c 128
 233.5 294.5 187.333 310 170 310 c 0
 134.667 310 109.667 279 95 217 c 1
 12 217 l 1
 18 245 l 2
 27.3333 289 48.1666 324.167 80.5 350.5 c 128
 112.833 376.833 148.666 390 188 390 c 0
 215.333 390 265.833 375.167 339.5 345.5 c 128
 413.167 315.833 459.334 301 478 301 c 0
 509.333 301 533 330.667 549 390 c 1
 630 390 l 1
 624 366 l 1
EndSplineSet
Fore
SplineSet
624 366 m 1
 607 286 548 217 457 217 c 3
 433 217 383 233 308 264 c 0
 233 295 187 310 170 310 c 3
 135 310 110 279 95 217 c 1
 12 217 l 1
 18 245 l 2
 34 322 100 390 188 390 c 3
 215 390 266 376 340 346 c 0
 414 316 459 301 478 301 c 3
 509 301 533 331 549 390 c 1
 630 390 l 1
 624 366 l 1
EndSplineSet
Validated: 1
EndChar

StartChar: uni0E33.alt1
Encoding: 65537 -1 96
Width: 515
VWidth: 1504
Flags: W
HStem: 532 80<213.064 352.468> 699 67<-309.917 -215.371> 887 67<-292.311 -199.44>
VStem: -385 68<773.587 861.825> -193 67<788.62 879.868> 56 90<415 463.966> 375 96<407.964 510.467>
DStem2: 270.967 -41 364.194 -41 0.207912 0.978148<51.2473 511.361>
LayerCount: 2
Back
SplineSet
-126 826 m 0
 -133.333 790.667 -152 760.667 -182 736 c 128
 -212 711.333 -244.667 699 -280 699 c 0
 -316 699 -343.5 711.333 -362.5 736 c 128
 -381.5 760.667 -387.667 790.667 -381 826 c 0
 -373 861.333 -353.833 891.5 -323.5 916.5 c 128
 -293.167 941.5 -260.667 954 -226 954 c 256
 -190.667 954 -163.167 941.667 -143.5 917 c 128
 -123.833 892.333 -118 862 -126 826 c 0
-193 826 m 0
 -189 843.333 -191.5 857.833 -200.5 869.5 c 128
 -209.5 881.167 -222.333 887 -239 887 c 256
 -256.333 887 -272.167 881 -286.5 869 c 128
 -300.833 857 -310 842.667 -314 826 c 0
 -317.333 808.664 -314.167 794.33 -304.5 783 c 128
 -294.833 771.667 -281.667 766 -265 766 c 256
 -247.667 766 -232.167 771.667 -218.5 783 c 128
 -204.833 794.333 -196.333 808.667 -193 826 c 0
388 71 m 2
 376 13.6667 352.333 -23.6667 317 -41 c 1
 244 0 l 1
 273.334 17.3333 292.667 52.3333 302 105 c 1
 372 438 l 2
 378 466 373.333 488.667 358 506 c 128
 342.667 523.333 318.667 532 286 532 c 256
 252.667 532 223 521 197 499 c 128
 171 477 154 449 146 415 c 1
 56 415 l 1
 72 475 102 522.834 146 558.5 c 128
 190 594.167 242 612 302 612 c 0
 358 612 402.333 597.667 435 569 c 128
 467.667 540.333 478 497 466 439 c 2
 388 71 l 2
EndSplineSet
Fore
Refer: 286 3661 N 1 0 0 1 -221 0 2
Refer: 263 3634 N 1 0 0 1 0 0 2
Validated: 1
EndChar

StartChar: uni0E4E.alt1
Encoding: 65540 -1 99
Width: 0
VWidth: 1504
Flags: W
HStem: 696 38<-382.852 -275.391> 835 30<-298.022 -259.536> 969 40<-312.556 -192.61>
VStem: -435 44<742.392 812.99> -367 45<880.548 958.949>
LayerCount: 2
Back
SplineSet
-184 999 m 1
 -197 961 l 1
 -214.333 966.333 -233 969 -253 969 c 0
 -299 969 -322 953.333 -322 922 c 0
 -322 888.667 -297 869 -247 863 c 1
 -260 829 l 1
 -272 833 -284 835 -296 835 c 0
 -324 835 -346.833 828.667 -364.5 816 c 128
 -382.167 803.333 -391 789.667 -391 775 c 0
 -391 747.667 -368.333 734 -323 734 c 0
 -309.667 734 -293.667 738 -275 746 c 1
 -274 708 l 1
 -293.333 700 -316.333 696 -343 696 c 0
 -368.333 696 -390 703.333 -408 718 c 128
 -426 732.667 -435 752 -435 776 c 0
 -435 801.333 -425 822.5 -405 839.5 c 128
 -385 856.5 -362.333 865 -337 865 c 1
 -357 878.333 -367 897.333 -367 922 c 0
 -367 980 -328.333 1009 -251 1009 c 0
 -224.333 1009.66 -202 1006.33 -184 999 c 1
EndSplineSet
Fore
SplineSet
-435 776 m 3
 -435 826 -387 865 -337 865 c 1
 -357 878 -367 897 -367 922 c 3
 -367 980 -328 1009 -251 1009 c 3
 -224 1009 -202 1006 -184 999 c 1
 -197 961 l 1
 -214 966 -233 969 -253 969 c 3
 -299 969 -322 953 -322 922 c 3
 -322 889 -297 869 -247 863 c 1
 -260 829 l 1
 -272 833 -284 835 -296 835 c 3
 -339 835 -391 813 -391 775 c 3
 -391 748 -368 734 -323 734 c 3
 -310 734 -294 738 -275 746 c 1
 -274 708 l 1
 -293 700 -316 696 -343 696 c 3
 -392 696 -435 727 -435 776 c 3
EndSplineSet
Validated: 1
EndChar

StartChar: exclamdown
Encoding: 161 161 100
Width: 252
VWidth: 1504
Flags: W
HStem: 373 144<112.24 194.888>
VStem: 79 150<406.75 483.269>
LayerCount: 2
Back
SplineSet
69 -212 m 1
 -38 -212 l 1
 78 295 l 1
 162 295 l 1
 69 -212 l 1
226 445 m 1
 222 425 211.333 408 194 394 c 128
 176.667 380 158 373 138 373 c 256
 118 373 102.5 380 91.5 394 c 128
 80.5 408 77 425 81 445 c 1
 86.3333 465 97.5 482 114.5 496 c 128
 131.5 510 150 517 170 517 c 256
 190 517 205.667 510 217 496 c 128
 228.333 482 231.333 465 226 445 c 1
EndSplineSet
Fore
SplineSet
69 -212 m 1
 -38 -212 l 1
 78 295 l 1
 162 295 l 1
 69 -212 l 1
229 463 m 3
 229 415 186 373 138 373 c 259
 105 373 79 396 79 430 c 3
 79 477 124 517 170 517 c 259
 201 517 229 496 229 463 c 3
EndSplineSet
Validated: 1
EndChar

StartChar: cent
Encoding: 162 162 101
Width: 722
VWidth: 1504
Flags: W
HStem: 36 80<370.349 526.002> 573 80<365.527 418 501 614.803>
VStem: 89 92<198.68 387.862>
DStem2: 262 -84 344 -84 0.207912 0.978148<17.0488 122.576 774.498 876.112>
LayerCount: 2
Back
SplineSet
579 78 m 1
 519 48.6667 449 33.3334 369 32 c 1
 344 -84 l 1
 262 -84 l 1
 287 36 l 1
 211.667 50 157 84.3333 123 139 c 128
 89 193.667 80.6667 262 98 344 c 0
 116 426 153.5 494.5 210.5 549.5 c 128
 267.5 604.5 336.667 639 418 653 c 1
 444 773 l 1
 526 773 l 1
 501 657 l 1
 581 655 644.667 639.667 692 611 c 1
 645 539 l 1
 621.667 550.333 597 558.833 571 564.5 c 128
 545 570.167 517.667 573 489 573 c 0
 409.667 573 343.5 553 290.5 513 c 128
 237.5 473 203.333 416.667 188 344 c 256
 172.667 272 183.167 216 219.5 176 c 128
 255.833 136 313.666 116 393 116 c 0
 422.333 116 450.833 119 478.5 125 c 128
 506.167 131 534.334 139.333 563 150 c 1
 579 78 l 1
EndSplineSet
Fore
SplineSet
393 116 m 3
 459 116 511 131 563 150 c 1
 579 78 l 1
 519 49 449 33 369 32 c 1
 344 -84 l 1
 262 -84 l 1
 287 36 l 1
 172 57 89 133 89 266 c 3
 89 291 92 316 98 344 c 0
 133 504 253 625 418 653 c 1
 444 773 l 1
 526 773 l 1
 501 657 l 1
 581 655 645 640 692 611 c 1
 645 539 l 1
 602 560 551 573 489 573 c 3
 324 573 217 483 188 344 c 256
 183 323 181 303 181 284 c 3
 181 166 270 116 393 116 c 3
EndSplineSet
Validated: 1
EndChar

StartChar: sterling
Encoding: 163 163 102
Width: 722
VWidth: 1504
Flags: W
HStem: 0 71<218 522> 314 70<150 251 334 486> 606 21G<583 616.016> 633 71<415.67 601.87>
VStem: 251 80<213.21 314 384 492.989>
DStem2: 242 242 320 253 0.214096 0.976813<-93.2888 72.2574>
LayerCount: 2
Back
SplineSet
522 0 m 1
 68 0 l 1
 78 56 l 1
 171.333 107.333 226 169.333 242 242 c 0
 243.339 250.027 245.006 260.527 247 273.5 c 128
 249 286.5 250.333 300 251 314 c 1
 135 314 l 1
 150 384 l 1
 257 384 l 1
 259 405.334 261.333 424.667 264 442 c 128
 266.667 459.333 269.333 476.333 272 493 c 1
 302 633.667 382.667 704 514 704 c 0
 554 704 597.333 692.333 644 669 c 1
 603 606 l 1
 563 624 527.333 633 496 633 c 0
 416 633 366 586.333 346 493 c 0
 338 455 334 418.667 334 384 c 1
 501 384 l 1
 486 314 l 1
 331 314 l 1
 329.667 306 328 296.333 326 285 c 128
 324 273.667 322 263 320 253 c 0
 304.667 179.667 270.667 119 218 71 c 1
 535 71 l 1
 522 0 l 1
EndSplineSet
Fore
SplineSet
522 0 m 1
 68 0 l 1
 78 56 l 1
 171 107 226 169 242 242 c 0
 246 261 250 291 251 314 c 1
 135 314 l 1
 150 384 l 1
 257 384 l 1
 261 424 264 457 272 493 c 0
 302 634 383 704 514 704 c 3
 554 704 597 692 644 669 c 1
 603 606 l 1
 563 624 527 633 496 633 c 3
 416 633 366 586 346 493 c 0
 338 455 334 419 334 384 c 1
 501 384 l 1
 486 314 l 1
 331 314 l 1
 328 297 323 270 320 253 c 0
 305 180 271 119 218 71 c 1
 535 71 l 1
 522 0 l 1
EndSplineSet
Validated: 1
EndChar

StartChar: currency
Encoding: 164 164 103
Width: 722
VWidth: 1504
Flags: W
HStem: 62 90<242.885 416.069> 528 90<315.857 485.571>
VStem: 79 95<217.378 388.351> 559 95<291.649 455.328>
DStem2: 35 122 84 53 0.77233 0.635222<0 92.3691 696.157 789.011>
LayerCount: 2
Back
SplineSet
648 340 m 1
 634.664 280.667 606.33 227.667 563 181 c 1
 606 122 l 1
 526 53 l 1
 481 114 l 1
 429 78.6666 370.333 61.3333 305 62 c 0
 241.667 62 192 79.3334 156 114 c 1
 84 53 l 1
 35 122 l 1
 102 181 l 1
 78 228.333 72.6667 281.333 86 340 c 1
 98 399.333 126 452.333 170 499 c 1
 126 558 l 1
 206 627 l 1
 251 566 l 1
 303 601.333 360.667 618.666 424 618 c 0
 489.333 618 540 600.667 576 566 c 1
 648 627 l 1
 698 558 l 1
 630 499 l 1
 654 452.333 660 399.333 648 340 c 1
555 340 m 1
 565 391.333 555.5 435.5 526.5 472.5 c 128
 497.5 509.5 457.333 528 406 528 c 0
 352.667 528 304 509.5 260 472.5 c 128
 216 435.5 189 391.333 179 340 c 1
 167 286.667 175.333 242 204 206 c 128
 232.667 170 273.334 152 326 152 c 0
 377.333 152 425.333 170 470 206 c 128
 514.667 242 543 286.667 555 340 c 1
EndSplineSet
Fore
SplineSet
648 340 m 0
 635 281 606 228 563 181 c 1
 606 122 l 1
 526 53 l 1
 481 114 l 1
 429 79 370 62 305 62 c 3
 242 62 192 79 156 114 c 1
 84 53 l 1
 35 122 l 1
 102 181 l 1
 87 211 79 244 79 279 c 3
 79 299 81 319 86 340 c 0
 98 399 126 452 170 499 c 1
 126 558 l 1
 206 627 l 1
 251 566 l 1
 303 601 361 618 424 618 c 3
 489 618 540 601 576 566 c 1
 648 627 l 1
 698 558 l 1
 630 499 l 1
 646 468 654 434 654 397 c 3
 654 379 652 360 648 340 c 0
174 295 m 3
 174 208 241 152 326 152 c 3
 438 152 533 245 555 340 c 0
 558 353 559 366 559 378 c 3
 559 464 490 528 406 528 c 3
 295 528 198 435 179 340 c 0
 175 324 174 309 174 295 c 3
EndSplineSet
Validated: 1
EndChar

StartChar: yen
Encoding: 165 165 104
Width: 722
VWidth: 1504
Flags: W
HStem: 137 75<122 280 382 540> 260 75<149 305 423 566>
DStem2: 269 693 164 693 0.370943 -0.928656<0 305.471> 256 27 343 27 0.207912 0.978148<18.0883 112.586 207.154 238.096> 379 408 423 337 0.638054 0.769991<0 367.476>
LayerCount: 2
Fore
SplineSet
540 137 m 1
 367 137 l 1
 343 27 l 1
 256 27 l 1
 280 137 l 1
 107 137 l 1
 122 212 l 1
 295 212 l 1
 305 260 l 1
 132 260 l 1
 149 335 l 1
 307 335 l 1
 164 693 l 1
 269 693 l 1
 379 408 l 1
 611 693 l 1
 718 693 l 1
 423 337 l 1
 582 337 l 1
 566 260 l 1
 393 260 l 1
 382 212 l 1
 555 212 l 1
 540 137 l 1
EndSplineSet
Validated: 1
EndChar

StartChar: brokenbar
Encoding: 166 166 105
Width: 242
VWidth: 1504
Flags: W
HStem: 696 20G<165.688 242>
VStem: -20 262
DStem2: -20 -179 51 -179 0.207912 0.978148<14.7617 395.592 536.071 914.945>
LayerCount: 2
Fore
SplineSet
159 331 m 1
 87 331 l 1
 170 716 l 1
 242 716 l 1
 159 331 l 1
51 -179 m 1
 -20 -179 l 1
 62 208 l 1
 134 208 l 1
 51 -179 l 1
EndSplineSet
Validated: 1
EndChar

StartChar: section
Encoding: 167 167 106
Width: 571
VWidth: 1504
Flags: W
HStem: -57 68<117.451 292.176> 612 21G<466 498.692> 656 66<288.562 450.113>
VStem: 90 75<325.328 419.81> 164 79<525.65 614.106> 346 76<59.9709 164.966> 412 81<267.248 368.046>
DStem2: 199 316 147 251 0.916696 -0.399585<-43.0184 185.514>
LayerCount: 2
Back
SplineSet
418 107 m 0
 406.667 55.6667 379.5 15.5 336.5 -13.5 c 128
 293.5 -42.5 244 -57 188 -57 c 0
 124.667 -57 74.0003 -38 36 0 c 1
 83 63 l 1
 99 43.6667 117.167 30.1667 137.5 22.5 c 128
 157.833 14.8333 180.666 11 206 11 c 0
 242 11 272.5 19.1667 297.5 35.5 c 128
 322.5 51.8333 338 73 344 99 c 0
 351.333 134.333 333.333 164 290 188 c 1
 266.602 198.027 242.769 208.361 218.5 219 c 128
 194.166 229.667 170.332 240.334 147 251 c 1
 99.6666 277 81.6666 318.333 93 375 c 1
 103 418.333 131 457.333 177 492 c 1
 163.665 515.333 160.332 541.333 167 570 c 0
 177 615.333 202 652 242 680 c 128
 282 708 330.333 722 387 722 c 0
 413 722 438.167 718 462.5 710 c 128
 486.834 702 510.667 691 534 677 c 1
 483 612 l 1
 449 641.333 409.333 656 364 656 c 0
 334.667 656 308.5 648.667 285.5 634 c 128
 262.5 619.333 248.667 601 244 579 c 0
 242 567.667 243.167 557.5 247.5 548.5 c 128
 251.833 539.5 258.666 531 268 523 c 1
 275.334 517.667 287.167 511.334 303.5 504 c 128
 319.834 496.667 339.667 489 363 481 c 1
 410.334 463 445.167 440.333 467.5 413 c 128
 489.833 385.667 497.333 354.334 490 319 c 0
 484.667 295.667 474.834 273.834 460.5 253.5 c 128
 446.166 233.165 428.666 213.332 408 194 c 1
 422 171.333 425.333 142.333 418 107 c 0
411 311 m 1
 415 328.333 409.167 345.833 393.5 363.5 c 128
 377.833 381.167 356 395.334 328 406 c 0
 304 415.333 283 424 265 432 c 128
 247 440 232 447 220 453 c 1
 190.667 431 173 406 167 378 c 1
 163.667 366 165.167 355.167 171.5 345.5 c 128
 177.833 335.833 187 326 199 316 c 1
 208.333 310.667 220.333 304.334 235 297 c 128
 249.667 289.667 269 281.334 293 272 c 0
 310.333 264.667 325 258.334 337 253 c 128
 349 247.667 359 242 367 236 c 1
 381 249.333 391.333 261.833 398 273.5 c 128
 404.667 285.167 409 297.667 411 311 c 1
EndSplineSet
Fore
SplineSet
83 63 m 1xe4
 112 28 148 11 206 11 c 3
 274 11 332 45 344 99 c 0
 345 104 346 109 346 114 c 3
 346 143 329 171 290 188 c 0
 243 208 193 230 147 251 c 0
 107 269 90 303 90 344 c 3xf4
 90 354 91 364 93 375 c 0
 103 418 131 457 177 492 c 1
 168 508 164 524 164 542 c 3
 164 551 165 560 167 570 c 0
 187 661 275 722 387 722 c 3
 447 722 493 701 534 677 c 1
 483 612 l 1
 449 641 409 656 364 656 c 3
 308 656 254 624 244 579 c 0
 243 575 243 571 243 568 c 3
 243 547 254 533 268 523 c 0
 291 506 328 494 363 481 c 0
 410 463 446 440 468 413 c 0
 485 392 493 369 493 344 c 3xea
 493 278 447 229 408 194 c 1
 417 179 422 161 422 141 c 3
 422 130 421 119 418 107 c 0
 397 9 304 -57 188 -57 c 3
 125 -57 74 -38 36 0 c 1
 83 63 l 1xe4
367 236 m 1
 391 259 412 282 412 322 c 3xf2
 412 336 406 350 394 364 c 0
 378 382 356 395 328 406 c 0
 288 421 252 437 220 453 c 1
 191 431 173 406 167 378 c 0
 166 374 165 370 165 366 c 3
 165 345 182 326 199 316 c 0
 236 295 293 272 337 253 c 0
 349 248 359 242 367 236 c 1
EndSplineSet
Validated: 1
EndChar

StartChar: dieresis
Encoding: 168 168 107
Width: 512
VWidth: 1504
Flags: W
HStem: 573 132<175.17 253.83 399.51 475.98>
VStem: 147 135<600.72 676.303> 370 134<601.127 675.897>
LayerCount: 2
Back
SplineSet
280 639 m 0
 276 619.662 266 603.828 250 591.5 c 128
 234 579.167 217.333 573 200 573 c 0
 182 573 168 579.333 158 592 c 128
 148 604.669 145 620.336 149 639 c 0
 153 657 162.833 672.5 178.5 685.5 c 128
 194.167 698.5 211 705 229 705 c 0
 246.333 705 260.166 698.5 270.5 685.5 c 128
 280.833 672.5 284 657 280 639 c 0
502 639 m 0
 498 619.662 488 603.828 472 591.5 c 128
 456 579.167 439.667 573 423 573 c 256
 405.667 573 391.834 579.333 381.5 592 c 128
 371.167 604.669 368 620.336 372 639 c 0
 376 657 386 672.5 402 685.5 c 128
 418 698.5 434.333 705 451 705 c 256
 468.335 705 482.168 698.5 492.5 685.5 c 128
 502.833 672.5 506 657 502 639 c 0
EndSplineSet
Fore
SplineSet
282 653 m 3
 282 609 242 573 200 573 c 3
 171 573 147 594 147 624 c 3
 147 667 187 705 229 705 c 3
 257 705 282 683 282 653 c 3
504 653 m 3
 504 610 464 573 423 573 c 259
 394 573 370 594 370 624 c 3
 370 666 410 705 451 705 c 259
 479 705 504 683 504 653 c 3
EndSplineSet
Validated: 1
EndChar

StartChar: copyright
Encoding: 169 169 108
Width: 812
VWidth: 1504
Flags: W
HStem: -5 64<318.603 536.091> 132 62<340.255 532.467> 520 58<339.098 532.025> 663 64<318.603 535.719>
VStem: 62 63<252.556 469.444> 206 69<262.117 453.814> 730 63<252.165 469.65>
LayerCount: 2
Back
SplineSet
579 176 m 1
 541 146.667 489.333 132 424 132 c 0
 356.667 132 303.5 153.167 264.5 195.5 c 128
 225.5 237.833 206 289.333 206 350 c 0
 206 420 226.5 475.5 267.5 516.5 c 128
 308.5 557.5 363.333 578 432 578 c 0
 493.333 578 540 566 572 542 c 1
 554 487 l 1
 516 509 475.333 520 432 520 c 0
 328 520 275.667 466 275 358 c 1
 275 248.667 327.667 194 433 194 c 0
 482.333 194 524.667 206.667 560 232 c 1
 579 176 l 1
793 361 m 256
 793 261 757.167 175 685.5 103 c 128
 613.833 31 527.666 -5 427 -5 c 256
 327 -5 241.167 31 169.5 103 c 128
 97.8333 175 62 261 62 361 c 256
 62 461 97.8333 547 169.5 619 c 128
 241.167 691 327 727 427 727 c 256
 527 727 613 691 685 619 c 128
 757 547 793 461 793 361 c 256
730 361 m 256
 730 444.333 700.333 515.5 641 574.5 c 128
 581.667 633.5 510.334 663 427 663 c 256
 343.667 663 272.5 633.5 213.5 574.5 c 128
 154.5 515.5 125 444.333 125 361 c 256
 125 277.667 154.5 206.5 213.5 147.5 c 128
 272.5 88.5 343.667 59 427 59 c 256
 510.333 59 581.666 88.5 641 147.5 c 128
 700.333 206.5 730 277.667 730 361 c 256
EndSplineSet
Fore
SplineSet
206 350 m 3
 206 488 294 578 432 578 c 3
 493 578 540 566 572 542 c 1
 554 487 l 1
 516 509 475 520 432 520 c 3
 328 520 275 466 275 358 c 3
 275 249 328 194 433 194 c 3
 482 194 525 207 560 232 c 1
 579 176 l 1
 541 147 489 132 424 132 c 3
 295 132 206 224 206 350 c 3
793 361 m 259
 793 162 627 -5 427 -5 c 259
 229 -5 62 163 62 361 c 259
 62 559 229 727 427 727 c 259
 625 727 793 559 793 361 c 259
730 361 m 259
 730 526 592 663 427 663 c 259
 263 663 125 525 125 361 c 259
 125 197 263 59 427 59 c 259
 592 59 730 196 730 361 c 259
EndSplineSet
Validated: 1
EndChar

StartChar: ordfeminine
Encoding: 170 170 109
Width: 434
VWidth: 1504
Flags: W
HStem: 363 55<164.622 286.829> 663 56<218.961 363.785>
VStem: 78 68<435.84 582.813> 340 50<371.827 423.812>
DStem2: 310.841 363 376.208 363 0.207912 0.978148<92.6034 287.877>
LayerCount: 2
Back
SplineSet
442 666 m 1
 393 442 l 2
 391 432.667 390 422.667 390 412 c 0
 390 396 392.333 383.667 397 375 c 1
 346 363 l 1
 342 374.333 340 386.333 340 399 c 0
 340 409 340.333 417.333 341 424 c 1
 297.667 382.667 252.334 362.334 205 363 c 0
 165.667 363 134.667 374.5 112 397.5 c 128
 89.3333 420.5 78 450.333 78 487 c 0
 78 546.333 97.6667 599.833 137 647.5 c 128
 176.333 695.167 225.333 719 284 719 c 0
 346 719 398.667 701.333 442 666 c 1
344 519 m 1
 370 638 l 1
 342.667 655.333 314.667 663.666 286 663 c 0
 244.667 663 211 645.833 185 611.5 c 128
 159 577.166 146 539.333 146 498 c 0
 146 444.667 171.667 418 223 418 c 0
 250.333 418 275.5 428.333 298.5 449 c 128
 321.5 469.667 336.667 493 344 519 c 1
EndSplineSet
Fore
SplineSet
205 363 m 3
 129 363 78 412 78 487 c 3
 78 604 166 719 284 719 c 3
 346 719 399 701 442 666 c 1
 393 442 l 2
 391 433 390 423 390 412 c 3
 390 396 392 384 397 375 c 1
 346 363 l 1
 342 374 340 386 340 399 c 3
 340 409 340 417 341 424 c 1
 298 383 252 363 205 363 c 3
223 418 m 3
 281 418 334 471 344 519 c 2
 370 638 l 1
 343 655 315 663 286 663 c 3
 203 663 146 580 146 498 c 3
 146 445 172 418 223 418 c 3
EndSplineSet
Validated: 1
EndChar

StartChar: guillemotleft
Encoding: 171 171 110
Width: 535
VWidth: 1504
Flags: W
DStem2: 36 269 125 269 0.720508 0.693447<64.1252 292.743> 125 269 36 269 0.54588 -0.837863<0 186.094> 220 269 310 271 0.723895 0.68991<66.5304 294.241> 310 271 220 269 0.539054 -0.842271<0 188.399>
LayerCount: 2
Fore
SplineSet
438 71 m 1
 347 71 l 1
 220 269 l 1
 433 472 l 1
 522 472 l 1
 310 271 l 1
 438 71 l 1
254 71 m 1
 162 71 l 1
 36 269 l 1
 245 474 l 1
 338 474 l 1
 125 269 l 1
 254 71 l 1
EndSplineSet
Validated: 1
EndChar

StartChar: logicalnot
Encoding: 172 172 111
Width: 673
VWidth: 1504
Flags: W
HStem: 352 68<51 534>
VStem: 534 72<132 352>
LayerCount: 2
Fore
SplineSet
606 132 m 1
 534 132 l 1
 534 352 l 1
 51 352 l 1
 51 420 l 1
 606 420 l 1
 606 132 l 1
EndSplineSet
Validated: 1
EndChar

StartChar: registered
Encoding: 174 174 112
Width: 812
VWidth: 1504
Flags: W
HStem: -5 64<318.603 536.091> 331 50<340 466.259> 537 53<341.096 491.865> 663 64<318.603 535.719>
VStem: 62 63<252.556 469.444> 278 62<134 331 381 535.942> 520 56<405.438 510.787> 532 59<134 232.886> 730 63<252.165 469.65>
LayerCount: 2
Back
SplineSet
591 134 m 1
 532 134 l 1
 514 265.333 475 331 415 331 c 2
 340 331 l 1
 340 134 l 1
 278 134 l 1
 278 578 l 1
 324 586 365.333 590 402 590 c 0
 455.334 590 497.667 578.667 529 556 c 128
 560.333 533.333 576 502.333 576 463 c 0
 576 411 551.333 374 502 352 c 1
 526 334.667 544.333 311 557 281 c 128
 569.667 251 581 202 591 134 c 1
520 459 m 256
 520 511 480.667 537 402 537 c 0
 376.667 537 356 536 340 534 c 1
 340 381 l 1
 411 381 l 2
 483.667 381 520.001 407 520 459 c 256
793 361 m 256
 793 261 757.167 175 685.5 103 c 128
 613.833 31 527.666 -5 427 -5 c 256
 327 -5 241.167 31 169.5 103 c 128
 97.8333 175 62 261 62 361 c 256
 62 461 97.8333 547 169.5 619 c 128
 241.167 691 327 727 427 727 c 256
 527 727 613 691 685 619 c 128
 757 547 793 461 793 361 c 256
730 361 m 256
 730 444.333 700.333 515.5 641 574.5 c 128
 581.667 633.5 510.334 663 427 663 c 256
 343.667 663 272.5 633.5 213.5 574.5 c 128
 154.5 515.5 125 444.333 125 361 c 256
 125 277.667 154.5 206.5 213.5 147.5 c 128
 272.5 88.5 343.667 59 427 59 c 256
 510.333 59 581.666 88.5 641 147.5 c 128
 700.333 206.5 730 277.667 730 361 c 256
EndSplineSet
Fore
SplineSet
402 590 m 3xfd80
 496 590 576 551 576 463 c 3xfe80
 576 411 551 374 502 352 c 1
 526 335 544 311 557 281 c 0
 570 251 581 202 591 134 c 1
 532 134 l 1
 514 265 475 331 415 331 c 2
 340 331 l 1
 340 134 l 1
 278 134 l 1
 278 578 l 1
 324 586 365 590 402 590 c 3xfd80
520 459 m 259
 520 511 481 537 402 537 c 3
 377 537 356 536 340 534 c 1
 340 381 l 1
 411 381 l 2
 484 381 520 407 520 459 c 259
793 361 m 259
 793 162 627 -5 427 -5 c 259
 229 -5 62 163 62 361 c 259
 62 559 229 727 427 727 c 259
 625 727 793 559 793 361 c 259
730 361 m 259
 730 526 592 663 427 663 c 259
 263 663 125 525 125 361 c 259
 125 197 263 59 427 59 c 259
 592 59 730 196 730 361 c 259
EndSplineSet
Validated: 1
EndChar

StartChar: macron
Encoding: 175 175 113
Width: 565
VWidth: 1504
Flags: W
HStem: 794 80<119 668>
LayerCount: 2
Fore
SplineSet
668 794 m 1
 102 794 l 1
 119 874 l 1
 684 874 l 1
 668 794 l 1
EndSplineSet
Validated: 1
EndChar

StartChar: degree
Encoding: 176 176 114
Width: 416
VWidth: 1504
Flags: W
HStem: 463 48<198.835 310.019> 683 48<225.615 336.492>
VStem: 131 49<529.095 637.23> 355 50<556.77 664.905>
LayerCount: 2
Back
SplineSet
402 597 m 256
 394 559.667 374.167 528 342.5 502 c 128
 310.833 476 276.333 463 239 463 c 256
 201.667 463 172.834 476.167 152.5 502.5 c 128
 132.167 528.833 126 560.333 134 597 c 256
 142 634.333 161.833 666 193.5 692 c 128
 225.167 718 259.334 731 296 731 c 256
 333.333 731 362.333 718 383 692 c 128
 403.667 666 410 634.333 402 597 c 256
353 597 m 256
 358.331 620.333 354.164 640.5 340.5 657.5 c 128
 326.833 674.5 308.666 683 286 683 c 256
 262.667 683 240.834 674.5 220.5 657.5 c 128
 200.166 640.5 187.332 620.333 182 597 c 256
 176.667 573.667 180.834 553.5 194.5 536.5 c 128
 208.167 519.5 226.667 511 250 511 c 256
 273.333 511 295 519.5 315 536.5 c 128
 335 553.5 347.667 573.667 353 597 c 256
EndSplineSet
Fore
SplineSet
296 731 m 259
 357 731 405 689 405 627 c 3
 405 539 326 463 239 463 c 259
 179 463 131 505 131 567 c 3
 131 655 210 731 296 731 c 259
250 511 m 259
 304 511 355 561 355 616 c 3
 355 655 323 683 286 683 c 259
 232 683 180 633 180 578 c 3
 180 539 212 511 250 511 c 259
EndSplineSet
Validated: 1
EndChar

StartChar: plusminus
Encoding: 177 177 115
Width: 661
VWidth: 1504
Flags: W
HStem: 0 83<5 543> 326 83<81 287 399 605>
DStem2: 217.131 0 312.131 0 0.207912 0.978148<139.365 333.403 437.875 650.143>
LayerCount: 2
Fore
SplineSet
543 0 m 1
 -12 0 l 1
 5 83 l 1
 560 83 l 1
 543 0 l 1
605 326 m 1
 382 326 l 1
 337 117 l 1
 242 117 l 1
 287 326 l 1
 65 326 l 1
 81 409 l 1
 304 409 l 1
 352 636 l 1
 447 636 l 1
 399 409 l 1
 621 409 l 1
 605 326 l 1
EndSplineSet
Validated: 1
EndChar

StartChar: twosuperior
Encoding: 178 178 116
Width: 391
VWidth: 1504
Flags: W
HStem: 286 67<156 320> 657 68<220.934 315.236>
VStem: 319 75<564.381 653.124>
DStem2: 88 376 156 353 0.767701 0.640808<37.4651 311.136>
LayerCount: 2
Back
SplineSet
320 286 m 1
 35 286 l 1
 41 317.334 58.5 347.167 87.5 375.5 c 128
 116.5 403.833 147 431 179 457 c 128
 211 483 240.833 508.333 268.5 533 c 128
 296.167 557.667 312.334 581.667 317 605 c 0
 321 622.333 319 635.333 311 644 c 128
 303 652.667 291.667 657 277 657 c 0
 257.667 657 239 650 221 636 c 128
 203 622 190.667 601.667 184 575 c 1
 122 587 l 1
 137.333 632.333 159.5 666.666 188.5 690 c 128
 217.5 713.333 250.333 725 287 725 c 0
 325 725 353.667 714.167 373 692.5 c 128
 392.333 670.833 398 641.666 390 605 c 0
 384.667 583.667 373 560.5 355 535.5 c 128
 337 510.5 311 483.333 277 454 c 1
 156 353 l 1
 343 353 l 1
 320 286 l 1
EndSplineSet
Fore
SplineSet
287 725 m 3
 347 725 394 694 394 635 c 3
 394 626 392 616 390 605 c 0
 385 584 373 561 355 536 c 0
 337 511 311 483 277 454 c 2
 156 353 l 1
 343 353 l 1
 320 286 l 1
 35 286 l 1
 41 317 59 348 88 376 c 0
 144 430 211 482 268 533 c 0
 296 558 312 582 317 605 c 0
 318 611 319 616 319 621 c 3
 319 645 300 657 277 657 c 3
 229 657 195 618 184 575 c 1
 122 587 l 1
 147 661 198 725 287 725 c 3
EndSplineSet
Validated: 1
EndChar

StartChar: threesuperior
Encoding: 179 179 117
Width: 391
VWidth: 1504
Flags: W
HStem: 281 71<107.357 249.752> 659 68<217.779 312.897>
VStem: 300 73<400.735 488.442> 314 71<595.948 683.5>
LayerCount: 2
Back
SplineSet
370 442 m 0
 360 394 336 355.5 298 326.5 c 128
 260 297.5 213.667 282.333 159 281 c 1
 117.667 281 83.3337 293.667 56 319 c 1
 98 382 l 1
 110 370 122.5 362 135.5 358 c 128
 148.5 354 162 352 176 352 c 0
 208 352 235 360.333 257 377 c 128
 279 393.667 293 415 299 441 c 0
 302.329 458.333 299.662 471.333 291 480 c 128
 282.333 488.667 271 493 257 493 c 0
 245 493 232.5 490.833 219.5 486.5 c 128
 206.5 482.167 195.667 477 187 471 c 1
 171 516 l 1
 214.333 534 248 552.833 272 572.5 c 128
 296 592.167 309.667 610 313 626 c 0
 318.333 648 306.666 659 278 659 c 0
 260.666 659 242.833 653.167 224.5 641.501 c 128
 206.166 629.833 190.332 612.666 177 590 c 1
 128 618 l 1
 174 690 230 726.333 296 727 c 1
 365.333 727 394 697.333 382 638 c 1
 374 604 351 573 313 545 c 1
 362.333 529.667 381.333 495.334 370 442 c 0
EndSplineSet
Fore
SplineSet
278 659 m 3xd0
 232 659 197 624 177 590 c 1
 128 618 l 1
 174 690 230 727 296 727 c 3
 355 727 385 705 385 662 c 3xd0
 385 655 384 647 382 638 c 0
 374 604 351 573 313 545 c 1
 353 533 373 508 373 470 c 3
 373 461 372 452 370 442 c 0
 351 350 269 281 159 281 c 3
 118 281 83 294 56 319 c 1
 98 382 l 1
 118 362 140 352 176 352 c 3
 240 352 287 389 299 441 c 0
 300 446 300 450 300 454 c 3xe0
 300 479 281 493 257 493 c 3
 232 493 202 482 187 471 c 1
 171 516 l 1
 214 534 248 552 272 572 c 0
 299 594 314 611 314 636 c 3
 314 652 302 659 278 659 c 3xd0
EndSplineSet
Validated: 1
EndChar

StartChar: acute
Encoding: 180 180 118
Width: 389
VWidth: 1504
Flags: W
HStem: 551 173
VStem: 129 268
LayerCount: 2
Fore
SplineSet
200 551 m 1
 129 551 l 1
 280 724 l 1
 397 724 l 1
 200 551 l 1
EndSplineSet
Validated: 1
EndChar

StartChar: micro
Encoding: 181 181 119
Width: 622
VWidth: 1504
Flags: W
HStem: -14 85<171.32 318.726> 494 20G<108.813 208 491.803 591>
VStem: 412 94<7.40262 60>
DStem2: -39 -212 54 -212 0.207912 0.978148<19.3358 272.936 414.93 741.738> 342.514 -212 436.818 -212 0.207912 0.978148<357.183 742.047>
LayerCount: 2
Back
SplineSet
514 6 m 1
 420 -12 l 1
 416.667 -0.666667 414.5 10.6667 413.5 22 c 128
 412.5 33.3333 412 46 412 60 c 1
 378.667 38 346 20.1667 314 6.5 c 128
 282 -7.16667 248.667 -14 214 -14 c 0
 190.667 -14 169.5 -9.83333 150.5 -1.5 c 128
 131.5 6.83333 117 19.3333 107 36 c 1
 54 -212 l 1
 -39 -212 l 1
 113 514 l 1
 208 514 l 1
 150 241 l 1
 124.667 127.667 155.334 71.0003 242 71 c 0
 279.333 71 318 83.6667 358 109 c 128
 398 134.333 422.667 167.666 432 209 c 2
 496 514 l 1
 591 514 l 1
 511 137 l 2
 507 119 505.5 99 506.5 77 c 128
 507.5 55 510 31.3333 514 6 c 1
EndSplineSet
Fore
SplineSet
506 90 m 3
 506 61 509 36 514 6 c 1
 420 -12 l 1
 413 11 412 31 412 60 c 1
 356 23 294 -14 214 -14 c 3
 165 -14 126 5 107 36 c 1
 54 -212 l 1
 -39 -212 l 1
 113 514 l 1
 208 514 l 1
 150 241 l 2
 144 215 141 193 141 173 c 3
 141 105 175 71 242 71 c 3
 331 71 416 136 432 209 c 2
 496 514 l 1
 591 514 l 1
 511 137 l 2
 508 123 506 107 506 90 c 3
EndSplineSet
Validated: 1
EndChar

StartChar: paragraph
Encoding: 182 182 120
Width: 571
VWidth: 1504
Flags: W
HStem: 666 48<439 509.641>
DStem2: 224 -95 277 -95 0.207912 0.978148<11.0193 374.219> 349 -95 400 -95 0.207912 0.978148<10.6035 778.052>
LayerCount: 2
Back
SplineSet
400 -95 m 1
 349 -95 l 1
 511 666 l 1
 439 666 l 1
 277 -95 l 1
 224 -95 l 1
 302 271 l 1
 296 271 l 2
 236 271 186.167 289.833 146.5 327.5 c 128
 106.833 365.167 93.9997 417 108 483 c 0
 140 637.667 255.333 714.667 454 714 c 0
 507.333 714 546 711.667 570 707 c 1
 400 -95 l 1
EndSplineSet
Fore
SplineSet
103 434 m 3
 103 449 104 466 108 483 c 0
 140 638 255 714 454 714 c 3
 507 714 546 712 570 707 c 1
 400 -95 l 1
 349 -95 l 1
 511 666 l 1
 439 666 l 1
 277 -95 l 1
 224 -95 l 1
 302 271 l 1
 199 271 103 327 103 434 c 3
EndSplineSet
Validated: 1
EndChar

StartChar: periodcentered
Encoding: 183 183 121
Width: 258
VWidth: 1504
Flags: W
HStem: 202 144<78.0381 162.255>
VStem: 46 149<234.46 313.54>
LayerCount: 2
Back
SplineSet
193 274 m 256
 189 254 178.333 237 161 223 c 128
 143.667 209 125 202 105 202 c 256
 85 202 69.5 209 58.5 223 c 128
 47.5 237 44 254 48 274 c 256
 52 294 62.5 311 79.5 325 c 128
 96.5 339 115 346 135 346 c 256
 155 346 170.667 339 182 325 c 128
 193.334 311 197.001 294 193 274 c 256
EndSplineSet
Fore
SplineSet
195 289 m 3
 195 242 151 202 105 202 c 259
 72 202 46 225 46 259 c 3
 46 306 89 346 135 346 c 259
 168 346 195 323 195 289 c 3
EndSplineSet
Validated: 1
EndChar

StartChar: cedilla
Encoding: 184 184 122
Width: 374
VWidth: 1504
Flags: W
HStem: -239 52<-10.5476 120.288>
VStem: 130 72<-176.071 -103.502>
LayerCount: 2
Back
SplineSet
199 -135 m 1
 193 -167 177.333 -192.333 152 -211 c 128
 126.667 -229.667 95.0003 -239 57 -239 c 0
 43 -239 28.1667 -236.833 12.5 -232.5 c 128
 -3.16667 -228.167 -17.3333 -221.334 -30 -212 c 1
 0 -164 l 1
 12 -171.333 24.8333 -177 38.5 -181 c 128
 52.1667 -185 63 -187 71 -187 c 0
 103 -187 122.333 -171.667 129 -141 c 1
 134.333 -113 106.333 -93.6667 45 -83 c 1
 131 17 l 1
 196 17 l 1
 141 -42 l 1
 166.333 -50 183.666 -61.6667 193 -77 c 128
 202.333 -92.3333 204.333 -111.667 199 -135 c 1
EndSplineSet
Fore
SplineSet
141 -42 m 1
 177 -53 202 -71 202 -111 c 3
 202 -191 138 -239 57 -239 c 3
 23 -239 -9 -228 -30 -212 c 1
 0 -164 l 1
 17 -175 47 -187 71 -187 c 3
 102 -187 130 -169 130 -134 c 3
 130 -110 101 -93 45 -83 c 1
 131 17 l 1
 196 17 l 1
 141 -42 l 1
EndSplineSet
Validated: 1
EndChar

StartChar: onesuperior
Encoding: 185 185 123
Width: 391
VWidth: 1504
Flags: W
HStem: 293 59<122 187 260 311> 708 20G<266.514 305>
VStem: 110 221
DStem2: 146 617 171 566 0.798041 0.602603<0 81.8237> 174.459 293 247.459 293 0.207912 0.978148<75.4956 337.247>
LayerCount: 2
Back
SplineSet
311 293 m 1
 110 293 l 1
 122 352 l 1
 187 352 l 1
 244 623 l 1
 171 566 l 1
 146 617 l 1
 293 728 l 1
 308.333 728 319 723.167 325 713.5 c 128
 331 703.833 332.333 691.666 329 677 c 2
 260 352 l 1
 323 352 l 1
 311 293 l 1
EndSplineSet
Fore
SplineSet
293 728 m 1
 317 728 331 715 331 692 c 3
 331 687 330 682 329 677 c 2
 260 352 l 1
 323 352 l 1
 311 293 l 1
 110 293 l 1
 122 352 l 1
 187 352 l 1
 244 623 l 1
 171 566 l 1
 146 617 l 1
 293 728 l 1
EndSplineSet
Validated: 1
EndChar

StartChar: ordmasculine
Encoding: 186 186 124
Width: 442
VWidth: 1504
Flags: W
HStem: 349 66<176.913 315.563> 666 67<222.224 358.898>
VStem: 72 68<451.676 586.251> 397 68<497.19 626.668>
LayerCount: 2
Back
SplineSet
460 540 m 0
 448 486 419.5 440.667 374.5 404 c 128
 329.5 367.333 280.333 349 227 349 c 0
 173 349 131.5 367.333 102.5 404 c 128
 73.5 440.667 65 486 77 540 c 0
 88.3333 593.333 116.167 638.833 160.5 676.5 c 128
 204.833 714.167 254 733 308 733 c 0
 361.333 733 402.833 714.167 432.5 676.5 c 128
 462.167 638.833 471.334 593.333 460 540 c 0
394 540 m 256
 401.33 574 395.163 603.5 375.5 628.5 c 128
 355.833 653.5 329 666 295 666 c 256
 261 666 228.833 653.5 198.5 628.5 c 128
 168.167 603.5 149.667 574 143 540 c 256
 135.667 506 141.667 476.667 161 452 c 128
 180.333 427.333 207 415 241 415 c 256
 275 415 307.167 427.333 337.5 452 c 128
 367.834 476.667 386.667 506 394 540 c 256
EndSplineSet
Fore
SplineSet
308 733 m 3
 395 733 465 672 465 582 c 3
 465 457 349 349 227 349 c 3
 140 349 72 406 72 495 c 3
 72 621 183 733 308 733 c 3
241 415 m 259
 320 415 397 487 397 567 c 3
 397 625 350 666 295 666 c 259
 216 666 140 593 140 513 c 3
 140 456 186 415 241 415 c 259
EndSplineSet
Validated: 1
EndChar

StartChar: guillemotright
Encoding: 187 187 125
Width: 535
VWidth: 1504
Flags: W
DStem2: -6 71 83 71 0.730601 0.682805<65.0235 292.91> 168 472 80 472 0.539289 -0.842121<0 190.838> 176 71 268 71 0.738707 0.674027<67.961 293.757> 356 474 263 474 0.535542 -0.844509<0 192.939>
LayerCount: 2
Fore
SplineSet
83 71 m 1
 -6 71 l 1
 208 271 l 1
 80 472 l 1
 168 472 l 1
 298 269 l 1
 83 71 l 1
268 71 m 1
 176 71 l 1
 393 269 l 1
 263 474 l 1
 356 474 l 1
 481 269 l 1
 268 71 l 1
EndSplineSet
Validated: 1
EndChar

StartChar: onequarter
Encoding: 188 188 126
Width: 815
VWidth: 1504
Flags: W
HStem: 0 21G<93 184.121 554 636> 90 72<501 572 665 710> 265 58<71 135 209 260>
DStem2: 63.3684 -14 137.368 -14 0.207912 0.978148<359.914 612.447> 93 -14 168 -14 0.627564 0.778565<47.0673 933.142> 551.024 -14 629.024 -14 0.207912 0.978148<30.5299 106.088 195.851 361.853>
LayerCount: 2
Back
SplineSet
587 162 m 1
 626 340 l 1
 600.667 320 576.167 293.167 552.5 259.5 c 128
 528.833 225.833 511.666 193.333 501 162 c 1
 587 162 l 1
632 0 m 1
 554 0 l 1
 572 90 l 1
 408 90 l 1
 415.334 122 428.167 158.167 446.5 198.5 c 128
 464.833 238.833 487.833 276.833 515.5 312.5 c 128
 543.167 348.167 574.667 378.167 610 402.5 c 128
 645.333 426.834 683.666 439.667 725 441 c 1
 665 162 l 1
 728 162 l 1
 710 90 l 1
 650 90 l 1
 632 0 l 1
260 265 m 1
 59 265 l 1
 71 323 l 1
 135 323 l 1
 191 585 l 1
 123 535 l 1
 93 590 l 1
 244 701 l 1
 274 699 285.333 681.333 278 648 c 2
 209 323 l 1
 272 323 l 1
 260 265 l 1
168 -14 m 1
 93 -14 l 1
 678 713 l 1
 754 713 l 1
 168 -14 l 1
EndSplineSet
Fore
SplineSet
587 162 m 1
 626 340 l 1
 578 302 522 225 501 162 c 1
 587 162 l 1
632 0 m 1
 554 0 l 1
 572 90 l 1
 408 90 l 1
 426 168 470 253 516 312 c 0
 562 372 631 439 725 441 c 1
 665 162 l 1
 728 162 l 1
 710 90 l 1
 650 90 l 1
 632 0 l 1
260 265 m 1
 59 265 l 1
 71 323 l 1
 135 323 l 1
 191 585 l 1
 123 535 l 1
 93 590 l 1
 244 701 l 1
 268 699 280 688 280 666 c 3
 280 661 279 655 278 648 c 2
 209 323 l 1
 272 323 l 1
 260 265 l 1
168 -14 m 1
 93 -14 l 1
 678 713 l 1
 754 713 l 1
 168 -14 l 1
EndSplineSet
Validated: 1
LCarets2: 2 0 0
Ligature2: "'frac' Diagonal Fractions in Latin lookup 0 subtable" one fraction four
Ligature2: "'frac' Diagonal Fractions in Latin lookup 0 subtable" one slash four
EndChar

StartChar: onehalf
Encoding: 189 189 127
Width: 815
VWidth: 1504
Flags: W
HStem: -14 21G<93 184.121> 0 69<552 716> 265 58<71 135 209 260> 370 69<618.382 711.157>
VStem: 715 75<284.462 366.141>
DStem2: 63.3684 -14 137.368 -14 0.207912 0.978148<359.914 612.447> 93 -14 168 -14 0.627564 0.778565<47.0673 933.142>
LayerCount: 2
Back
SplineSet
716 0 m 1
 430 0 l 1
 441.334 38 461.167 71.5 489.5 100.5 c 128
 517.833 129.5 547.333 155.667 578 179 c 1
 591.996 190.996 606.496 202.83 621.5 214.5 c 128
 636.502 226.168 650.169 238.002 662.501 250 c 128
 674.833 262 685.5 273.667 694.5 285 c 128
 703.5 296.334 709.667 307.667 713.001 319 c 0
 716.333 333 714.666 345 708 355 c 128
 701.333 365 689.333 370 672 370 c 0
 630.667 370 600.667 343 582 289 c 1
 517 301 l 1
 531 346.334 552.833 380.667 582.5 404 c 128
 612.167 427.333 645.667 439 683 439 c 0
 721 439 749.833 428.5 769.5 407.5 c 128
 789.167 386.5 795 357 787 319 c 0
 781 293.667 768.5 270 749.5 248 c 128
 730.5 226 708.833 204.667 684.5 184 c 128
 660.167 163.333 636 143.5 612 124.5 c 128
 588 105.5 568 87 552 69 c 1
 739 69 l 1
 716 0 l 1
168 -14 m 1
 93 -14 l 1
 678 713 l 1
 754 713 l 1
 168 -14 l 1
260 265 m 1
 59 265 l 1
 71 323 l 1
 135 323 l 1
 191 585 l 1
 123 535 l 1
 93 590 l 1
 244 701 l 1
 274 699 285.333 681.333 278 648 c 2
 209 323 l 1
 272 323 l 1
 260 265 l 1
EndSplineSet
Fore
SplineSet
683 439 m 3x78
 744 439 790 410 790 350 c 3
 790 306 774 276 750 248 c 0
 712 204 659 161 612 124 c 0
 588 105 568 87 552 69 c 1
 739 69 l 1
 716 0 l 1
 430 0 l 1
 453 79 522 131 578 179 c 0
 618 213 662 245 694 285 c 0
 705 299 715 312 715 332 c 3
 715 357 698 370 672 370 c 3
 631 370 601 343 582 289 c 1
 517 301 l 1
 540 376 594 439 683 439 c 3x78
168 -14 m 1xb8
 93 -14 l 1
 678 713 l 1
 754 713 l 1
 168 -14 l 1xb8
260 265 m 1
 59 265 l 1
 71 323 l 1
 135 323 l 1
 191 585 l 1
 123 535 l 1
 93 590 l 1
 244 701 l 1
 268 699 280 688 280 666 c 3
 280 661 279 655 278 648 c 2
 209 323 l 1
 272 323 l 1
 260 265 l 1
EndSplineSet
Validated: 1
LCarets2: 2 0 0
Ligature2: "'frac' Diagonal Fractions in Latin lookup 0 subtable" one fraction two
Ligature2: "'frac' Diagonal Fractions in Latin lookup 0 subtable" one slash two
EndChar

StartChar: threequarters
Encoding: 190 190 128
Width: 815
VWidth: 1504
Flags: W
HStem: 0 21G<93 184.121 554 636> 90 72<501 572 665 710> 268 69<102.093 240.848> 645 63<208.478 298.308>
VStem: 291 73<386.014 476.694> 299 73<581.314 667.5>
DStem2: 93 -14 168 -14 0.627564 0.778565<47.0673 933.142> 551.024 -14 629.024 -14 0.207912 0.978148<30.5299 106.088 195.851 361.853>
LayerCount: 2
Back
SplineSet
587 162 m 1
 626 340 l 1
 600 314.667 575.333 286.5 552 255.5 c 128
 528.667 224.5 511.667 193.334 501 162 c 1
 587 162 l 1
632 0 m 1
 554 0 l 1
 572 90 l 1
 408 90 l 1
 418 127.333 432.167 166.333 450.5 207 c 128
 468.834 247.667 491.667 285.334 519 320 c 128
 546.333 354.667 577.166 383.167 611.5 405.5 c 128
 645.833 427.834 683.666 439.667 725 441 c 1
 665 162 l 1
 728 162 l 1
 710 90 l 1
 650 90 l 1
 632 0 l 1
168 -14 m 1
 93 -14 l 1
 678 713 l 1
 754 713 l 1
 168 -14 l 1
360 429 m 0
 354.667 403 344.667 379.833 330 359.5 c 128
 315.333 339.167 298.5 322.334 279.5 309 c 128
 260.5 295.667 239.5 285.5 216.5 278.5 c 128
 193.5 271.5 171 268 149 268 c 0
 107.667 268 73.0003 280.333 45 305 c 1
 89 370 l 1
 100.333 358.667 112.333 350.334 125 345 c 128
 137.667 339.667 151 337 165 337 c 0
 197 337 224.167 345.5 246.5 362.5 c 128
 268.833 379.5 283 401 289 427 c 0
 296.333 462.333 283.333 480 250 480 c 0
 224.667 480 199.333 471 174 453 c 1
 161 498 l 1
 210.333 521.333 244.5 542 263.5 560 c 128
 282.5 578 294.333 597 299 617 c 0
 300.324 625 298.657 631.667 294 637 c 128
 289.331 642.333 280.664 645 268 645 c 0
 228 645 193.667 620.667 165 572 c 1
 116 600 l 1
 162 672 218.667 708 286 708 c 0
 321.333 708 345.5 700 358.5 684 c 128
 371.5 668 375.333 649 370 627 c 0
 362.667 593 340.667 562 304 534 c 1
 330 530 347.333 518.5 356 499.5 c 128
 364.667 480.5 366 457 360 429 c 0
EndSplineSet
Fore
SplineSet
587 162 m 1xf0
 626 340 l 1
 578 302 522 225 501 162 c 1
 587 162 l 1xf0
632 0 m 1
 554 0 l 1
 572 90 l 1
 408 90 l 1
 426 168 470 253 516 312 c 0
 562 372 631 439 725 441 c 1
 665 162 l 1
 728 162 l 1
 710 90 l 1
 650 90 l 1
 632 0 l 1
168 -14 m 1
 93 -14 l 1
 678 713 l 1
 754 713 l 1
 168 -14 l 1
304 534 m 1
 343 528 364 504 364 461 c 3
 364 390 323 339 280 309 c 0
 247 286 200 268 149 268 c 3
 108 268 73 280 45 305 c 1
 89 370 l 1
 108 351 131 337 165 337 c 3
 229 337 277 375 289 427 c 0
 290 433 291 439 291 444 c 3xf8
 291 468 277 480 250 480 c 3
 225 480 199 471 174 453 c 1
 161 498 l 1
 210 521 245 542 264 560 c 0
 282 578 299 599 299 622 c 3
 299 639 287 645 268 645 c 3
 228 645 194 621 165 572 c 1
 116 600 l 1
 162 672 219 708 286 708 c 3
 337 708 372 690 372 645 c 3xf4
 372 639 372 633 370 627 c 0
 363 593 341 562 304 534 c 1
EndSplineSet
Validated: 1
LCarets2: 2 0 0
Ligature2: "'frac' Diagonal Fractions in Latin lookup 0 subtable" three fraction four
Ligature2: "'frac' Diagonal Fractions in Latin lookup 0 subtable" three slash four
EndChar

StartChar: questiondown
Encoding: 191 191 129
Width: 434
VWidth: 1504
Flags: W
HStem: -227 86<65.5313 219.722> 369 144<217.61 298.074>
VStem: -47 97<-123.004 -15.091> 186 145<402.104 480.905> 197 87<216.695 323>
LayerCount: 2
Back
SplineSet
295 -171 m 1
 227.667 -208.333 166 -227 110 -227 c 0
 52.6667 -227 10.1667 -211.667 -17.5 -181 c 128
 -45.1667 -150.333 -53.3334 -109.666 -42 -59 c 0
 -30.6667 -5.66667 15 55 95 123 c 0
 123 146.333 145 169.833 161 193.5 c 128
 177 217.167 187.667 239.334 193 260 c 0
 197 277.333 198 298.333 196 323 c 1
 281 323 l 1
 283 309 284 296.333 284 285 c 128
 284 273.667 283.667 264 283 256 c 1
 271 200.667 229.333 142.334 158 81 c 0
 96 27 61 -18.6667 53 -56 c 0
 41 -113.333 70 -141.666 140 -141 c 0
 183.333 -141 228 -126.667 274 -98 c 1
 295 -171 l 1
329 441 m 256
 325 421 314.5 404 297.5 390 c 128
 280.5 376 262.667 369 244 369 c 256
 224.667 369 209.5 376 198.5 390 c 128
 187.5 404 184 421 188 441 c 256
 192 461 202.5 478 219.5 492 c 128
 236.5 506 254.667 513 274 513 c 256
 293.333 513 308.333 506 319 492 c 128
 329.667 478 333 461 329 441 c 256
EndSplineSet
Fore
SplineSet
110 -227 m 3xe8
 21 -227 -47 -186 -47 -100 c 3
 -47 -87 -45 -74 -42 -59 c 0
 -31 -6 15 55 95 123 c 0
 139 160 179 204 193 260 c 0
 196 272 197 285 197 300 c 3
 197 307 197 315 196 323 c 1
 281 323 l 1
 283 309 284 296 284 285 c 3
 284 274 284 264 283 256 c 0
 271 201 229 142 158 81 c 0
 96 27 61 -19 53 -56 c 0
 51 -64 50 -72 50 -79 c 3
 50 -121 80 -141 140 -141 c 3
 183 -141 228 -127 274 -98 c 1
 295 -171 l 1
 228 -208 166 -227 110 -227 c 3xe8
331 457 m 3xf0
 331 411 289 369 244 369 c 259
 212 369 186 393 186 426 c 3
 186 473 228 513 274 513 c 259
 306 513 331 490 331 457 c 3xf0
EndSplineSet
Validated: 1
EndChar

StartChar: AE
Encoding: 198 198 136
Width: 876
VWidth: 1504
Flags: W
HStem: 0 83<520 769> 286 81<290 444> 340 83<540 808> 644 83<558 886>
DStem2: -81 0 21 0 0.598412 0.801189<61.038 417.041 516.047 818.846> 424 0 520 83 0.0675813 0.997714<89.298 286.698 429.872 429.872>
LayerCount: 2
Fore
SplineSet
769 0 m 1xb0
 424 0 l 1
 444 286 l 1
 233 286 l 1xd0
 21 0 l 1
 -81 0 l 1
 462 727 l 1
 904 727 l 1
 886 644 l 1
 558 644 l 1
 540 423 l 1
 824 423 l 1
 808 340 l 1
 537 340 l 1
 520 83 l 1
 785 83 l 1
 769 0 l 1xb0
448 367 m 1
 472 609 l 1
 290 367 l 1
 448 367 l 1
EndSplineSet
Validated: 1
EndChar

StartChar: Ccedilla
Encoding: 199 199 137
Width: 649
VWidth: 1504
Flags: W
HStem: -239 52<126.452 257.288> -11 82<307 472.634> 608 21G<621 660.533> 645 82<345.46 608.299>
VStem: 36 99<172.379 394.591> 267 72<-176.071 -103.502>
LayerCount: 2
Back
SplineSet
278 -42 m 1
 314 -53 339 -71 339 -111 c 3
 339 -191 275 -239 194 -239 c 3
 160 -239 128 -228 107 -212 c 1
 137 -164 l 1
 154 -175 184 -187 208 -187 c 3
 239 -187 267 -169 267 -134 c 3
 267 -110 238 -93 182 -83 c 1
 268 17 l 1
 333 17 l 1
 278 -42 l 1
558 38 m 1
 478 6 387 -11 286 -11 c 3
 130 -11 36 90 36 251 c 3
 36 458 174 727 471 727 c 3
 556 727 631 712 695 683 c 1
 648 608 l 1
 594 633 530 645 457 645 c 3
 219 645 135 405 135 279 c 3
 135 154 204 71 322 71 c 3
 405 71 481 86 549 116 c 1
 558 38 l 1
EndSplineSet
Fore
SplineSet
278 -42 m 1
 314 -53 339 -71 339 -111 c 3
 339 -191 275 -239 194 -239 c 3
 160 -239 128 -228 107 -212 c 1
 137 -164 l 1
 154 -175 184 -187 208 -187 c 3
 239 -187 267 -169 267 -134 c 3
 267 -110 238 -93 182 -83 c 1
 246 -9 l 1
 114 7 36 104 36 251 c 3
 36 458 174 727 471 727 c 3
 556 727 631 712 695 683 c 1
 648 608 l 1
 594 633 530 645 457 645 c 3
 219 645 135 405 135 279 c 3
 135 154 204 71 322 71 c 3
 405 71 481 86 549 116 c 1
 558 38 l 1
 484 8 400 -9 307 -11 c 1
 278 -42 l 1
EndSplineSet
Validated: 1
EndChar

StartChar: Eth
Encoding: 208 208 146
Width: 690
VWidth: 1504
Flags: W
HStem: -6 81<121.998 361.337> 310 81<30 74 187 409> 642 82<239.729 487.072>
VStem: 578 98<342.341 557.439>
DStem2: 7.81165 -6 101.72 -6 0.207912 0.978148<107.446 322.856 425.58 679.558>
LayerCount: 2
Back
SplineSet
663 373 m 0
 639.667 265 595 178.333 529 113 c 0
 449 33.6667 342.333 -5.99996 209 -6 c 0
 167.667 -6 101.667 -1 11 9 c 1
 74 310 l 1
 12 310 l 1
 30 391 l 1
 92 391 l 1
 158 704 l 1
 275.333 717.333 354 724 394 724 c 0
 516.667 724 599.334 687.333 642 614 c 1
 678 554.667 685 474.334 663 373 c 0
567 373 m 0
 605 552.333 540 642 372 642 c 0
 344 642 299.333 639 238 633 c 1
 187 391 l 1
 427 391 l 1
 409 310 l 1
 168 310 l 1
 120 80 l 1
 152 76.6667 193.333 75 244 75 c 0
 341.333 75 419.333 109.667 478 179 c 0
 521.333 230.333 551 295 567 373 c 0
EndSplineSet
Fore
SplineSet
663 373 m 0
 615 151 467 -6 209 -6 c 3
 168 -6 102 -1 11 9 c 1
 74 310 l 1
 12 310 l 1
 30 391 l 1
 92 391 l 1
 158 704 l 1
 275 717 354 724 394 724 c 3
 569 724 676 647 676 479 c 3
 676 447 671 411 663 373 c 0
567 373 m 0
 574 406 578 436 578 463 c 3
 578 582 509 642 372 642 c 3
 344 642 299 639 238 633 c 1
 187 391 l 1
 427 391 l 1
 409 310 l 1
 168 310 l 1
 120 80 l 1
 152 77 193 75 244 75 c 3
 427 75 533 208 567 373 c 0
EndSplineSet
Validated: 1
EndChar

StartChar: multiply
Encoding: 215 215 153
Width: 627
VWidth: 1504
Flags: W
HStem: -8 21G<16.4068 55.3184 442.202 482.085>
DStem2: -14 51 32 -8 0.759347 0.650686<0 339.073 438.959 778.791> 153 560 80 501 0.596208 -0.80283<3.8438 278.002 359.849 634.007>
LayerCount: 2
Back
SplineSet
531 51 m 1
 457 -8 l 1
 292 215 l 1
 250 179.667 206.667 142.5 162 103.5 c 128
 117.333 64.5 73.9997 27.3333 32 -8 c 1
 -14 51 l 1
 245 274 l 1
 217.641 311.369 190.308 349.202 163 387.499 c 128
 135.674 425.825 108.007 463.658 80 500.999 c 1
 153 560 l 1
 319 337 l 1
 361 373 404.5 410.333 449.5 449 c 128
 494.5 487.667 537.667 524.667 579 560 c 1
 626 501 l 1
 363 275 l 1
 531 51 l 1
EndSplineSet
Fore
SplineSet
319 337 m 1
 579 560 l 1
 626 501 l 1
 363 275 l 1
 531 51 l 1
 457 -8 l 1
 292 215 l 1
 32 -8 l 1
 -14 51 l 1
 245 274 l 1
 80 501 l 1
 153 560 l 1
 319 337 l 1
EndSplineSet
Validated: 1
EndChar

StartChar: Oslash
Encoding: 216 216 154
Width: 779
VWidth: 1504
Flags: W
HStem: -15 83<250.798 446.845> 648 82<358.045 552.787>
VStem: 38 94<175.939 399.599> 665 94<314.411 538.025>
DStem2: 65 -42 161 -42 0.587002 0.809586<56.3521 112.307 209.794 829.652 922.559 965.926>
LayerCount: 2
Back
SplineSet
749 356 m 256
 727 250.667 675.667 162.5 595 91.5 c 128
 514.333 20.5 422.333 -15 319 -15 c 0
 271.667 -15 230 -8 194 6 c 1
 161 -42 l 1
 65 -42 l 1
 128 47 l 1
 114 60.3333 101 75.3333 89 92 c 0
 39.6667 163.333 26 251.333 48 356 c 256
 70 461.333 121.333 550 202 622 c 128
 282.667 694 374.667 730 478 730 c 0
 527.333 730 570 721.667 606 705 c 1
 632 740 l 1
 728 740 l 1
 671 662 l 1
 684.333 650 696.333 636.333 707 621 c 0
 757 549.667 771 461.334 749 356 c 256
554 630 m 1
 526.667 642 495.334 648 460 648 c 0
 382.667 648 314.667 620.167 256 564.5 c 128
 197.333 508.833 159 440 141 358 c 0
 123.667 276 132.667 206.667 168 150 c 0
 173.333 140.667 179 132.667 185 126 c 1
 554 630 l 1
656 358 m 0
 674 440 665 508.667 629 564 c 0
 625 571.333 620.333 578 615 584 c 1
 250 83 l 1
 275.333 73 304.333 68 337 68 c 0
 414.333 68 482.5 95.8334 541.5 151.5 c 128
 600.5 207.167 638.667 276 656 358 c 0
EndSplineSet
Fore
SplineSet
128 47 m 1
 75 96 38 174 38 264 c 3
 38 293 41 324 48 356 c 256
 88 547 256 730 478 730 c 3
 527 730 570 722 606 705 c 1
 632 740 l 1
 728 740 l 1
 671 662 l 1
 724 614 759 535 759 448 c 3
 759 419 756 388 749 356 c 256
 709 166 540 -15 319 -15 c 3
 272 -15 230 -8 194 6 c 1
 161 -42 l 1
 65 -42 l 1
 128 47 l 1
554 630 m 1
 527 642 495 648 460 648 c 3
 291 648 173 503 141 358 c 0
 135 331 132 305 132 281 c 3
 132 222 152 163 185 126 c 1
 554 630 l 1
337 68 m 3
 506 68 625 212 656 358 c 0
 662 385 665 412 665 436 c 3
 665 494 646 547 615 584 c 1
 250 83 l 1
 275 73 304 68 337 68 c 3
EndSplineSet
Validated: 1
EndChar

StartChar: Thorn
Encoding: 222 222 160
Width: 592
VWidth: 1504
Flags: W
HStem: 0 21G<14 106.196> 137 78<150.868 350.167> 534 78<230.531 412.613> 696 20G<160.782 254>
VStem: 467 90<328.194 485.611>
DStem2: 14 0 102 0 0.207912 0.978148<18.2962 165.649 248.572 563.005 637.666 731.748>
LayerCount: 2
Back
SplineSet
549 375 m 1
 533 297.667 495.167 238.667 435.5 198 c 128
 375.833 157.333 300.333 137 209 137 c 0
 177 137 151.333 139 132 143 c 1
 102 0 l 1
 14 0 l 1
 165 716 l 1
 254 716 l 1
 230 606 l 1
 251.333 610 278 612 310 612 c 0
 401.333 612 468.333 591.833 511 551.5 c 128
 553.668 511.167 566.335 452.334 549 375 c 1
462 375 m 1
 485.333 481 430 534 296 534 c 0
 264.667 534 236.667 530 212 522 c 1
 150 227 l 1
 171.333 219 197.666 215 229 215 c 0
 362.333 215.667 440 269 462 375 c 1
EndSplineSet
Fore
SplineSet
549 375 m 0
 517 222 393 137 209 137 c 3
 177 137 151 139 132 143 c 1
 102 0 l 1
 14 0 l 1
 165 716 l 1
 254 716 l 1
 230 606 l 1
 251 610 278 612 310 612 c 3
 448 612 557 566 557 437 c 3
 557 418 554 397 549 375 c 0
462 375 m 0
 465 391 467 406 467 419 c 3
 467 496 410 534 296 534 c 3
 265 534 237 530 212 522 c 1
 150 227 l 1
 171 219 198 215 229 215 c 3
 362 215 440 269 462 375 c 0
EndSplineSet
Validated: 1
EndChar

StartChar: germandbls
Encoding: 223 223 161
Width: 639
VWidth: 1504
Flags: W
HStem: -14 83<241.448 398.717> 654 86<325.788 465.567>
VStem: 343 92<332.928 404.178> 447 90<117.615 225.124> 484 90<519.409 635.792>
DStem2: -6.94627 -215 83.0537 -215 0.207912 0.978148<56.6729 832.262>
LayerCount: 2
Back
SplineSet
534 164 m 0
 522 108.667 495.5 65.167 454.5 33.5 c 128
 413.5 1.83333 363.667 -14 305 -14 c 0
 279 -14 254.833 -10.6667 232.5 -4 c 128
 210.167 2.66667 188.667 12 168 24 c 1
 215 105 l 1
 255 81 291 69 323 69 c 256
 355 69 381.833 77.3333 403.5 94 c 128
 425.167 110.667 438.667 131 444 155 c 0
 449.333 177 446.166 196.5 434.5 213.5 c 128
 422.834 230.499 409.501 247.332 394.501 264 c 128
 379.5 280.667 366.333 298 355 316 c 128
 343.667 334 340.667 355 346 379 c 0
 349.333 392.334 357.5 406.667 370.5 422 c 128
 383.5 437.333 398 452.833 414 468.5 c 128
 430 484.167 444.5 499.167 457.5 513.5 c 128
 470.5 527.833 478.333 541.333 481 554 c 0
 495 621.333 466 654.666 394 654 c 0
 310 654 251.333 577 218 423 c 1
 116 -60 l 2
 110 -86 101 -112 89 -138 c 128
 77 -164 61.3333 -189.667 41.9999 -215 c 1
 -38 -193 l 1
 -18.6667 -167.667 -4.1667 -144.167 5.5 -122.5 c 128
 15.1667 -100.833 22 -79.9997 26 -60 c 2
 134 447 l 2
 175.333 642.333 271.666 740 423 740 c 0
 477 740 517.834 723.667 545.5 691 c 128
 573.167 658.333 581 613.666 569 557 c 0
 563.667 533.667 554 512.667 540 494 c 128
 526 475.333 511.667 458.5 497 443.5 c 128
 482.333 428.5 468.833 415.5 456.5 404.5 c 128
 444.167 393.5 437 383.667 435 375 c 0
 433 365 438.167 353.167 450.5 339.5 c 128
 462.833 325.833 475.833 310 489.5 292 c 128
 503.167 274 515.334 254.5 526 233.5 c 128
 536.683 212.5 539.35 189.333 534 164 c 0
EndSplineSet
Fore
SplineSet
423 740 m 3xe8
 510 740 574 693 574 605 c 3xe8
 574 559 561 522 540 494 c 0
 515 461 485 429 456 404 c 0
 443 392 435 383 435 371 c 3
 435 362 439 352 450 340 c 0
 477 311 506 273 526 234 c 0
 533 220 537 205 537 189 c 3
 537 181 536 172 534 164 c 0
 511 60 428 -14 305 -14 c 3
 248 -14 206 2 168 24 c 1
 215 105 l 1
 255 81 291 69 323 69 c 259
 385 69 433 106 444 155 c 0
 446 162 447 169 447 175 c 3xf0
 447 189 442 202 434 214 c 0
 411 248 377 281 355 316 c 0
 347 328 343 342 343 357 c 3
 343 386 352 401 370 422 c 0
 395 452 432 486 458 514 c 0
 478 536 484 552 484 584 c 3
 484 631 454 654 394 654 c 3
 310 654 251 577 218 423 c 2
 116 -60 l 2
 103 -120 76 -170 42 -215 c 1
 -38 -193 l 1
 -6 -151 15 -113 26 -60 c 2
 134 447 l 2
 175 642 272 740 423 740 c 3xe8
EndSplineSet
Validated: 1
EndChar

StartChar: ae
Encoding: 230 230 168
Width: 934
VWidth: 1504
Flags: W
HStem: -14 85<113.061 268.31 521.307 749.663> 241 79<486 803> 256 82<204.939 370> 454 78<166.109 358.986 587.135 753.003>
VStem: -1 102<84.1496 186.195> 803 87<321.446 405.25>
LayerCount: 2
Back
SplineSet
811 27 m 1
 737.667 -0.333334 665 -14 593 -14 c 0
 495 -14 426.667 21.3333 388 92 c 1
 336.667 22 258 -13.3333 152 -14 c 0
 126.667 -14 103.834 -10.3333 83.5 -3 c 128
 63.1667 4.33333 46 14.5 32 27.5 c 128
 18 40.5 8.33333 56.5 3 75.5 c 128
 -2.33333 94.5 -2.66666 116 2 140 c 0
 30 270.667 158.333 336.667 387 338 c 1
 393 372 387.667 399.833 371 421.5 c 128
 354.333 443.167 327 454 289 454 c 0
 257 454 194.667 441 102 415 c 1
 108 501 l 1
 183.333 522.333 251 532.666 311 532 c 0
 356.333 532 392.333 525.333 419 512 c 128
 445.667 498.667 464 475 474 441 c 1
 535.333 502.333 611.333 532.666 702 532 c 0
 856.667 532 916 435 880 241 c 1
 460 241 l 1
 452.667 185.667 463.167 143.5 491.5 114.5 c 128
 519.833 85.5 561 71 615 71 c 0
 673 71 741.667 84 821 110 c 1
 811 27 l 1
370 256 m 1
 284 254.666 219.833 245.332 177.5 228 c 128
 135.167 210.666 110.667 184.332 104 149 c 1
 98 123 101.667 103.167 115 89.5 c 128
 128.333 75.8333 147 69 171 69 c 0
 219 69 260.333 82.5 295 109.5 c 128
 329.667 136.5 352.334 174.333 363 223 c 2
 370 256 l 1
803 320 m 1
 804.333 357.333 794.666 389 774 415 c 128
 753.333 441 722 454 680 454 c 0
 636 454 597.167 442.333 563.5 419 c 128
 529.833 395.667 504 362.667 486 320 c 1
 803 320 l 1
EndSplineSet
Fore
SplineSet
458 209 m 3xdc
 458 117 522 71 615 71 c 3
 673 71 742 84 821 110 c 1
 811 27 l 1
 738 0 665 -14 593 -14 c 3
 495 -14 427 21 388 92 c 1
 337 22 258 -14 152 -14 c 3
 68 -14 -1 25 -1 108 c 3
 -1 118 0 129 2 140 c 0
 30 271 158 337 387 338 c 1xbc
 389 347 389 356 389 364 c 3
 389 423 350 454 289 454 c 3
 257 454 195 441 102 415 c 1
 108 501 l 1
 183 522 251 532 311 532 c 3
 401 532 454 510 474 441 c 1
 535 502 611 532 702 532 c 3
 827 532 890 468 890 340 c 3
 890 310 887 278 880 241 c 1
 460 241 l 1
 458 230 458 219 458 209 c 3xdc
101 127 m 3
 101 88 133 69 171 69 c 3
 275 69 344 134 363 223 c 2
 370 256 l 1
 236 254 101 228 101 127 c 3
680 454 m 3
 581 454 517 395 486 320 c 1
 803 320 l 1xdc
 803 400 762 454 680 454 c 3
EndSplineSet
Validated: 1
EndChar

StartChar: ccedilla
Encoding: 231 231 169
Width: 521
VWidth: 1504
Flags: W
HStem: -239 52<63.4524 194.288> -14 80<241 360.736> 451 80<246.795 433.655>
VStem: 19 98<123.106 306.796> 204 72<-176.071 -103.502>
LayerCount: 2
Back
SplineSet
215 -42 m 1
 251 -53 276 -71 276 -111 c 3
 276 -191 212 -239 131 -239 c 3
 97 -239 65 -228 44 -212 c 1
 74 -164 l 1
 91 -175 121 -187 145 -187 c 3
 176 -187 204 -169 204 -134 c 3
 204 -110 175 -93 119 -83 c 1
 205 17 l 1
 270 17 l 1
 215 -42 l 1
117 204 m 3
 117 118 169 66 253 66 c 3
 303 66 355 81 408 110 c 1
 424 32 l 1
 370 2 308 -14 239 -14 c 3
 109 -14 19 60 19 190 c 3
 19 360 149 531 355 531 c 3
 423 531 478 516 520 486 c 1
 471 408 l 1
 430 437 384 451 334 451 c 3
 206 451 117 329 117 204 c 3
EndSplineSet
Fore
SplineSet
117 204 m 3
 117 118 169 66 253 66 c 3
 303 66 355 81 408 110 c 1
 424 32 l 1
 371 2 309 -14 241 -14 c 1
 215 -42 l 1
 251 -53 276 -71 276 -111 c 3
 276 -191 212 -239 131 -239 c 3
 97 -239 65 -228 44 -212 c 1
 74 -164 l 1
 91 -175 121 -187 145 -187 c 3
 176 -187 204 -169 204 -134 c 3
 204 -110 175 -93 119 -83 c 1
 183 -9 l 1
 84 10 19 80 19 190 c 3
 19 360 149 531 355 531 c 3
 423 531 478 516 520 486 c 1
 471 408 l 1
 430 437 384 451 334 451 c 3
 206 451 117 329 117 204 c 3
EndSplineSet
Validated: 1
EndChar

StartChar: eth
Encoding: 240 240 178
Width: 568
VWidth: 1504
Flags: W
HStem: -24 84<160.529 291.837> 367 81<213.674 349.871> 644 75<184.573 214.729>
VStem: 26 89<108.387 258.735> 394 115<206.802 388.5>
DStem2: 125 537 152 471 0.907201 0.420697<0 147.648 287.068 412.786>
LayerCount: 2
Back
SplineSet
498 245 m 0
 480.667 163.667 444 98.5003 388 49.5 c 128
 332 0.5 269 -24 199 -24 c 0
 135.667 -24 88.5003 -1.16667 57.5 44.5 c 128
 26.5 90.1666 18.3333 146.667 33 214 c 0
 47 280 79.3333 335.5 130 380.5 c 128
 180.667 425.5 236 448 296 448 c 256
 356 448 397.333 432 420 400 c 1
 406.667 450 374.334 499.333 323 548 c 0
 321.667 549.333 320.667 549.666 320 549 c 2
 152 471 l 1
 125 537 l 1
 259 599 l 1
 227 619 194.333 634 161 644 c 1
 187 719 l 1
 254.333 705 312 680.333 360 645 c 1
 511 716 l 1
 529 647 l 1
 415 594 l 1
 498.333 494 526 377.667 498 245 c 0
390 214 m 0
 399.333 257.334 393.5 293.667 372.5 323 c 128
 351.5 352.333 322 367 284 367 c 0
 248 367 213.667 351.5 181 320.5 c 128
 148.333 289.5 128 254 120 214 c 1
 110.667 174 115.834 138.333 135.5 107 c 128
 155.167 75.6667 183.334 60 220 60 c 0
 258 60 293.5 75.1667 326.5 105.5 c 128
 359.5 135.833 380.667 172 390 214 c 0
EndSplineSet
Fore
SplineSet
509 342 m 3
 509 145 387 -24 199 -24 c 3
 97 -24 26 46 26 152 c 3
 26 171 28 192 33 214 c 0
 57 329 164 448 296 448 c 259
 356 448 397 432 420 400 c 1
 407 450 374 499 323 548 c 1
 152 471 l 1
 125 537 l 1
 259 599 l 1
 227 619 194 634 161 644 c 1
 187 719 l 1
 254 705 312 680 360 645 c 1
 511 716 l 1
 529 647 l 1
 415 594 l 1
 477 519 509 435 509 342 c 3
394 252 m 3
 394 319 347 367 284 367 c 3
 205 367 134 283 120 214 c 0
 117 201 115 189 115 177 c 3
 115 113 161 60 220 60 c 3
 305 60 374 141 390 214 c 0
 393 227 394 240 394 252 c 3
EndSplineSet
Validated: 1
EndChar

StartChar: divide
Encoding: 247 247 185
Width: 627
VWidth: 1504
Flags: W
HStem: 12 144<228.113 306.718> 236 81<39 572> 399 144<307.61 390.39>
VStem: 194 146<46.0532 122.316> 276 146<431.095 510.905>
LayerCount: 2
Back
SplineSet
572 236 m 1
 23 236 l 1
 39 317 l 1
 588 317 l 1
 572 236 l 1
337 84 m 1
 333 64 322.5 47 305.5 33 c 128
 288.5 19 270.333 12 251 12 c 256
 231.667 12 216.667 19 206 33 c 128
 195.332 47 191.999 64 196 84 c 1
 201.333 104 212.333 121 229 135 c 128
 245.667 149 263.667 156 283 156 c 256
 302.333 156 317.5 149 328.5 135 c 128
 339.5 121 342.333 104 337 84 c 1
420 471 m 256
 416 451 405.5 434 388.5 420 c 128
 371.5 406 353.333 399 334 399 c 256
 314.667 399 299.5 406 288.5 420 c 128
 277.5 434 274 451 278 471 c 256
 282 491 292.5 508 309.5 522 c 128
 326.5 536 344.667 543 364 543 c 256
 383.333 543 398.5 536 409.5 522 c 128
 420.5 508 424 491 420 471 c 256
EndSplineSet
Fore
SplineSet
572 236 m 1xe0
 23 236 l 1
 39 317 l 1
 588 317 l 1
 572 236 l 1xe0
340 103 m 3xf0
 340 55 298 12 251 12 c 259
 219 12 194 35 194 68 c 3
 194 114 238 156 283 156 c 259
 313 156 340 135 340 103 c 3xf0
422 486 m 3xe8
 422 439 380 399 334 399 c 259
 302 399 276 423 276 456 c 3
 276 503 318 543 364 543 c 259
 396 543 422 519 422 486 c 3xe8
EndSplineSet
Validated: 1
EndChar

StartChar: oslash
Encoding: 248 248 186
Width: 619
VWidth: 1504
Flags: W
HStem: -12 80<205.472 344.393> 450 81<251.614 377.654>
VStem: 20 95<128.922 306.388> 481 95<211.499 385.499>
DStem2: 84 42 120 -42 0.589586 0.807706<-46.6222 3.21729 97.9942 498.844 600.171 652.651>
LayerCount: 2
Back
SplineSet
569 259 m 256
 553 183 513.833 118.833 451.5 66.5 c 128
 389.167 14.1667 319 -12 241 -12 c 0
 207.667 -12 178 -7.33333 152 2 c 1
 120 -42 l 1
 24 -42 l 1
 84 42 l 1
 76 49.3333 69 57.3333 63 66 c 0
 23 118 11 182.333 27 259 c 256
 43 335 82.3333 399.333 145 452 c 128
 207.667 504.667 278 531 356 531 c 0
 384 531 409.667 527.333 433 520 c 1
 469 569 l 1
 566 569 l 1
 504 483 l 1
 514 473.667 523.333 463 532 451 c 0
 572.667 399 585 335 569 259 c 256
475 259 m 0
 487 313 480 358 454 394 c 0
 450.667 398 448.334 401.667 447 405 c 1
 205 75 l 1
 221 69.6667 238.333 67.3334 257 68 c 0
 309 68 355.5 86.3334 396.5 123 c 128
 437.5 159.667 463.667 205 475 259 c 0
378 445 m 1
 366 448.333 352.667 450 338 450 c 0
 286 450 239.667 431.667 199 395 c 128
 158.333 358.333 132 313 120 259 c 0
 108.667 205 115.667 159.333 141 122 c 1
 143 120 l 1
 378 445 l 1
EndSplineSet
Fore
SplineSet
504 483 m 1
 544 445 576 387 576 321 c 3
 576 301 574 280 569 259 c 256
 539 118 407 -12 241 -12 c 3
 208 -12 178 -7 152 2 c 1
 120 -42 l 1
 24 -42 l 1
 84 42 l 1
 45 77 20 135 20 196 c 3
 20 216 22 237 27 259 c 256
 57 399 191 531 356 531 c 3
 384 531 410 527 433 520 c 1
 469 569 l 1
 566 569 l 1
 504 483 l 1
257 68 m 3
 369 68 455 162 475 259 c 0
 479 276 481 292 481 307 c 3
 481 350 466 377 447 405 c 1
 205 75 l 1
 221 70 238 68 257 68 c 3
378 445 m 1
 366 448 353 450 338 450 c 3
 225 450 141 356 120 259 c 0
 116 242 115 226 115 211 c 3
 115 177 123 148 141 122 c 1
 143 120 l 1
 378 445 l 1
EndSplineSet
Validated: 1
EndChar

StartChar: thorn
Encoding: 254 254 192
Width: 658
VWidth: 1504
Flags: W
HStem: -14 83<207.717 380.966> 454 78<286.897 453.645> 696 20G<163.773 257>
VStem: 513 90<220.056 394.417>
DStem2: -26 -202 62 -202 0.207912 0.978148<18.2962 273.645 414.671 611.345 697.102 938.274>
LayerCount: 2
Back
SplineSet
596 269 m 0
 578 185 538.667 116.833 478 64.5 c 128
 417.333 12.1667 347.666 -14 269 -14 c 0
 201.667 -14 150 6.66667 114 48 c 1
 62 -202 l 1
 -26 -202 l 1
 168 716 l 1
 257 716 l 1
 203 462 l 1
 263 509.333 328.667 532.666 400 532 c 0
 473.334 532 528.334 507.167 565 457.5 c 128
 601.667 407.833 612 345 596 269 c 0
507 268 m 0
 519 322 512.667 366.5 488 401.5 c 128
 463.333 436.5 425.666 454 375 454 c 0
 327.667 454 283.667 439.333 243 410 c 128
 202.333 380.667 177 342.334 167 295 c 2
 149 209 l 2
 141 171 151.333 138.167 180 110.5 c 128
 208.667 82.8333 245.334 69 290 69 c 0
 342 69 387.833 86.6667 427.5 122 c 128
 467.167 157.333 493.667 206 507 268 c 0
EndSplineSet
Fore
SplineSet
596 269 m 0
 564 119 443 -14 269 -14 c 3
 202 -14 150 7 114 48 c 1
 62 -202 l 1
 -26 -202 l 1
 168 716 l 1
 257 716 l 1
 203 462 l 1
 263 509 329 532 400 532 c 3
 519 532 603 457 603 335 c 3
 603 314 601 292 596 269 c 0
146 185 m 3
 146 114 219 69 290 69 c 3
 409 69 484 162 507 268 c 0
 511 286 513 302 513 318 c 3
 513 402 456 454 375 454 c 3
 274 454 185 382 167 295 c 2
 149 209 l 2
 147 201 146 193 146 185 c 3
EndSplineSet
Validated: 1
EndChar

StartChar: dotlessi
Encoding: 305 305 194
Width: 245
VWidth: 1504
Flags: W
HStem: 0 21G<9 108.227> 491 20G<112.773 212>
VStem: 9 203
DStem2: 9 0 104 0 0.207912 0.978148<19.7516 522.288>
LayerCount: 2
Fore
SplineSet
104 0 m 1
 9 0 l 1
 117 511 l 1
 212 511 l 1
 104 0 l 1
EndSplineSet
Validated: 1
EndChar

StartChar: Lslash
Encoding: 321 321 195
Width: 540
VWidth: 1504
Flags: W
HStem: 0 81<120 454> 696 20G<156.689 256>
DStem2: 9 0 102.783 0 0.207912 0.978148<102.308 228.877 367.291 731.956> 30 307 56 224 0.975495 0.220022<0 7.10106 149.683 473.393>
LayerCount: 2
Fore
SplineSet
454 0 m 1
 9 0 l 1
 56 224 l 1
 11 214 l 1
 30 307 l 1
 75 317 l 1
 161 716 l 1
 256 716 l 1
 176 340 l 1
 531 420 l 1
 511 326 l 1
 155 247 l 1
 120 81 l 1
 471 81 l 1
 454 0 l 1
EndSplineSet
Validated: 1
EndChar

StartChar: lslash
Encoding: 322 322 196
Width: 326
VWidth: 1504
Flags: W
HStem: -12 86<190.516 234.279>
VStem: 55 97<109.64 312.719>
DStem2: 7.54695 -12 102.083 -12 0.207912 0.978148<226.905 375.291 507.213 787.157> 35 418 86 355 0.962995 0.269518<0 32.1332 174.451 291.055>
LayerCount: 2
Back
SplineSet
260 74 m 1
 232 -12 l 1
 84.6667 -4 29.3334 87.6667 66 263 c 1
 86 355 l 1
 17 337 l 1
 35 418 l 1
 102 436 l 1
 171 758 l 1
 266 758 l 1
 203 465 l 1
 352 507 l 1
 335 426 l 1
 187 384 l 1
 165 284 l 2
 147.667 206.667 148.334 152 167 120 c 1
 181.667 93.3333 212.667 78 260 74 c 1
EndSplineSet
Fore
SplineSet
152 188 m 3
 152 111 184 80 260 74 c 1
 232 -12 l 1
 114 -6 55 54 55 168 c 3
 55 196 59 228 66 263 c 2
 86 355 l 1
 17 337 l 1
 35 418 l 1
 102 436 l 1
 171 758 l 1
 266 758 l 1
 203 465 l 1
 352 507 l 1
 335 426 l 1
 187 384 l 1
 165 284 l 2
 157 247 152 215 152 188 c 3
EndSplineSet
Validated: 1
EndChar

StartChar: OE
Encoding: 338 338 197
Width: 1087
VWidth: 1504
Flags: W
HStem: -15 81<270.642 483.893> 0 81<669 984> 337 81<742 1018> 635 81<787 1118> 648 83<384.378 595.982>
VStem: 39 98<200.459 403.51>
DStem2: 554.653 -15 648.595 -15 0.207912 0.978148<149.091 379.517 462.49 600.69>
LayerCount: 2
Back
SplineSet
984 0 m 1
 558 0 l 1
 566 41 l 1
 498 3.66667 425.667 -15 349 -15 c 0
 237.667 -15 154.167 20.6667 98.5 92 c 128
 42.8333 163.333 26 252 48 358 c 0
 70 463.334 124.333 551.834 211 623.5 c 128
 297.667 695.167 396.667 731 508 731 c 0
 584 731 648.333 712 701 674 c 1
 710 716 l 1
 1136 716 l 1
 1118 635 l 1
 787 635 l 1
 742 418 l 1
 1036 418 l 1
 1018 337 l 1
 724 337 l 1
 669 81 l 1
 1000 81 l 1
 984 0 l 1
591 156 m 1
 675 555 l 1
 637 617 575.333 648 490 648 c 0
 414 648 341.167 618.667 271.5 560 c 128
 201.833 501.333 159 434 143 358 c 0
 127 280 141 211.833 185 153.5 c 128
 229 95.1666 289.667 65.9999 367 66 c 0
 452.333 66 527 96 591 156 c 1
EndSplineSet
Fore
SplineSet
984 0 m 1x74
 558 0 l 1x74
 566 41 l 1
 498 4 426 -15 349 -15 c 3
 170 -15 39 92 39 272 c 3
 39 299 42 328 48 358 c 0
 89 555 275 731 508 731 c 3xac
 584 731 648 712 701 674 c 1
 710 716 l 1
 1136 716 l 1
 1118 635 l 1
 787 635 l 1
 742 418 l 1
 1036 418 l 1
 1018 337 l 1
 724 337 l 1
 669 81 l 1
 1000 81 l 1
 984 0 l 1x74
591 156 m 1
 675 555 l 1
 637 617 575 648 490 648 c 3
 329 648 172 495 143 358 c 0
 139 337 137 317 137 298 c 3
 137 165 240 66 367 66 c 3xac
 452 66 527 96 591 156 c 1
EndSplineSet
Validated: 1
EndChar

StartChar: oe
Encoding: 339 339 198
Width: 1036
VWidth: 1504
Flags: W
HStem: -14 85<172.876 353.095 627.596 851.021> 241 79<588 906> 450 81<251.614 418.196 694.974 862.074>
VStem: 20 95<130.278 306.388> 481 82<207 308> 907 87<321.156 403.443>
LayerCount: 2
Back
SplineSet
922 110 m 1
 915 27 l 1
 837 -0.333334 764.667 -14 698 -14 c 0
 596.666 -14 525.333 23.3333 484 98 c 1
 416 24.6667 335 -12 241 -12 c 0
 163 -12 103.833 14 63.5 66 c 128
 23.1667 118 11 182.333 27 259 c 256
 43 335 82.3333 399.333 145 452 c 128
 207.667 504.667 278 531 356 531 c 0
 453.334 531 519.334 492.333 554 415 c 1
 631.333 492.333 716 531 808 531 c 0
 962.667 531 1020.67 434.333 982 241 c 1
 566 241 l 1
 558 187.667 568 146 596 116 c 128
 624 86 665.667 71 721 71 c 256
 775.667 71 842.667 84 922 110 c 1
475 259 m 0
 487 313 480.333 358.333 455 395 c 128
 429.667 431.667 390.667 450 338 450 c 256
 286 450 239.667 431.667 199 395 c 128
 158.333 358.333 132 313 120 259 c 0
 108.667 205 115.667 159.667 141 123 c 128
 166.333 86.3333 205 68 257 68 c 256
 309 68 355.5 86.3334 396.5 123 c 128
 437.5 159.667 463.667 205 475 259 c 0
588 320 m 1
 906 320 l 1
 909.333 360 899.5 392.167 876.5 416.5 c 128
 853.5 440.833 821.667 453 781 453 c 0
 741 453 702.667 440.667 666 416 c 128
 629.333 391.333 603.333 359.333 588 320 c 1
EndSplineSet
Fore
SplineSet
563 207 m 3
 563 116 629 71 721 71 c 259
 776 71 843 84 922 110 c 1
 915 27 l 1
 837 0 765 -14 698 -14 c 3
 597 -14 525 23 484 98 c 1
 416 25 335 -12 241 -12 c 3
 115 -12 20 69 20 197 c 3
 20 217 22 237 27 259 c 256
 57 399 191 531 356 531 c 3
 453 531 519 492 554 415 c 1
 631 492 716 531 808 531 c 3
 932 531 994 469 994 345 c 3
 994 314 990 280 982 241 c 1
 566 241 l 1
 564 229 563 218 563 207 c 3
115 211 m 3
 115 124 172 68 257 68 c 259
 369 68 455 162 475 259 c 0
 479 276 481 292 481 308 c 3
 481 394 422 450 338 450 c 259
 225 450 141 356 120 259 c 0
 116 242 115 226 115 211 c 3
907 335 m 3
 907 408 854 453 781 453 c 3
 691 453 615 388 588 320 c 1
 906 320 l 1
 906 325 907 330 907 335 c 3
EndSplineSet
Validated: 1
EndChar

StartChar: florin
Encoding: 402 402 204
Width: 607
VWidth: 1504
Flags: W
HStem: -104 83<-84.1643 68.5406> -20 20G<-83.7576 -57> 382 78<224 272 399 505> 645 83<514.774 663.187>
DStem2: 171 147 260 140 0.397531 0.917589<-137.051 255.784 377.842 519.592>
LayerCount: 2
Back
SplineSet
505 382 m 1
 364 382 l 1
 260 140 l 2
 190.667 -22.6667 94.0003 -104 -30 -104 c 0
 -69.3333 -104 -99.3333 -91.3333 -120 -66 c 1
 -68 0 l 1
 -46 -14 -22.6667 -21 2 -21 c 0
 67.3333 -21 123.667 35 171 147 c 1
 272 382 l 1
 191 382 l 1
 224 460 l 1
 308 460 l 1
 317 484 l 1
 354.333 562 397.333 622.167 446 664.5 c 128
 494.667 706.833 549 728 609 728 c 0
 648.333 728 678.333 715.333 699 690 c 1
 647 624 l 1
 625.667 638 602.667 645 578 645 c 0
 512 645 454.667 589 406 477 c 1
 399 460 l 1
 539 460 l 1
 505 382 l 1
EndSplineSet
Fore
SplineSet
505 382 m 1
 364 382 l 1
 260 140 l 2
 191 -23 94 -104 -30 -104 c 3
 -69 -104 -99 -91 -120 -66 c 1
 -68 0 l 1
 -46 -14 -23 -21 2 -21 c 3
 67 -21 124 35 171 147 c 1
 272 382 l 1
 191 382 l 1
 224 460 l 1
 308 460 l 1
 317 484 l 2
 351 573 459 728 609 728 c 3
 648 728 678 715 699 690 c 1
 647 624 l 1
 626 638 603 645 578 645 c 3
 512 645 453 590 406 477 c 2
 399 460 l 1
 539 460 l 1
 505 382 l 1
EndSplineSet
Validated: 1
EndChar

StartChar: circumflex
Encoding: 710 710 205
Width: 327
VWidth: 1504
Flags: W
HStem: 579 173<229 232>
VStem: 77 286
LayerCount: 2
Fore
SplineSet
363 579 m 1
 281 579 l 1
 242 686 l 1
 159 579 l 1
 77 579 l 1
 232 752 l 1
 284 752 l 1
 363 579 l 1
EndSplineSet
Validated: 1
EndChar

StartChar: caron
Encoding: 711 711 206
Width: 463
VWidth: 1504
Flags: W
HStem: 579 173<260 263>
VStem: 182 286
LayerCount: 2
Fore
SplineSet
313 579 m 1
 260 579 l 1
 182 752 l 1
 263 752 l 1
 302 645 l 1
 385 752 l 1
 468 752 l 1
 313 579 l 1
EndSplineSet
Validated: 1
EndChar

StartChar: breve
Encoding: 728 728 207
Width: 514
VWidth: 1504
Flags: W
HStem: 570 72<274.585 389.092>
VStem: 170 81<667.031 739>
LayerCount: 2
Back
SplineSet
525 739 m 1
 503 681.667 474 639.167 438 611.5 c 128
 402 583.833 359.667 570 311 570 c 256
 263 570 227 583.833 203 611.5 c 128
 179 639.167 168 681.667 170 739 c 1
 251 739 l 1
 251 713.667 256.5 691.167 267.5 671.5 c 128
 278.5 651.833 298 642 326 642 c 256
 354 642 378.333 651.833 399 671.5 c 128
 419.667 691.167 435 713.667 445 739 c 1
 525 739 l 1
EndSplineSet
Fore
SplineSet
326 642 m 259
 386 642 427 694 445 739 c 1
 525 739 l 1
 489 644 428 570 311 570 c 259
 206 570 170 631 170 739 c 1
 251 739 l 1
 251 688 272 642 326 642 c 259
EndSplineSet
Validated: 1
EndChar

StartChar: dotaccent
Encoding: 729 729 208
Width: 290
VWidth: 1504
Flags: W
HStem: 754 132<213.717 291.924>
VStem: 185 134<780.829 856.776>
LayerCount: 2
Back
SplineSet
317 820 m 0
 313 800.661 303.333 784.828 288 772.5 c 128
 272.667 760.167 256.334 754 239 754 c 256
 221.667 754 207.667 760.167 197 772.5 c 128
 186.332 784.833 182.999 800.666 187 820 c 0
 191 838 201.167 853.5 217.5 866.5 c 128
 233.833 879.5 250.666 886 268 886 c 0
 285.333 886 298.833 879.5 308.5 866.5 c 128
 318.167 853.5 321 838 317 820 c 0
EndSplineSet
Fore
SplineSet
319 835 m 3
 319 791 281 754 239 754 c 259
 210 754 185 774 185 805 c 3
 185 848 226 886 268 886 c 259
 296 886 319 865 319 835 c 3
EndSplineSet
Validated: 1
EndChar

StartChar: ring
Encoding: 730 730 209
Width: 400
VWidth: 1504
Flags: W
HStem: 578 61<229.304 317.905> 755 63<243.34 333.96>
VStem: 158 64<646.178 734.076> 340 65<661.954 747.849>
LayerCount: 2
Back
SplineSet
402 698 m 256
 394.667 664.664 376.667 636.33 348 613 c 128
 319.333 589.667 288.666 578 256 578 c 256
 222.667 578 196.667 589.667 178 613 c 128
 159.333 636.333 153.666 664.666 161 698 c 256
 168.333 731.333 186.166 759.666 214.5 783 c 128
 242.833 806.333 273.666 818 307 818 c 256
 340.333 818 366.333 806.333 385 783 c 128
 403.667 759.661 409.334 731.328 402 698 c 256
338 698 m 0
 342 714 339.5 727.5 330.5 738.5 c 128
 321.5 749.5 309 755 293 755 c 256
 277 755 262.333 749.5 249 738.5 c 128
 235.667 727.5 227 714 223 698 c 0
 219.667 682 222.5 668.167 231.5 656.5 c 128
 240.5 644.833 253 639 269 639 c 256
 285 639 299.667 644.833 313 656.5 c 128
 326.335 668.167 334.668 682 338 698 c 0
EndSplineSet
Fore
SplineSet
405 725 m 3
 405 647 333 578 256 578 c 259
 202 578 158 615 158 671 c 3
 158 750 229 818 307 818 c 259
 361 818 405 781 405 725 c 3
269 639 m 259
 307 639 340 674 340 712 c 3
 340 738 318 755 293 755 c 259
 256 755 222 723 222 686 c 3
 222 659 243 639 269 639 c 259
EndSplineSet
Validated: 1
EndChar

StartChar: ogonek
Encoding: 731 731 210
Width: 383
VWidth: 1504
Flags: W
HStem: -230 84<47.5 185.477>
VStem: -14 90<-171.605 -53.9621>
LayerCount: 2
Back
SplineSet
194 -205 m 1
 148.667 -222.333 110 -230.666 78 -230 c 0
 38.6667 -230 12.5 -218.5 -0.5 -195.5 c 128
 -13.5 -172.5 -17 -145.333 -11 -114 c 0
 -7 -94.6667 0.333333 -73.1667 11 -49.5 c 128
 21.6667 -25.8333 34 0.333366 48 29 c 1
 137 29 l 1
 103.667 -24.3333 84.0003 -65 78 -93 c 1
 72 -125 82.6667 -142.667 110 -146 c 1
 121.333 -146 136.166 -143.167 154.5 -137.5 c 128
 172.833 -131.834 192 -125.001 212 -117 c 1
 194 -205 l 1
EndSplineSet
Fore
SplineSet
78 -230 m 3
 17 -230 -14 -199 -14 -142 c 3
 -14 -84 23 -23 48 29 c 1
 137 29 l 1
 101 -29 76 -76 76 -109 c 3
 76 -131 88 -146 110 -146 c 3
 143 -146 183 -129 212 -117 c 1
 194 -205 l 1
 149 -222 110 -230 78 -230 c 3
EndSplineSet
Validated: 1
EndChar

StartChar: tilde
Encoding: 732 732 211
Width: 389
VWidth: 1504
Flags: W
HStem: 552 74<259.042 347.04> 596 70<163.787 243.806>
VStem: 95 66<560 594.226> 353 65<630.969 666>
LayerCount: 2
Back
SplineSet
418 666 m 1
 408.667 630.662 394.834 602.828 376.5 582.5 c 128
 358.167 562.167 334.334 552 305 552 c 0
 297 552 287.5 554.333 276.5 559 c 128
 265.5 563.667 254.5 568.667 243.5 574 c 128
 232.5 579.333 222 584.333 212 589 c 128
 202 593.667 193.667 596 187 596 c 0
 179 596 172.833 592.167 168.5 584.5 c 128
 164.167 576.833 161.667 568.666 161 560 c 1
 95 560 l 1
 101 590 113.5 615.167 132.5 635.5 c 128
 151.5 655.833 174.667 666 202 666 c 0
 211.334 666 221.167 664 231.5 660 c 128
 241.834 655.999 252.001 651.332 262 645.999 c 128
 272 640.657 281.667 635.991 291 632 c 128
 300.335 628 308.668 626 316 626 c 0
 335.335 626 347.668 639.333 353 666 c 1
 418 666 l 1
EndSplineSet
Fore
SplineSet
95 560 m 1x70
 106 613 142 666 202 666 c 3x70
 224 666 246 655 262 646 c 0
 277 638 297 626 316 626 c 3xb0
 335 626 348 639 353 666 c 1
 418 666 l 1x70
 402 607 373 552 305 552 c 3xb0
 284 552 260 566 244 574 c 0
 228 582 206 596 187 596 c 3
 170 596 162 576 161 560 c 1
 95 560 l 1x70
EndSplineSet
Validated: 1
EndChar

StartChar: hungarumlaut
Encoding: 733 733 212
Width: 540
VWidth: 1504
Flags: W
HStem: 481 258
LayerCount: 2
Fore
SplineSet
369 481 m 1
 305 481 l 1
 454 739 l 1
 551 739 l 1
 369 481 l 1
179 481 m 1
 116 481 l 1
 265 739 l 1
 360 739 l 1
 179 481 l 1
EndSplineSet
Validated: 1
EndChar

StartChar: uni0E01
Encoding: 3585 3585 214
Width: 588
VWidth: 1504
Flags: W
HStem: 0 21G<9 106.214> 532 80<240.79 404.881>
VStem: 440 96<330.438 496.677>
DStem2: 0.285182 -41 93.2852 -41 0.207912 0.978148<61.2517 407.212> 343.967 -41 436.194 -41 0.207912 0.978148<51.4154 486.037>
LayerCount: 2
Back
SplineSet
460 71 m 2
 448 13.6667 424.667 -23.6666 390 -41 c 1
 316 0 l 1
 345.333 17.3333 365 52.3333 375 105 c 1
 436 399 l 1
 445.333 440.333 440 472.833 420 496.5 c 128
 400 520.167 369.333 532 328 532 c 0
 268 532 216.667 506.667 174 456 c 1
 219.333 446.667 248 424 260 388 c 1
 202.667 358 169.667 322 161 280 c 2
 102 0 l 1
 9 0 l 1
 69 286 l 2
 78.3333 328 106 361 152 385 c 1
 130.667 402.333 101 408.333 63 403 c 1
 79 465 114 516.334 168 557 c 0
 218 594.333 275.667 612.666 341 612 c 0
 413 612 466 592.667 500 554 c 128
 534 515.333 543.667 463 529 397 c 1
 460 71 l 2
EndSplineSet
Fore
SplineSet
63 403 m 1
 92 516 199 612 341 612 c 3
 453 612 536 561 536 453 c 3
 536 436 533 417 529 397 c 2
 460 71 l 2
 448 14 425 -24 390 -41 c 1
 316 0 l 1
 345 17 365 52 375 105 c 2
 436 399 l 2
 439 412 440 425 440 436 c 3
 440 500 393 532 328 532 c 3
 268 532 217 507 174 456 c 1
 219 447 248 424 260 388 c 1
 203 358 170 322 161 280 c 2
 102 0 l 1
 9 0 l 1
 69 286 l 2
 78 328 106 361 152 385 c 1
 136 398 114 405 88 405 c 3
 80 405 72 404 63 403 c 1
EndSplineSet
Validated: 1
EndChar

StartChar: uni0E02
Encoding: 3586 3586 215
Width: 624
VWidth: 1504
Flags: W
HStem: -12 80<271.889 393.382> 326 58<121.767 201.7> 477 54<196 212.73> 551 61<198.256 313.87>
VStem: 55 64<387.994 462.207> 172 93<77.7654 219.391> 216 62<397.652 473.151> 328 91<423.16 535.066>
DStem2: 143.479 -12 237.943 -12 0.207912 0.978148<143.76 342.534> 385.943 -12 477.479 -12 0.207912 0.978148<93.5642 646.604>
LayerCount: 2
Back
SplineSet
214 430 m 1
 217.333 443.333 215.333 454.5 208 463.5 c 128
 200.666 472.5 190.332 477 177 477 c 256
 163.667 477 151.667 472.5 141 463.5 c 128
 130.333 454.5 123.333 443.333 120 430 c 1
 118 416.667 120.5 405.667 127.5 397 c 128
 134.5 388.333 144.667 384 158 384 c 256
 171.333 384 183.5 388.333 194.5 397 c 128
 205.5 405.667 212 416.667 214 430 c 1
510 141 m 2
 500 91.6667 477 53.8334 441 27.5 c 128
 405 1.16667 361.667 -12 311 -12 c 256
 261 -12 223.5 1.33333 198.5 28 c 128
 173.5 54.6667 166 92.3334 176 141 c 2
 197 239 l 2
 203 268.333 224.5 307.333 261.5 356 c 128
 298.5 404.667 320 443 326 471 c 0
 331.333 494.333 327.5 513.5 314.5 528.5 c 128
 301.5 543.5 284.333 551 263 551 c 0
 231 551 208.667 544.333 196 531 c 1
 225.333 529.667 247.333 520 262 502 c 128
 276.667 484 281 461 275 433 c 1
 267.667 403 251.667 377.667 227 357 c 128
 202.333 336.333 175.333 326 146 326 c 0
 112 326 87.1667 338.333 71.5 363 c 128
 55.8333 387.667 51.6666 417.667 59 453 c 0
 69 499 95.5 537 138.5 567 c 128
 181.5 597 227 612 275 612 c 0
 325 612 363.333 600 390 576 c 128
 416.667 552 425 517 415 471 c 0
 409 441 387.667 398.833 351 344.5 c 128
 314.333 290.167 293.666 252 289 230 c 2
 266 120 l 2
 262 102.667 266.833 89.667 280.5 81 c 128
 294.167 72.3333 310 68 328 68 c 0
 347.333 68 365.5 72.6667 382.5 82 c 128
 399.5 91.3333 410 104 414 120 c 2
 502 542 l 2
 514 598 537.667 634.333 573 651 c 1
 656 617 l 1
 622.667 601.667 600 565 588 507 c 2
 510 141 l 2
EndSplineSet
Fore
SplineSet
158 384 m 259xfb
 190 384 216 410 216 442 c 3
 216 464 198 477 177 477 c 259
 147 477 119 451 119 421 c 3
 119 398 135 384 158 384 c 259xfb
55 421 m 3
 55 530 167 612 275 612 c 3
 353 612 419 581 419 506 c 3
 419 495 418 484 415 471 c 0
 409 441 388 398 351 344 c 0
 314 290 294 252 289 230 c 2
 266 120 l 2
 265 116 265 112 265 109 c 3
 265 80 300 68 328 68 c 3
 367 68 407 89 414 120 c 2
 502 542 l 2
 514 598 538 634 573 651 c 1
 656 617 l 1
 623 602 600 565 588 507 c 2
 510 141 l 2
 491 48 418 -12 311 -12 c 259
 232 -12 172 24 172 102 c 3xfd
 172 114 173 127 176 141 c 2
 197 239 l 2
 203 268 225 307 262 356 c 0
 299 405 320 443 326 471 c 0
 328 478 328 484 328 490 c 3
 328 527 298 551 263 551 c 3
 231 551 209 544 196 531 c 1
 242 529 278 503 278 456 c 3
 278 387 213 326 146 326 c 3
 91 326 55 364 55 421 c 3
EndSplineSet
Validated: 1
EndChar

StartChar: uni0E03
Encoding: 3587 3587 216
Width: 648
VWidth: 1504
Flags: W
HStem: -12 80<295.889 417.382> 257 62<113.914 194.103> 412 62<150.524 204.777> 592 20G<196.5 262.294>
VStem: 44 67<323.249 396.753> 196 93<77.9057 152.136> 208 63<332.817 408.496> 371 79<412.981 531.109>
DStem2: 167.479 -12 261.943 -12 0.207912 0.978148<143.76 306.168> 409.943 -12 501.479 -12 0.207912 0.978148<93.5642 646.604>
LayerCount: 2
Back
SplineSet
206 366 m 256
 209.331 379.333 207.498 390.333 200.5 399 c 128
 193.5 407.667 183.333 412 170 412 c 256
 156.667 412 144.5 407.5 133.5 398.5 c 128
 122.5 389.5 115.667 378.667 113 366 c 256
 109.667 352.667 111.834 341.5 119.5 332.5 c 128
 127.167 323.5 137.334 319 150 319 c 256
 163.333 319 175.166 323.5 185.5 332.5 c 128
 195.833 341.5 202.666 352.667 206 366 c 256
534 141 m 2
 524 91.6667 501 53.8334 465 27.5 c 128
 429 1.16667 385.667 -12 335 -12 c 256
 285 -12 247.5 1.33333 222.5 28 c 128
 197.5 54.6667 190 92.3334 200 141 c 1
 215 209 l 2
 222.333 241 248.333 283.333 293 336 c 128
 337.667 388.667 363.334 430 370 460 c 1
 373.333 498 362.666 524.667 338 540 c 1
 271 483 l 1
 217 543 l 1
 205.667 537 192.5 526.167 177.5 510.5 c 128
 162.5 494.833 153.333 481 150 469 c 1
 165.333 472.333 176 474 182 474 c 0
 212 474 235.5 463.5 252.5 442.5 c 128
 269.5 421.5 274.667 396 268 366 c 0
 262 336 246.5 310.333 221.5 289 c 128
 196.5 267.667 168.333 257 137 257 c 0
 101.667 257 76.0003 271.5 60 300.5 c 128
 44 329.5 39.6667 361.333 47 396 c 0
 59 449.334 83.6667 497.667 121 541 c 128
 158.333 584.333 200.333 608 247 612 c 1
 286 561 l 1
 343 614 l 1
 429 594 463 540.667 445 454 c 1
 437.667 422.667 415 383 377 335 c 128
 339 287 317 249 311 221 c 2
 290 120 l 2
 286 102.667 290.833 89.667 304.5 81 c 128
 318.167 72.3333 334 68 352 68 c 0
 371.333 68 389.5 72.6667 406.5 82 c 128
 423.5 91.3333 434 104 438 120 c 2
 526 542 l 2
 538 598 561.667 634.333 597 651 c 1
 680 617 l 1
 646.667 601.667 624 565 612 507 c 2
 534 141 l 2
EndSplineSet
Fore
SplineSet
150 319 m 259xfb
 181 319 208 346 208 378 c 3
 208 399 191 412 170 412 c 259
 139 412 111 385 111 354 c 3
 111 333 130 319 150 319 c 259xfb
289 109 m 3xfd
 289 80 324 68 352 68 c 3
 391 68 431 89 438 120 c 2
 526 542 l 2
 538 598 562 634 597 651 c 1
 680 617 l 1
 647 602 624 565 612 507 c 2
 534 141 l 2
 515 48 442 -12 335 -12 c 259
 256 -12 196 24 196 102 c 3xfd
 196 114 197 127 200 141 c 2
 215 209 l 2
 222 241 248 283 293 336 c 0
 338 389 363 430 370 460 c 0
 371 464 371 469 371 473 c 3
 371 504 360 526 338 540 c 1
 271 483 l 1
 217 543 l 1
 197 532 157 493 150 469 c 1
 165 472 176 474 182 474 c 3
 230 474 271 440 271 390 c 3xfb
 271 318 208 257 137 257 c 3
 79 257 44 303 44 364 c 3
 44 374 45 385 47 396 c 0
 68 490 146 603 247 612 c 1
 286 561 l 1
 343 614 l 1
 414 597 450 558 450 496 c 3
 450 483 448 469 445 454 c 0
 438 423 415 383 377 335 c 0
 339 287 317 249 311 221 c 2
 290 120 l 2
 289 116 289 112 289 109 c 3xfd
EndSplineSet
Validated: 1
EndChar

StartChar: uni0E04
Encoding: 3588 3588 217
Width: 606
VWidth: 1504
Flags: W
HStem: 0 21G<30 133.5> 260 53<265.357 344.866> 405 51<277.017 354.68> 532 80<252.41 413.896>
VStem: 55 208<258.87 362> 358 56<325.936 401.571> 459 95<378.545 490.748>
DStem2: 361.967 -41 454.194 -41 0.207912 0.978148<51.3921 484.473>
LayerCount: 2
Back
SplineSet
356 358 m 256
 359.333 371.333 357.5 382.5 350.5 391.5 c 128
 343.5 400.5 333.333 405 320 405 c 256
 306.667 405 294.834 400.5 284.5 391.5 c 128
 274.167 382.5 267.667 371.333 265 358 c 256
 261.667 344.667 263.5 333.834 270.5 325.5 c 128
 277.5 317.167 287.667 313 301 313 c 256
 314.333 313 326 317.167 336 325.5 c 128
 346 333.835 352.667 344.668 356 358 c 256
478 71 m 2
 466 13.6667 442.667 -23.6666 408 -41 c 1
 334 0 l 1
 363.333 17.3333 383 52.3333 393 105 c 1
 457 411 l 2
 464.333 447 455 477 429 501 c 0
 405 522.333 373.667 532.666 335 532 c 0
 289.667 532 250.334 516.833 217 486.5 c 128
 183.667 456.167 162.334 421 153 381 c 0
 151 369.667 149.5 351.167 148.5 325.5 c 128
 147.5 299.833 145 277.666 141 259 c 2
 132 217 l 2
 132 218.333 136 229.166 144 249.5 c 128
 152 269.833 157.667 285.333 161 296 c 1
 180.333 338 203.333 373.333 230 402 c 0
 264 438 298 456 332 456 c 0
 359.333 456 381 446.5 397 427.5 c 128
 413 408.5 418 385.333 412 358 c 0
 406.667 332 391.834 309.167 367.5 289.5 c 128
 343.167 269.833 317.334 260 290 260 c 0
 264.667 260 244.334 269 229 287 c 1
 179.667 195.667 144.334 100 123 0 c 1
 30 0 l 1
 50 96 l 2
 60 143.333 62.6667 194.833 58 250.5 c 128
 53.3333 306.167 54 350 60 382 c 1
 75.3333 451.334 112.333 507.667 171 551 c 0
 227 592.333 290 612.666 360 612 c 0
 423.333 612 472.666 595.667 508 563 c 0
 549.333 525 563 473.333 549 408 c 2
 478 71 l 2
EndSplineSet
Fore
SplineSet
301 313 m 259
 332 313 358 338 358 370 c 3
 358 391 341 405 320 405 c 259
 288 405 263 378 263 346 c 3
 263 325 280 313 301 313 c 259
360 612 m 3
 467 612 554 558 554 455 c 3
 554 440 553 425 549 408 c 2
 478 71 l 2
 466 14 443 -24 408 -41 c 1
 334 0 l 1
 363 17 382 52 393 105 c 2
 457 411 l 2
 459 419 459 427 459 434 c 3
 459 497 400 532 335 532 c 3
 243 532 170 457 153 381 c 0
 148 355 147 287 141 259 c 2
 132 217 l 1
 161 296 l 2
 181 350 253 456 332 456 c 3
 376 456 414 425 414 379 c 3
 414 316 353 260 290 260 c 3
 265 260 244 269 229 287 c 1
 180 196 144 100 123 0 c 1
 30 0 l 1
 50 96 l 2
 57 128 60 163 60 199 c 3
 60 236 55 282 55 317 c 3
 55 342 57 364 60 382 c 0
 88 509 208 612 360 612 c 3
EndSplineSet
Validated: 1
EndChar

StartChar: uni0E05
Encoding: 3589 3589 218
Width: 606
VWidth: 1504
Flags: W
HStem: 0 21G<30 131.5> 229 51<258.483 338.002> 372 52<270.54 347.97>
VStem: 62 85<199.203 434.794> 351 56<292.198 368.835> 463 98<362.125 529.911>
DStem2: 361.967 -41 454.194 -41 0.207912 0.978148<51.3921 518.147>
LayerCount: 2
Back
SplineSet
349 325 m 1
 352.333 338.333 350.333 349.5 343 358.5 c 128
 335.667 367.5 325.667 372 313 372 c 256
 299.667 372 287.834 367.333 277.5 358 c 128
 267.167 348.667 260.334 337.667 257 325 c 1
 255 311.667 257.333 300.834 264 292.5 c 128
 270.667 284.167 280.334 280 293 280 c 256
 306.333 280 318.5 284.167 329.5 292.5 c 128
 340.5 300.835 347 311.668 349 325 c 1
478 71 m 2
 466 13.6667 442.667 -23.6666 408 -41 c 1
 334 0 l 1
 363.333 17.3333 383 52.3333 393 105 c 1
 457 411 l 1
 469 472.334 464 512.334 442 531 c 1
 335 472 l 1
 245 531 l 1
 199.667 503.667 170 458 156 394 c 0
 152 374.667 149 347.834 147 313.5 c 128
 145 279.166 141 245.333 135 212 c 1
 134 199 l 2
 134 201 136.667 208.667 142 222 c 128
 147.333 235.333 152.667 249.667 158 265 c 0
 174 307 195 342 221 370 c 1
 253 406 287.667 424 325 424 c 0
 352.334 424 373.667 414.5 389 395.5 c 128
 404.336 376.5 409.669 353.333 405 326 c 1
 399 298.667 384.167 275.667 360.5 257 c 128
 336.833 238.333 311.333 228.999 284 229 c 0
 258.667 229 237.667 237.333 221 254 c 1
 173 164.667 140.333 80.0003 123 0 c 1
 30 0 l 1
 50 96 l 1
 61.3333 145.333 64.6666 199.333 60 258 c 128
 55.3333 316.667 56.3333 360.667 63 390 c 0
 74.3333 443.334 97.5 490.167 132.5 530.5 c 128
 167.5 570.833 212 599.666 266 617 c 1
 353 558 l 1
 474 617 l 1
 547.333 583.667 574.333 523 555 435 c 1
 478 71 l 2
EndSplineSet
Fore
SplineSet
293 280 m 259
 325 280 351 304 351 337 c 3
 351 358 333 372 313 372 c 259
 284 372 256 345 256 316 c 3
 256 294 271 280 293 280 c 259
245 531 m 1
 183 494 147 419 147 314 c 3
 147 280 141 245 135 212 c 1
 134 199 l 1
 158 265 l 2
 184 336 243 424 325 424 c 3
 371 424 407 391 407 344 c 3
 407 281 346 229 284 229 c 3
 259 229 238 237 221 254 c 1
 173 165 140 80 123 0 c 1
 30 0 l 1
 50 96 l 2
 58 131 62 168 62 208 c 3
 62 244 57 290 57 323 c 3
 57 350 59 373 63 390 c 0
 86 500 163 584 266 617 c 1
 353 558 l 1
 474 617 l 1
 532 591 561 548 561 487 c 3
 561 471 559 453 555 435 c 2
 478 71 l 2
 466 14 443 -24 408 -41 c 1
 334 0 l 1
 363 17 382 52 393 105 c 2
 457 411 l 2
 461 433 463 452 463 468 c 3
 463 498 456 519 442 531 c 1
 335 472 l 1
 245 531 l 1
EndSplineSet
Validated: 1
EndChar

StartChar: uni0E06
Encoding: 3590 3590 219
Width: 681
VWidth: 1504
Flags: W
HStem: -12 71<141.593 222.625> 0 21G<429.5 543.181> 158 72<153.868 234.022> 257 62<120.147 200.437> 412 60<155.198 211.503> 592 20G<202.5 265.294>
VStem: 49 68<322.606 397.7> 65 72<63.8397 141.646> 214 62<333.88 408.56> 373 82<414.582 531.975>
DStem2: 442.406 -12 536.449 -12 0.207912 0.978148<113.48 650.262>
LayerCount: 2
Back
SplineSet
539 0 m 1
 453 0 l 1
 405.667 61.3333 358.333 100.333 311 117 c 1
 308 102 l 1
 300.667 70 282.834 43 254.5 21 c 128
 226.167 -1 195.334 -12 162 -12 c 256
 128.667 -12 102.834 -0.166666 84.5 23.5 c 128
 66.1667 47.1667 60.6667 76 68 110 c 0
 75.3334 143.333 93.1668 171.666 121.5 195 c 128
 149.833 218.333 180.666 230 214 230 c 0
 221.333 230 227.333 229.667 232 229 c 1
 238 257 261.333 295 302 343 c 1
 341.333 388.333 364 426 370 456 c 0
 378 495.333 368 524 340 542 c 1
 275 484 l 1
 223 543 l 1
 211 537.667 197.667 527 183 511 c 128
 168.333 495 158.999 480.667 155 468 c 1
 163 471.334 173.667 472.667 187 472 c 1
 217 472 240.5 461.5 257.5 440.5 c 128
 274.5 419.5 280 394.667 274 366 c 0
 268 336 252 310.333 226 289 c 128
 200 267.667 171.667 257 141 257 c 0
 105.667 257 80.167 270 64.5 296 c 128
 48.8333 322 45.3333 356.667 54 400 c 1
 65.3334 452 90.3334 499.833 129 543.5 c 128
 167.667 587.167 208 610 250 612 c 1
 289 561 l 1
 347 614 l 1
 433 592 467.667 541.667 451 463 c 0
 443.667 427.667 420.5 385.334 381.5 336 c 128
 342.5 286.667 320.667 248.334 316 221 c 1
 311 199 l 1
 365 177.667 416.667 144.334 466 99 c 1
 560 542 l 2
 572 598 595.333 634.333 630 651 c 1
 713 617 l 1
 679.667 601.667 657 565 645 507 c 2
 539 0 l 1
238 108 m 0
 241.333 122 239.166 133.833 231.5 143.5 c 128
 223.833 153.167 212.999 158 199 158 c 0
 185.667 158 173 153.167 161 143.5 c 128
 149 133.833 141.333 122 138 108 c 0
 134.667 94.6667 137.167 83.1667 145.5 73.5 c 128
 153.833 63.8333 164.333 59 177 59 c 0
 191 59 203.833 63.8333 215.5 73.5 c 128
 227.167 83.1667 234.667 94.6667 238 108 c 0
212 366 m 256
 215.331 379.333 213.498 390.333 206.5 399 c 128
 199.5 407.667 189.333 412 176 412 c 256
 162.667 412 150.5 407.5 139.5 398.5 c 128
 128.5 389.5 121.667 378.667 119 366 c 256
 115.667 352.667 117.834 341.5 125.5 332.5 c 128
 133.167 323.5 143.334 319 156 319 c 256
 169.333 319 181.166 323.5 191.5 332.5 c 128
 201.833 341.5 208.666 352.667 212 366 c 256
EndSplineSet
Fore
SplineSet
141 257 m 3xbdc0
 83 257 49 296 49 357 c 3
 49 370 51 385 54 400 c 0
 73 487 155 607 250 612 c 1
 289 561 l 1
 347 614 l 1
 419 596 455 557 455 499 c 3
 455 488 454 476 451 463 c 0
 444 428 421 385 382 336 c 0
 343 287 321 248 316 221 c 1
 311 199 l 1
 365 178 417 144 466 99 c 1
 560 542 l 2
 572 598 595 634 630 651 c 1
 713 617 l 1
 680 602 657 565 645 507 c 2
 539 0 l 1
 453 0 l 1x7ec0
 406 61 358 100 311 117 c 1
 308 102 l 2
 296 43 232 -12 162 -12 c 259
 108 -12 65 26 65 82 c 3
 65 161 136 230 214 230 c 3
 221 230 227 230 232 229 c 1
 238 257 261 295 302 343 c 0
 341 388 364 426 370 456 c 0
 372 465 373 473 373 481 c 3
 373 508 362 528 340 542 c 1
 275 484 l 1
 223 543 l 1
 201 533 163 492 155 468 c 1
 163 471 174 472 187 472 c 3
 236 472 276 438 276 388 c 3
 276 318 211 257 141 257 c 3xbdc0
177 59 m 3xbdc0
 209 59 240 87 240 120 c 3
 240 143 221 158 199 158 c 3
 168 158 137 129 137 97 c 3
 137 75 157 59 177 59 c 3xbdc0
156 319 m 259
 187 319 214 346 214 378 c 3
 214 399 197 412 176 412 c 259
 145 412 117 385 117 354 c 3x3ec0
 117 333 136 319 156 319 c 259
EndSplineSet
Validated: 1
EndChar

StartChar: uni0E07
Encoding: 3591 3591 220
Width: 469
VWidth: 1504
Flags: W
HStem: 0 21G<220.714 330.245> 387 61<262.781 313.833> 551 61<275.057 357.524>
VStem: 196 62<452.705 533.477> 362 71<466.013 545.753>
DStem2: 114 320 60 245 0.581238 -0.813733<-56.659 250.281> 234.343 0 326 0 0.207912 0.978148<118.592 396.083>
LayerCount: 2
Back
SplineSet
326 0 m 1
 235 0 l 1
 60 245 l 1
 36 280.333 25 312.333 27 341 c 1
 87 393 l 1
 91 365.667 100 341.334 114 320 c 1
 259 116 l 1
 314 388 l 1
 310.667 386.667 301.334 386.334 286 387 c 0
 254.667 387 230.5 397.167 213.5 417.5 c 128
 196.5 437.833 191.667 464 199 496 c 1
 205 528 221.5 555.333 248.5 578 c 128
 275.5 600.667 304 612 334 612 c 0
 369.333 612 396 600.833 414 578.5 c 128
 432 556.167 437.333 526.667 430 490 c 2
 326 0 l 1
361 499 m 256
 364.333 513 361.833 525.167 353.5 535.5 c 128
 345.167 545.833 334 551 320 551 c 256
 306 551 293 545.833 281 535.5 c 128
 269 525.167 261.667 513 259 499 c 256
 255.667 485 258 473 266 463 c 128
 274 453 285 448 299 448 c 256
 313 448 326 453 338 463 c 128
 350 473 357.667 485 361 499 c 256
EndSplineSet
Fore
SplineSet
334 612 m 3
 392 612 433 578 433 520 c 3
 433 511 432 501 430 490 c 2
 326 0 l 1
 235 0 l 1
 60 245 l 2
 37 277 27 307 27 334 c 2
 27 341 l 1
 87 393 l 1
 91 366 100 341 114 320 c 2
 259 116 l 1
 314 388 l 1
 311 387 301 387 286 387 c 3
 236 387 196 418 196 469 c 3
 196 544 261 612 334 612 c 3
299 448 m 259
 331 448 362 478 362 511 c 3
 362 535 342 551 320 551 c 259
 287 551 258 520 258 487 c 3
 258 464 277 448 299 448 c 259
EndSplineSet
Validated: 1
EndChar

StartChar: uni0E08
Encoding: 3592 3592 221
Width: 586
VWidth: 1504
Flags: W
HStem: -12 80<296.719 365.883> 199 60<144.49 205.371> 352 60<155.554 235.175> 532 80<207.051 411.376>
VStem: 81 61<262.857 337.336> 205 90<70.6261 205> 239 62<271.681 347.728> 444 95<404.027 500.459>
DStem2: 346.619 -12 440.131 -12 0.207912 0.978148<79.735 477.744>
LayerCount: 2
Back
SplineSet
465 105 m 2
 457.667 67.6667 439.834 38.8334 411.5 18.5 c 128
 383.167 -1.83333 349.667 -12 311 -12 c 0
 237.667 -12 202.334 20.6667 205 86 c 1
 206 205 l 1
 194.667 201 182 199 168 199 c 0
 138.667 199 115.667 209.5 99 230.5 c 128
 82.3333 251.5 77.3333 276.333 84 305 c 1
 90 334.333 105.833 359.5 131.5 380.5 c 128
 157.167 401.5 184.667 412 214 412 c 0
 240 412 261.167 403.833 277.5 387.5 c 128
 293.834 371.167 301.667 350.334 301 325 c 2
 295 95 l 1
 293.667 77 304 68 326 68 c 0
 351.333 68 366 78 370 98 c 2
 442 436 l 2
 449.333 469.333 439.333 494.333 412 511 c 0
 388.667 525 358 532 320 532 c 0
 234 532 177 507.667 149 459 c 1
 59 459 l 1
 94.3333 560.333 184.333 611.333 329 612 c 0
 396.333 612 449 599.667 487 575 c 1
 532.333 543 548 494.667 534 430 c 2
 465 105 l 2
238 305 m 1
 240 318.333 237.5 329.5 230.5 338.5 c 128
 223.5 347.5 213.333 352 200 352 c 256
 186.667 352 174.5 347.5 163.5 338.5 c 128
 152.5 329.5 146 318.333 144 305 c 1
 140.667 291.667 142.667 280.667 150 272 c 128
 157.333 263.333 167.666 259 181 259 c 256
 194.333 259 206.333 263.333 217 272 c 128
 227.667 280.667 234.667 291.667 238 305 c 1
EndSplineSet
Fore
SplineSet
329 612 m 3xfd
 442 612 539 577 539 473 c 3
 539 460 537 445 534 430 c 2
 465 105 l 2
 451 35 393 -12 311 -12 c 3
 240 -12 205 18 205 79 c 2
 205 86 l 1xfd
 206 205 l 1
 195 201 182 199 168 199 c 3
 121 199 81 232 81 281 c 3
 81 350 146 412 214 412 c 3
 265 412 301 376 301 325 c 1xfb
 295 95 l 2
 295 77 304 68 326 68 c 3
 351 68 366 78 370 98 c 2
 442 436 l 2
 444 443 444 450 444 456 c 3
 444 512 381 532 320 532 c 3
 234 532 177 508 149 459 c 1
 59 459 l 1
 94 560 184 612 329 612 c 3xfd
181 259 m 259
 211 259 239 284 239 314 c 3xfb
 239 337 223 352 200 352 c 259
 168 352 142 325 142 293 c 3
 142 272 160 259 181 259 c 259
EndSplineSet
Validated: 1
EndChar

StartChar: uni0E09
Encoding: 3593 3593 222
Width: 609
VWidth: 1504
Flags: W
HStem: -12 66<353.769 434.989> 0 21G<74 181.5> 174 58<103.659 125> 322 59<111.497 191.607> 532 80<232.572 432.547>
VStem: 41 59<234.545 310.377> 60 90<424 462.789> 194 61<244.799 318.427> 282 69<58.082 104.883> 449 67<69.2166 143.168> 467 94<347.227 501.303>
DStem2: 369.987 -12 462.658 -12 0.207912 0.978148<245.127 475.712>
LayerCount: 2
Back
SplineSet
513 102 m 0
 505.667 70 488.834 43 462.5 21 c 128
 436.167 -1 407 -12 375 -12 c 0
 345.667 -12 322 -2.16667 304 17.5 c 128
 286 37.1667 279 61.3334 283 90 c 1
 245 76.6667 203.667 46.6667 159 0 c 1
 74 0 l 1
 98 117 l 2
 104 145 113 164 125 174 c 1
 115 174 108 174.667 104 176 c 0
 52 188 32 221.667 44 277 c 0
 50 306.333 65.1667 331 89.5 351 c 128
 113.833 371 140.666 381 170 381 c 256
 199.333 381 222 370.833 238 350.5 c 128
 254 330.167 259 305.667 253 277 c 0
 249.667 263 241 244.167 227 220.5 c 128
 213 196.833 204 177.333 200 162 c 1
 188 99 l 1
 207.333 115 241.5 135.333 290.5 160 c 128
 339.5 184.667 375 206.667 397 226 c 1
 417 246 429.667 269.333 435 296 c 2
 465 435 l 2
 472.33 468.334 461.664 493.667 433 511 c 0
 409 525 377.333 532 338 532 c 0
 296 532 258.667 524 226 508 c 0
 186.667 488.667 161.334 460.667 150 424 c 1
 60 424 l 1
 102 549.333 199.667 612 353 612 c 0
 419 612 470.667 599 508 573 c 0
 554 541 570.333 493 557 429 c 2
 526 286 l 2
 518 248 501 220 475 202 c 1
 509.667 179.333 522.334 146 513 102 c 0
193 277 m 1
 195 290.334 192.667 301.167 186 309.5 c 128
 179.333 317.833 169.333 322 156 322 c 256
 142.667 322 130.834 317.667 120.5 309 c 128
 110.167 300.333 104 289.666 102 277 c 1
 98.6667 263.667 100.333 252.834 107 244.5 c 128
 113.667 236.167 123.667 232 137 232 c 256
 150.333 232 162.166 236.167 172.5 244.5 c 128
 182.833 252.833 189.666 263.666 193 277 c 1
447 101 m 256
 450.326 114.333 448.159 125.333 440.5 134 c 128
 432.833 142.667 422.333 147 409 147 c 256
 395.667 147 383.834 142.5 373.5 133.5 c 128
 363.167 124.5 356.334 113.667 353 101 c 256
 349.667 87.6667 351.667 76.5 359 67.5 c 128
 366.335 58.5 376.668 54 390 54 c 256
 403.333 54 415.333 58.5 426 67.5 c 128
 436.667 76.5 443.667 87.6667 447 101 c 256
EndSplineSet
Fore
SplineSet
353 612 m 3x7ba0
 464 612 561 573 561 470 c 3x7ba0
 561 457 560 443 557 429 c 2
 526 286 l 2
 518 248 501 220 475 202 c 1
 502 184 516 160 516 129 c 3
 516 121 515 111 513 102 c 0
 500 44 444 -12 375 -12 c 3xb9c0
 324 -12 282 24 282 75 c 3
 282 80 282 85 283 90 c 1
 245 77 204 47 159 0 c 1
 74 0 l 1
 98 117 l 2
 104 145 113 164 125 174 c 1
 71 174 41 206 41 248 c 3x7dc0
 41 320 99 381 170 381 c 259
 218 381 255 349 255 300 c 3
 255 247 208 200 200 162 c 2
 188 99 l 1
 207 115 241 135 290 160 c 0
 339 185 375 207 397 226 c 1
 417 246 430 269 435 296 c 2
 465 435 l 2
 466 442 467 448 467 454 c 3
 467 512 401 532 338 532 c 3
 247 532 171 491 150 424 c 1
 60 424 l 1
 102 549 200 612 353 612 c 3x7ba0
137 232 m 259
 167 232 194 256 194 286 c 3
 194 309 179 322 156 322 c 259
 124 322 100 297 100 265 c 3x3d80
 100 244 116 232 137 232 c 259
390 54 m 259xb9c0
 421 54 449 81 449 112 c 3
 449 134 430 147 409 147 c 259
 378 147 351 120 351 89 c 3
 351 67 369 54 390 54 c 259xb9c0
EndSplineSet
Validated: 1
EndChar

StartChar: uni0E0A
Encoding: 3594 3594 223
Width: 624
VWidth: 1504
Flags: W
HStem: -12 80<270.666 392.603> 326 58<122.163 202.9> 477 54<196 213.043> 551 61<197.456 316.207>
VStem: 56 63<388.025 463.792> 171 94<76.9082 145.708> 216 62<398.092 473.295> 328 90<421.596 538.898> 469 95<291.484 450.819>
DStem2: 385.943 -12 477.479 -12 0.207912 0.978148<94.4311 419.802>
LayerCount: 2
Back
SplineSet
510 141 m 2
 500 93 477.167 55.5 441.5 28.5 c 128
 405.833 1.5 362.333 -12 311 -12 c 0
 217.667 -12 171 26.6667 171 104 c 0
 171 117.333 179.667 162.333 197 239 c 0
 203 266.333 227 308 269 364 c 0
 308.333 416 328 457.667 328 489 c 0
 328 530.333 306.333 551 263 551 c 0
 229.666 551 207.332 544.333 196 531 c 1
 251.333 529 278.666 504 278 456 c 0
 278 422 264.333 391.833 237 365.5 c 128
 209.667 339.167 179.334 326 146 326 c 0
 86 326 56 357.667 56 421 c 0
 56 475 80.3333 521.334 129 560 c 0
 174.333 595.333 223 612.666 275 612 c 0
 370.333 612 418 576 418 504 c 0
 418 466 399 418.333 361 361 c 1
 317.667 299 293.667 255.333 289 230 c 2
 265 111 l 1
 265 81.6667 286 67.3334 328 68 c 0
 348 68 366.5 73 383.5 83 c 128
 400.5 93 410.667 105.333 414 120 c 2
 462 349 l 2
 467.34 373 469.673 390 469 400 c 1
 469 430 457.667 449 435 457 c 1
 450.334 507 479.667 554.667 523 600 c 1
 560.333 638 594.666 662 626 672 c 1
 693 627 l 1
 627.667 601 573 551 529 477 c 1
 552.333 465 564 442.333 564 409 c 0
 564 397.667 561 378 555 350 c 2
 510 141 l 2
214 430 m 1
 217.333 443.333 215.333 454.5 208 463.5 c 128
 200.666 472.5 190.332 477 177 477 c 256
 163.667 477 151.667 472.5 141 463.5 c 128
 130.333 454.5 123.333 443.333 120 430 c 1
 118 416.667 120.5 405.667 127.5 397 c 128
 134.5 388.333 144.667 384 158 384 c 256
 171.333 384 183.5 388.333 194.5 397 c 128
 205.5 405.667 212 416.667 214 430 c 1
EndSplineSet
Fore
SplineSet
278 456 m 3xfb80
 278 389 212 326 146 326 c 3
 86 326 56 358 56 421 c 3
 56 525 163 612 275 612 c 3
 370 612 418 576 418 504 c 3
 418 466 400 417 361 361 c 0
 318 299 294 255 289 230 c 2
 265 111 l 1
 265 82 286 68 328 68 c 3
 366 68 407 90 414 120 c 2
 462 349 l 2
 467 373 469 390 469 400 c 3
 469 430 458 449 435 457 c 1
 459 537 548 647 626 672 c 1
 693 627 l 1
 628 601 573 551 529 477 c 1
 552 465 564 442 564 409 c 3
 564 398 561 378 555 350 c 2
 510 141 l 2
 491 50 418 -12 311 -12 c 3
 218 -12 171 27 171 104 c 3xfd80
 171 117 180 162 197 239 c 0
 203 266 227 308 269 364 c 0
 308 416 328 458 328 489 c 3
 328 530 306 551 263 551 c 3
 230 551 207 544 196 531 c 1
 251 529 278 504 278 456 c 3xfb80
158 384 m 259
 190 384 216 410 216 442 c 3xfb80
 216 464 198 477 177 477 c 259
 147 477 119 451 119 421 c 3
 119 398 135 384 158 384 c 259
EndSplineSet
Validated: 1
EndChar

StartChar: uni0E0B
Encoding: 3595 3595 224
Width: 648
VWidth: 1504
Flags: W
HStem: -12 80<294.699 416.603> 257 62<115.632 193.611> 412 62<150.786 205.11> 592 20G<196.5 262.294>
VStem: 44 68<322.85 398.771> 208 63<333.471 408.352> 370 80<413.989 531.098> 493 95<291.484 450.819>
DStem2: 409.943 -12 501.479 -12 0.207912 0.978148<94.4311 419.802>
LayerCount: 2
Back
SplineSet
579 350 m 2
 534 141 l 2
 524 93 501.167 55.5 465.5 28.5 c 128
 429.833 1.5 386.333 -12 335 -12 c 0
 241.667 -12 195.334 26.6667 196 104 c 0
 196 117.333 202.333 152.333 215 209 c 0
 222.333 241 248 283 292 335 c 0
 344 397 370 442.667 370 472 c 0
 370 504 359.333 526.667 338 540 c 1
 271 483 l 1
 217 543 l 1
 205 537 191.667 526 177 510 c 128
 162.333 494 153.333 480.333 150 469 c 1
 165.333 472.333 176 474 182 474 c 0
 208 474 229.333 466 246 450 c 128
 262.667 434 271 414 271 390 c 0
 271 354.667 257.167 323.667 229.5 297 c 128
 201.833 270.333 171 257 137 257 c 0
 107.667 257 84.8337 267.5 68.5 288.5 c 128
 52.1667 309.5 44 335.333 44 366 c 0
 44 421.333 65 475.166 107 527.5 c 128
 149 579.833 195.667 608 247 612 c 1
 286 561 l 1
 343 614 l 1
 414.333 596.666 450 557.333 450 496 c 0
 450 450.667 426 397 378 335 c 0
 338.667 285 316.334 247 311 221 c 2
 289 111 l 1
 289 81.6667 310 67.3334 352 68 c 0
 372 68 390.5 73 407.5 83 c 128
 424.5 93 434.667 105.333 438 120 c 2
 486 349 l 2
 491.341 373 493.674 390 493 400 c 1
 493 430 481.667 449 459 457 c 1
 474.333 507 504 554.667 548 600 c 0
 585.333 638 619.333 662 650 672 c 1
 718 627 l 1
 652.667 601 598 551 554 477 c 1
 577.333 465 588.666 442.333 588 409 c 0
 588 397.667 585 378 579 350 c 2
206 366 m 1
 209.331 379.333 207.498 390.333 200.5 399 c 128
 193.5 407.667 183.333 412 170 412 c 256
 156.667 412 144.5 407.5 133.5 398.5 c 128
 122.5 389.5 115.667 378.667 113 366 c 1
 111 352.667 113.5 341.5 120.5 332.5 c 128
 127.5 323.5 137.333 319 150 319 c 256
 163.333 319 175.5 323.5 186.5 332.5 c 128
 197.5 341.5 204 352.667 206 366 c 1
EndSplineSet
Fore
SplineSet
137 257 m 3
 78 257 44 306 44 366 c 3
 44 480 146 604 247 612 c 1
 286 561 l 1
 343 614 l 1
 414 597 450 557 450 496 c 3
 450 451 426 397 378 335 c 0
 339 285 316 247 311 221 c 2
 289 111 l 1
 289 82 310 68 352 68 c 3
 390 68 431 90 438 120 c 2
 486 349 l 2
 491 373 493 390 493 400 c 3
 493 430 482 449 459 457 c 1
 483 535 573 647 650 672 c 1
 718 627 l 1
 653 601 598 551 554 477 c 1
 577 465 588 442 588 409 c 3
 588 398 585 378 579 350 c 2
 534 141 l 2
 515 50 442 -12 335 -12 c 3
 242 -12 196 27 196 104 c 3
 196 117 202 152 215 209 c 0
 222 241 248 283 292 335 c 0
 344 397 370 443 370 472 c 3
 370 504 359 527 338 540 c 1
 271 483 l 1
 217 543 l 1
 196 533 157 492 150 469 c 1
 165 472 176 474 182 474 c 3
 232 474 271 439 271 390 c 3
 271 321 205 257 137 257 c 3
150 319 m 259
 182 319 208 346 208 378 c 3
 208 399 191 412 170 412 c 259
 140 412 112 387 112 357 c 3
 112 334 128 319 150 319 c 259
EndSplineSet
Validated: 1
EndChar

StartChar: uni0E0C
Encoding: 3596 3596 225
Width: 849
VWidth: 1504
Flags: W
HStem: -12 62<74.1658 155.881 366.483 448.66> 0 21G<617.5 711.221> 152 63<147 168.255> 531 81<236.518 392.046>
VStem: 8 62<54.8939 135.983> 174 67<67.0657 146.239> 296 66<55.0574 135.001> 427 95<368.978 494.886> 624 83<0 33.1682>
DStem2: 6.37749 -12 98.7497 -12 0.207912 0.978148<251.277 377.07> 335.663 -12 428.962 -12 0.207912 0.978148<247.446 452.828> 610.493 -12 704.449 -12 0.207912 0.978148<122.681 648.69>
LayerCount: 2
Back
SplineSet
707 0 m 1
 624 0 l 1
 610.667 49.3333 577.667 88.3333 525 117 c 1
 523.667 103 522.667 94.6667 522 92 c 0
 516 60 499.667 34.6667 473 16 c 128
 446.333 -2.66667 418.666 -12 390 -12 c 0
 358.667 -12 334 -1 316 21 c 128
 298 43 292.333 70 299 102 c 0
 309 148 336.667 182.667 382 206 c 1
 423 399 l 2
 431 438.334 425.5 470.167 406.5 494.5 c 128
 387.5 518.833 359.667 531 323 531 c 0
 261.667 531 212.667 506 176 456 c 1
 220 446.667 248 424 260 388 c 1
 202.667 360 169.667 324 161 280 c 1
 147 215 l 1
 179 215 203.833 204 221.5 182 c 128
 239.167 160 244.667 133 238 101 c 1
 230.667 69.6667 213.667 43 187 21 c 128
 160.333 -1 131 -12 99 -12 c 0
 67.6667 -12 43.3334 -1 26 21 c 128
 8.66667 43 3.66667 69.6667 11 101 c 1
 16.3333 127 27.3333 148.333 44 165 c 1
 69 286 l 2
 78.3333 328 106 361 152 385 c 1
 130.667 402.333 101 408.333 63 403 c 1
 79 465 113 516.334 165 557 c 1
 214.333 594.333 271 612.666 335 612 c 0
 402.333 612 452.833 593 486.5 555 c 128
 520.167 517 530 464.333 516 397 c 2
 477 214 l 1
 550.333 188.667 603.333 153.334 636 108 c 1
 728 542 l 2
 740 598 763.667 634.333 799 651 c 1
 881 617 l 1
 847.66 601.667 825.326 565 814 507 c 1
 707 0 l 1
173 101 m 256
 176.333 115 173.833 127 165.5 137 c 128
 157.167 147 146 152 132 152 c 256
 118 152 105 147 93 137 c 128
 81 127 73.6667 115 71 101 c 256
 67.6667 87 70 75 78 65 c 128
 86 55 97 50 111 50 c 256
 125 50 138 55 150 65 c 128
 162 75 169.667 87 173 101 c 256
465 101 m 256
 468.333 115 465.833 127 457.5 137 c 128
 449.167 147 438 152 424 152 c 256
 410 152 397 147 385 137 c 128
 373 127 365.667 115 363 101 c 256
 359.667 87 362 75 370 65 c 128
 378 55 389 50 403 50 c 256
 417 50 430 55 442 65 c 128
 454 75 461.667 87 465 101 c 256
EndSplineSet
Fore
SplineSet
335 612 m 3xbf80
 442 612 522 560 522 453 c 3
 522 436 520 417 516 397 c 2
 477 214 l 1
 550 189 603 153 636 108 c 1
 728 542 l 2
 740 598 764 634 799 651 c 1
 881 617 l 1
 848 602 826 565 814 507 c 2
 707 0 l 1
 624 0 l 1x7f80
 611 49 578 88 525 117 c 1
 517 43 468 -12 390 -12 c 3
 339 -12 296 24 296 77 c 3
 296 139 333 181 382 206 c 1
 423 399 l 2
 425 411 427 422 427 432 c 3
 427 494 383 531 323 531 c 3
 262 531 213 506 176 456 c 1
 220 447 248 424 260 388 c 1
 203 360 170 324 161 280 c 2
 147 215 l 1
 199 215 241 180 241 126 c 3
 241 52 172 -12 99 -12 c 3
 49 -12 8 22 8 74 c 3
 8 113 23 144 44 165 c 1
 69 286 l 2
 78 328 106 361 152 385 c 1
 136 398 114 405 88 405 c 3
 80 405 72 404 63 403 c 1
 92 516 194 612 335 612 c 3xbf80
111 50 m 259xbf80
 143 50 174 80 174 113 c 3
 174 136 154 152 132 152 c 259
 99 152 70 122 70 89 c 3
 70 66 89 50 111 50 c 259xbf80
403 50 m 259
 435 50 466 80 466 113 c 3
 466 136 446 152 424 152 c 259
 391 152 362 122 362 89 c 3
 362 66 381 50 403 50 c 259
EndSplineSet
Validated: 1
EndChar

StartChar: uni0E0D
Encoding: 3597 3597 226
Width: 849
VWidth: 1504
Flags: W
HStem: -311 72<421.949 525.564> -111 58<346.22 428.485> -12 80<466.376 614.23> -12 62<104.618 186.159> 152 63<146.648 199.425> 531 81<236.518 392.046>
VStem: 29 71<55.3116 135.391> 204 62<66.7081 146.865> 272 60<-202.158 -124.868> 363 94<80.9918 159.915> 427 95<323.977 495.553> 431 56<-190.279 -115.302> 621 81<-123.188 -60>
DStem2: -57.8963 -311 35.4706 -311 0.207912 0.978148<551.029 680.912> 272.085 -311 365.688 -311 0.207912 0.978148<453.41 758.513> 547.688 -311 639.924 -311 0.207912 0.978148<402.847 954.214>
LayerCount: 2
Back
SplineSet
702 -60 m 1
 686 -134 657 -193.333 615 -238 c 0
 567.667 -287.333 506 -311.666 430 -311 c 0
 380.667 -311 341 -298.667 311 -274 c 1
 277 -244.667 265 -206.334 275 -159 c 0
 281 -129 296.667 -103.833 322 -83.5 c 128
 347.333 -63.1667 375 -53.0001 405 -53 c 0
 434.333 -53 456.333 -63.5 471 -84.5 c 128
 485.667 -105.5 490 -131 484 -161 c 1
 474.667 -200.333 453.667 -225.333 421 -236 c 1
 435 -238 444.667 -239 450 -239 c 0
 534 -239 591 -179.333 621 -60 c 1
 702 -60 l 1
736 141 m 2
 726 91 698.333 52 653 24 c 0
 613.666 0 568.333 -12 517 -12 c 0
 465 -12 425.667 0 399 24 c 0
 367.667 51.3333 357 90.3333 367 141 c 1
 423 399 l 2
 431 438.334 425.5 470.167 406.5 494.5 c 128
 387.5 518.833 359.667 531 323 531 c 0
 261.667 531 212.667 506 176 456 c 1
 217.333 448 245.333 425.333 260 388 c 1
 202.667 360 169.667 324 161 280 c 2
 146 209 l 1
 154 213 164 215 176 215 c 0
 207.333 215 231.5 204.167 248.5 182.5 c 128
 265.5 160.833 270.333 134 263 102 c 256
 255.666 70 238.832 43 212.5 21 c 128
 186.167 -1 157 -12 125 -12 c 0
 91.6666 -12 65.9999 -0.5 48 22.5 c 128
 30 45.5 24.6667 74.6667 32 110 c 2
 69 286 l 2
 78.3333 328 106 361 152 385 c 1
 130.667 402.333 101 408.333 63 403 c 1
 79 465 113 516.334 165 557 c 1
 214.333 594.333 271 612.666 335 612 c 0
 402.333 612 452.833 593 486.5 555 c 128
 520.167 517 530 464.333 516 397 c 2
 459 128 l 1
 453.667 106.667 459 91.3337 475 82 c 128
 491 72.6667 511 68 535 68 c 0
 558.333 68 580.5 72.6667 601.5 82 c 128
 622.5 91.3334 635.667 106.667 641 128 c 1
 728 542 l 2
 740 598 763.667 634.333 799 651 c 1
 881 617 l 1
 847.66 601.667 825.326 565 814 507 c 1
 736 141 l 2
429 -158 m 256
 432.333 -144.667 430.333 -133.501 423 -124.5 c 128
 415.667 -115.5 405 -111 391 -111 c 256
 377 -111 364.667 -115.5 354 -124.5 c 128
 343.331 -133.5 336.664 -144.667 334 -158 c 256
 330.667 -171.333 332.334 -182.666 339 -192 c 128
 345.667 -201.333 356 -206 370 -206 c 256
 384 -206 396.5 -201.333 407.5 -192 c 128
 418.5 -182.667 425.667 -171.334 429 -158 c 256
203 101 m 256
 206.331 115 203.998 127 196 137 c 128
 188 147 176.667 152 162 152 c 256
 148 152 135 147 123 137 c 128
 111 127 103.667 115 101 101 c 256
 97.6667 87 100 75 108 65 c 128
 116 55 127 50 141 50 c 256
 155 50 168 55 180 65 c 128
 192 75 199.667 87 203 101 c 256
EndSplineSet
Fore
SplineSet
487 -136 m 3xcf98
 487 -189 458 -224 421 -236 c 1
 435 -238 445 -239 450 -239 c 3
 534 -239 591 -179 621 -60 c 1
 702 -60 l 1
 672 -200 590 -311 430 -311 c 3
 347 -311 272 -270 272 -190 c 3
 272 -115 331 -53 405 -53 c 3
 453 -53 487 -87 487 -136 c 3xcf98
457 113 m 3xdfc8
 457 78 499 68 535 68 c 3
 584 68 632 87 641 128 c 2
 728 542 l 2
 740 598 764 634 799 651 c 1
 881 617 l 1
 848 602 826 565 814 507 c 2
 736 141 l 2
 717 49 629 -12 517 -12 c 3
 430 -12 363 25 363 106 c 3xefc8
 363 117 365 129 367 141 c 2
 423 399 l 2
 425 411 427 422 427 432 c 3
 427 494 383 531 323 531 c 3
 262 531 213 506 176 456 c 1
 217 448 245 425 260 388 c 1
 203 360 170 324 161 280 c 2
 146 209 l 1
 154 213 164 215 176 215 c 3
 226 215 266 182 266 130 c 3
 266 54 201 -12 125 -12 c 3
 70 -12 29 25 29 81 c 3
 29 90 30 100 32 110 c 2
 69 286 l 2
 78 328 106 361 152 385 c 1
 136 398 114 405 88 405 c 0
 80 405 72 404 63 403 c 1
 92 516 194 612 335 612 c 3
 442 612 522 560 522 453 c 3xdfa8
 522 436 520 417 516 397 c 2
 459 128 l 2
 458 123 457 118 457 113 c 3xdfc8
370 -206 m 259
 402 -206 431 -178 431 -146 c 3xcf98
 431 -124 413 -111 391 -111 c 259
 358 -111 332 -138 332 -171 c 3
 332 -193 348 -206 370 -206 c 259
141 50 m 259xdf88
 174 50 204 80 204 113 c 3
 204 137 185 152 162 152 c 259
 129 152 100 122 100 89 c 3
 100 66 119 50 141 50 c 259xdf88
EndSplineSet
Validated: 1
Substitution2: "Thai Descender Removal Single Substitution" uni0E0D.descless
Substitution2: "'ccmp' Pali-Sanskrit Descender Removal" uni0E0D.descless
EndChar

StartChar: uni0E0E
Encoding: 3598 3598 227
Width: 639
VWidth: 1504
Flags: W
HStem: -352 69<43.6265 125.816> -199 65<50.478 149.626> -12 63<33.4782 116.082> 153 62<46.9841 124.365> 532 80<290.133 451.01>
VStem: -35 64<56.426 135.313> -28 70<-280.344 -208.842> 490 96<366.593 492.818>
DStem2: 123 211 217 286 0.117461 0.993078<0 148.644> 328.218 -352 421.725 -352 0.207912 0.978148<128.815 798.089>
AnchorPoint: "BelowBase" 416 -375 basechar 0
LayerCount: 2
Back
SplineSet
423 -346 m 1
 328 -346 l 1
 326 -292.667 288.333 -250.667 215 -220 c 1
 189.667 -308 141.667 -352 71 -352 c 0
 37.6667 -352 11.6667 -341.5 -7 -320.5 c 128
 -25.6667 -299.5 -32 -273 -26 -241 c 1
 -10 -169.667 44.6667 -134 138 -134 c 0
 152 -134 163 -134.333 171 -135 c 1
 180.333 -115.667 189 -101.667 197 -93 c 0
 211 -77 229.667 -62.6667 253 -50 c 1
 308 -83 l 1
 272.667 -100.333 249.334 -122.666 238 -150 c 1
 291.333 -170 330.333 -195.333 355 -226 c 1
 487 399 l 2
 495 439 488.5 471.167 467.5 495.5 c 128
 446.5 519.833 416 532 376 532 c 0
 314.667 532 264.667 506.667 226 456 c 1
 267.334 448 295.667 425.333 311 388 c 1
 281 372.667 260.667 360 250 350 c 0
 234 334 223 312.667 217 286 c 0
 211.665 264 207.332 232.167 204 190.5 c 128
 200.667 148.835 197.001 119.335 193 102 c 0
 185.667 70 169 43 143 21 c 128
 117 -1 88.3333 -12 57 -12 c 0
 25 -12 0.5 -1 -16.5 21 c 128
 -33.5 43 -38.6667 70 -32 102 c 1
 -24.6667 133.333 -8.00003 160 18 182 c 128
 44 204 72 215 102 215 c 0
 114 215 121 213.667 123 211 c 1
 134 304 l 1
 142 339.333 165 366.333 203 385 c 1
 179.667 402.333 150 408.333 114 403 c 1
 129.333 465 163.666 516.334 217 557 c 1
 268.333 594.333 326.333 612.666 391 612 c 0
 461 612 513.334 592.5 548 553.5 c 128
 582.667 514.5 593.667 462.333 581 397 c 1
 423 -346 l 1
150 -203 m 1
 140.667 -199.667 128.667 -198.334 114 -199 c 0
 72.6666 -199 49.3333 -211 44 -235 c 0
 36.6667 -267 49.6667 -283 83 -283 c 1
 102.333 -281 117 -273.5 127 -260.5 c 128
 137 -247.5 144.667 -228.333 150 -203 c 1
132 102 m 256
 135.332 116 132.999 128 125 138 c 128
 117 148 106 153 92 153 c 256
 78 153 65 148 53 138 c 128
 41 128 33.3333 116 30 102 c 256
 26.6667 88 29.1667 76 37.5 66 c 128
 45.8333 56 57 51 71 51 c 256
 85 51 97.8333 56 109.5 66 c 128
 121.167 76 128.667 88 132 102 c 256
EndSplineSet
Fore
SplineSet
391 612 m 3xfd
 503 612 586 557 586 447 c 3
 586 431 584 414 581 397 c 2
 423 -346 l 1
 328 -346 l 1
 326 -293 288 -251 215 -220 c 1
 190 -308 142 -352 71 -352 c 3
 16 -352 -28 -318 -28 -263 c 3xfb
 -28 -175 43 -134 138 -134 c 3
 152 -134 163 -134 171 -135 c 1
 192 -91 211 -73 253 -50 c 1
 308 -83 l 1
 273 -100 249 -123 238 -150 c 1
 291 -170 330 -195 355 -226 c 1
 487 399 l 2
 489 410 490 420 490 430 c 3
 490 495 441 532 376 532 c 3
 315 532 265 507 226 456 c 1
 267 448 296 425 311 388 c 1
 255 360 230 346 217 286 c 0
 210 253 201 134 193 102 c 0
 180 44 125 -12 57 -12 c 3
 5 -12 -35 23 -35 76 c 3
 -35 149 31 215 102 215 c 3
 114 215 121 214 123 211 c 1
 134 304 l 2
 138 340 165 366 203 385 c 1
 185 398 163 405 138 405 c 3
 130 405 122 404 114 403 c 1
 142 517 250 612 391 612 c 3xfd
114 -199 m 3
 66 -199 42 -214 42 -251 c 3
 42 -272 56 -283 83 -283 c 3
 125 -283 142 -243 150 -203 c 1
 141 -200 129 -199 114 -199 c 3
71 51 m 259
 103 51 133 81 133 114 c 3
 133 137 114 153 92 153 c 259
 60 153 29 123 29 90 c 3xfd
 29 67 49 51 71 51 c 259
EndSplineSet
Validated: 1
EndChar

